<svg width="20" height="19" viewBox="0 0 20 19" fill="none" xmlns="http://www.w3.org/2000/svg">
<path d="M19 9.72C19 4.23 14.74 0.5 10 0.5C5.31 0.5 1 4.15 1 9.78C0.4 10.12 0 10.76 0 11.5V13.5C0 14.6 0.9 15.5 2 15.5H3V9.4C3 5.53 6.13 2.4 10 2.4C13.87 2.4 17 5.53 17 9.4V16.5H9V18.5H17C18.1 18.5 19 17.6 19 16.5V15.28C19.59 14.97 20 14.36 20 13.64V11.34C20 10.64 19.59 10.03 19 9.72Z" fill="#fff"/>
<path d="M7 11.5C7.55228 11.5 8 11.0523 8 10.5C8 9.94771 7.55228 9.5 7 9.5C6.44772 9.5 6 9.94771 6 10.5C6 11.0523 6.44772 11.5 7 11.5Z" fill="#fff"/>
<path d="M13 11.5C13.5523 11.5 14 11.0523 14 10.5C14 9.94771 13.5523 9.5 13 9.5C12.4477 9.5 12 9.94771 12 10.5C12 11.0523 12.4477 11.5 13 11.5Z" fill="#fff"/>
<path d="M16 8.53C15.52 5.68 13.04 3.5 10.05 3.5C7.02 3.5 3.76 6.01 4.02 9.95C6.49 8.94 8.35 6.74 8.88 4.06C10.19 6.69 12.88 8.5 16 8.53Z" fill="#fff"/>
</svg>
