<svg width="24" height="10" viewBox="0 0 24 10" fill="none" xmlns="http://www.w3.org/2000/svg">
<path d="M18.59 4.08995C19.64 4.59995 20.63 5.23995 21.55 5.99995L20.48 7.06995C19.9 6.59995 19.27 6.17995 18.6 5.79995V4.08995H18.59ZM5.4 4.08995V5.78995C4.75 6.15995 4.12 6.57995 3.53 7.05995L2.46 5.98995C3.37 5.23995 4.36 4.60995 5.4 4.08995ZM12 0.569946C7.46 0.569946 3.34 2.34995 0.29 5.23995C0.11 5.41995 0 5.66995 0 5.94995C0 6.22995 0.11 6.47995 0.29 6.64995L2.77 9.12995C2.95 9.30995 3.2 9.41995 3.48 9.41995C3.75 9.41995 4 9.31995 4.18 9.13995C4.97 8.40995 5.86 7.77995 6.84 7.28995C7.17 7.12995 7.4 6.77995 7.4 6.38995V3.28995C8.85 2.81995 10.4 2.56995 12 2.56995C13.6 2.56995 15.15 2.81995 16.59 3.29995V6.39995C16.59 6.79995 16.82 7.13995 17.15 7.29995C18.13 7.78995 19.03 8.40995 19.82 9.14995C20 9.31995 20.25 9.42995 20.52 9.42995C20.8 9.42995 21.05 9.31995 21.23 9.13995L23.71 6.65995C23.89 6.47995 24 6.22995 24 5.94995C24 5.66995 23.89 5.41995 23.71 5.23995C20.66 2.34995 16.54 0.569946 12 0.569946Z" fill="#E32626"/>
</svg>
