<svg width="12" height="8" viewBox="0 0 12 8" fill="none" xmlns="http://www.w3.org/2000/svg">
<path d="M6.70639 6.8275L10.9464 2.5875C11.0401 2.49454 11.1145 2.38394 11.1653 2.26208C11.216 2.14022 11.2422 2.00951 11.2422 1.8775C11.2422 1.74549 11.216 1.61478 11.1653 1.49292C11.1145 1.37107 11.0401 1.26046 10.9464 1.1675C10.759 0.98125 10.5056 0.876709 10.2414 0.876709C9.9772 0.876709 9.72375 0.98125 9.53639 1.1675L5.99639 4.7075L2.45639 1.1675C2.26903 0.98125 2.01557 0.876709 1.75139 0.876709C1.4872 0.876709 1.23375 0.98125 1.04639 1.1675C0.953708 1.26094 0.880383 1.37176 0.830618 1.49359C0.780853 1.61543 0.755629 1.74589 0.75639 1.8775C0.755629 2.00911 0.780853 2.13957 0.830618 2.26141C0.880382 2.38324 0.953708 2.49406 1.04639 2.5875L5.28639 6.8275C5.37935 6.92123 5.48995 6.99562 5.61181 7.04639C5.73367 7.09716 5.86438 7.1233 5.99639 7.1233C6.1284 7.1233 6.25911 7.09716 6.38097 7.04639C6.50282 6.99562 6.61343 6.92123 6.70639 6.8275Z" fill="#989898"/>
</svg>
