<svg width="40" height="40" viewBox="0 0 40 40" fill="none" xmlns="http://www.w3.org/2000/svg">
<rect x="0.586792" y="0.5" width="38.9132" height="39" rx="9.5" fill="#F9F9F9"/>
<path d="M15.0484 14H25.0484L20.0384 20.3L15.0484 14ZM12.2984 13.61C14.3184 16.2 18.0484 21 18.0484 21V27C18.0484 27.55 18.4984 28 19.0484 28H21.0484C21.5984 28 22.0484 27.55 22.0484 27V21C22.0484 21 25.7684 16.2 27.7884 13.61C28.2984 12.95 27.8284 12 26.9984 12H13.0884C12.2584 12 11.7884 12.95 12.2984 13.61Z" fill="#0057E4"/>
<rect x="0.586792" y="0.5" width="38.9132" height="39" rx="9.5" stroke="#EEEEEE"/>
</svg>
