<svg width="18" height="13" viewBox="0 0 18 13" fill="none" xmlns="http://www.w3.org/2000/svg">
<path d="M16.8282 0.911687C16.7197 0.802338 16.5907 0.715544 16.4485 0.656314C16.3064 0.597084 16.1539 0.566589 15.9999 0.566589C15.8458 0.566589 15.6934 0.597084 15.5512 0.656314C15.409 0.715544 15.28 0.802338 15.1715 0.911687L6.47986 9.61502L2.82819 5.95169C2.71558 5.84291 2.58265 5.75738 2.43699 5.69997C2.29132 5.64257 2.13578 5.61442 1.97924 5.61712C1.82269 5.61983 1.66821 5.65335 1.52462 5.71576C1.38103 5.77817 1.25114 5.86825 1.14236 5.98085C1.03358 6.09346 0.948049 6.22639 0.890644 6.37206C0.833239 6.51772 0.805087 6.67327 0.807796 6.82981C0.810504 6.98636 0.84402 7.14083 0.906429 7.28442C0.968838 7.42802 1.05892 7.55791 1.17153 7.66669L5.65153 12.1467C5.75998 12.256 5.88902 12.3428 6.03119 12.4021C6.17336 12.4613 6.32585 12.4918 6.47986 12.4918C6.63387 12.4918 6.78636 12.4613 6.92853 12.4021C7.0707 12.3428 7.19974 12.256 7.30819 12.1467L16.8282 2.62669C16.9466 2.51744 17.0411 2.38484 17.1058 2.23726C17.1704 2.08968 17.2038 1.93031 17.2038 1.76919C17.2038 1.60807 17.1704 1.4487 17.1058 1.30111C17.0411 1.15353 16.9466 1.02094 16.8282 0.911687Z" fill="#00C22B"/>
</svg>
