<svg width="276" height="248" viewBox="0 0 276 248" fill="none" xmlns="http://www.w3.org/2000/svg">
<g clip-path="url(#clip0_433_5466)">
<path opacity="0.1" d="M216.342 204.007C206.635 204.007 198.766 199.488 198.766 193.914C198.766 188.34 206.635 183.821 216.342 183.821C226.049 183.821 233.918 188.34 233.918 193.914C233.918 199.488 226.049 204.007 216.342 204.007Z" fill="#E6E6E6"/>
<path d="M64.4733 206.319L56.7646 210.752C56.7646 210.752 60.7015 198.379 58.6036 185.907C57.8107 181.194 56.1093 178.854 55.5146 177.593C54.92 176.332 50.3112 168.541 54.4134 164.973C58.5156 161.405 68.0579 168.579 67.5403 187.78C67.305 194.064 66.2745 200.294 64.4733 206.319Z" fill="#3E87FF"/>
<path opacity="0.5" d="M64.4733 206.319L56.7646 210.752C56.7646 210.752 60.7015 198.379 58.6036 185.907C57.8107 181.194 56.1093 178.854 55.5146 177.593C54.92 176.332 50.3112 168.541 54.4134 164.973C58.5156 161.405 68.0579 168.579 67.5403 187.78C67.305 194.064 66.2745 200.294 64.4733 206.319Z" fill="black"/>
<path d="M60.8905 208.654C60.9466 208.655 61.0017 208.639 61.0481 208.607C61.0944 208.576 61.1298 208.531 61.1493 208.478C61.1768 208.395 64.1227 200.345 64.0291 187.405C63.9355 174.466 57.1352 167.44 57.0692 167.374C57.0436 167.348 57.0131 167.327 56.9796 167.313C56.946 167.299 56.91 167.292 56.8737 167.292C56.8373 167.292 56.8014 167.299 56.7678 167.313C56.7343 167.327 56.7038 167.348 56.6782 167.374C56.6524 167.399 56.6319 167.43 56.618 167.463C56.604 167.497 56.5968 167.533 56.5968 167.569C56.5968 167.605 56.604 167.641 56.618 167.675C56.6319 167.709 56.6524 167.739 56.6782 167.765C56.7443 167.831 63.3848 174.647 63.4784 187.411C63.572 200.174 60.6647 208.214 60.6317 208.291C60.6069 208.359 60.6104 208.435 60.6414 208.501C60.6723 208.567 60.7283 208.618 60.7969 208.643C60.8272 208.652 60.8589 208.656 60.8905 208.654Z" fill="white"/>
<path d="M61.2577 208.213L50.7187 214.27C49.6206 214.919 48.3182 215.131 47.0711 214.862C45.824 214.594 44.7239 213.865 43.99 212.822C43.2924 211.737 42.9982 210.441 43.1586 209.16C43.6652 203.687 46.0439 202.426 43.1311 199.987C40.2183 197.548 39.4584 197.377 39.6236 195.031C39.7888 192.686 41.3911 191.661 42.1509 190.736C42.9108 189.811 45.0142 187.873 43.5826 185.01C42.1509 182.147 40.1962 179.377 43.1586 178.111C44.9261 177.351 47.8719 178.364 49.8101 180.467C51.7484 182.571 53.3452 184.085 55.2008 184.591C57.0564 185.098 60.9218 185.181 60.7566 188.38C60.5914 191.579 59.7434 192.675 60.5033 194.101C61.9349 196.766 68.1625 198.28 61.2577 208.213Z" fill="#3E87FF"/>
<path d="M56.0509 211.473C56.1195 211.471 56.1851 211.444 56.2357 211.397C56.2862 211.351 56.3183 211.288 56.3262 211.22C56.3262 211.032 57.9451 192.135 44.9503 179.559C44.8967 179.514 44.8284 179.492 44.759 179.496C44.6896 179.5 44.6244 179.53 44.5763 179.58C44.5282 179.631 44.5009 179.697 44.4998 179.767C44.4987 179.836 44.5239 179.903 44.5704 179.955C57.3779 192.35 55.7921 210.983 55.7756 211.17C55.7695 211.242 55.792 211.314 55.8384 211.37C55.8848 211.425 55.9513 211.46 56.0234 211.467L56.0509 211.473Z" fill="white"/>
<path d="M53.9601 195.207C54.0295 195.208 54.0963 195.182 54.1474 195.135C54.1984 195.088 54.2299 195.023 54.2354 194.954C54.3507 193.49 54.7632 192.064 55.4476 190.764C56.1321 189.464 57.0742 188.318 58.2165 187.394C58.2462 187.373 58.2716 187.347 58.291 187.316C58.3105 187.285 58.3237 187.251 58.3298 187.215C58.336 187.179 58.3349 187.142 58.3268 187.107C58.3187 187.072 58.3037 187.038 58.2825 187.009C58.2622 186.979 58.2361 186.954 58.2059 186.934C58.1756 186.915 58.1418 186.902 58.1065 186.896C58.0711 186.889 58.0348 186.89 57.9998 186.898C57.9648 186.906 57.9317 186.921 57.9026 186.942C56.6853 187.908 55.6819 189.115 54.9558 190.489C54.2298 191.862 53.797 193.372 53.6848 194.921C53.6787 194.995 53.7018 195.068 53.7492 195.124C53.7967 195.181 53.8645 195.217 53.9381 195.224L53.9601 195.207Z" fill="white"/>
<path d="M54.8591 198.451C54.9257 198.451 54.9902 198.428 55.0408 198.384C55.0955 198.336 55.1289 198.268 55.1341 198.195C55.1392 198.122 55.1156 198.049 55.0684 197.994C54.9362 197.839 51.682 194.249 44.0559 195.202C43.9836 195.211 43.9181 195.249 43.8737 195.307C43.8294 195.365 43.8097 195.438 43.8191 195.51C43.8287 195.583 43.8664 195.649 43.924 195.694C43.9816 195.739 44.0546 195.76 44.1274 195.752C51.4508 194.833 54.6279 198.324 54.6609 198.357C54.686 198.385 54.7165 198.408 54.7505 198.424C54.7846 198.44 54.8215 198.449 54.8591 198.451Z" fill="white"/>
<path d="M95.6585 241.052L166.887 199.926C171.915 197.024 175.989 189.239 175.989 182.537V30.0142C175.989 23.3131 171.915 20.2351 166.887 23.1369L95.6585 64.2631C90.6313 67.1649 86.5567 74.9507 86.5567 81.6519V234.175C86.5567 240.871 90.6313 243.954 95.6585 241.052Z" fill="#455A64"/>
<path d="M87.4543 59.4674L158.689 18.3412C160.836 17.1023 162.807 16.9591 164.366 17.719C164.556 17.8145 164.74 17.9231 164.916 18.0439L172.9 22.6857C171.293 21.7221 169.189 21.7936 166.882 23.1262L95.6532 64.2524C90.626 67.1542 86.5513 74.94 86.5513 81.6411V234.164C86.5513 237.71 87.6911 240.221 89.5082 241.411L81.6287 236.824C79.6189 235.756 78.325 233.14 78.325 229.39V76.8672C78.325 70.1551 82.4271 62.3692 87.4543 59.4674Z" fill="#37474F"/>
<path d="M86.5578 81.6411V234.164C86.5578 237.71 87.6976 240.221 89.5147 241.411L81.6297 236.824C79.6199 235.756 78.326 233.14 78.326 229.39V76.8672L86.5303 81.6301L86.5578 81.6411Z" fill="#263238"/>
<path d="M78.3532 88.7002L86.5575 93.4356V97.1358L78.3532 92.3949V88.7002Z" fill="#37474F"/>
<path d="M81.9483 113.308C82.6807 113.732 83.2753 113.28 83.2753 112.305V104.349C83.2679 103.851 83.144 103.363 82.9135 102.922C82.6831 102.481 82.3525 102.1 81.9483 101.81C81.216 101.386 80.6213 101.81 80.6213 102.813V110.769C80.6288 111.267 80.7527 111.755 80.9831 112.196C81.2136 112.637 81.5441 113.018 81.9483 113.308Z" fill="#37474F"/>
<path d="M83.281 112.327V104.349C83.2736 103.851 83.1497 103.363 82.9192 102.922C82.6888 102.481 82.3582 102.1 81.954 101.81C81.8332 101.726 81.6925 101.674 81.5458 101.661C81.399 101.647 81.2513 101.672 81.1171 101.733L82.1137 101.221C82.25 101.156 82.4012 101.127 82.5521 101.139C82.7029 101.15 82.848 101.202 82.9727 101.287C83.3772 101.577 83.7084 101.958 83.9398 102.399C84.1711 102.839 84.2963 103.328 84.3052 103.826V111.777C84.3259 111.978 84.2953 112.18 84.2163 112.366C84.1374 112.552 84.0126 112.715 83.8537 112.839L82.813 113.39C82.9786 113.271 83.1094 113.109 83.1917 112.922C83.274 112.736 83.3048 112.53 83.281 112.327Z" fill="#455A64"/>
<path d="M81.9483 132.563C82.6807 132.987 83.2753 132.563 83.2753 131.561V123.604C83.2675 123.107 83.1434 122.619 82.913 122.178C82.6825 121.737 82.3522 121.356 81.9483 121.066C81.216 120.642 80.6213 121.066 80.6213 122.074V130.025C80.6279 130.522 80.7514 131.011 80.982 131.452C81.2125 131.893 81.5435 132.274 81.9483 132.563Z" fill="#37474F"/>
<path d="M83.2807 131.561V123.604C83.2729 123.107 83.1488 122.619 82.9184 122.178C82.6879 121.737 82.3576 121.356 81.9537 121.066C81.8323 120.983 81.6917 120.932 81.5453 120.919C81.3988 120.906 81.2513 120.93 81.1168 120.989L82.1134 120.471C82.249 120.403 82.4007 120.373 82.5521 120.385C82.7036 120.396 82.8489 120.449 82.9724 120.538C83.3779 120.827 83.7098 121.207 83.9412 121.648C84.1727 122.089 84.2973 122.578 84.3049 123.076V131.049C84.3261 131.25 84.2958 131.453 84.2168 131.639C84.1378 131.825 84.0127 131.987 83.8534 132.112L82.8127 132.662C82.9851 132.54 83.1202 132.372 83.2029 132.178C83.2855 131.984 83.3125 131.77 83.2807 131.561Z" fill="#455A64"/>
<path d="M98.1483 68.5415L168.144 28.1146C168.436 27.9466 168.767 27.8578 169.104 27.8572C169.441 27.8566 169.772 27.9441 170.065 28.111C170.358 28.278 170.602 28.5186 170.773 28.809C170.944 29.0994 171.036 29.4295 171.04 29.7665V182.538C171.04 187.636 167.422 193.897 163.006 196.446L94.7289 235.888C94.4051 236.074 94.038 236.172 93.6644 236.172C93.2908 236.171 92.9239 236.073 92.6004 235.886C92.2769 235.699 92.0082 235.43 91.8212 235.107C91.6343 234.784 91.5357 234.417 91.5352 234.043V80.0111C91.5077 75.8043 94.4921 70.6449 98.1483 68.5415Z" fill="#3E87FF"/>
<path opacity="0.9" d="M98.1483 68.5415L168.144 28.1146C168.436 27.9466 168.767 27.8578 169.104 27.8572C169.441 27.8566 169.772 27.9441 170.065 28.111C170.358 28.278 170.602 28.5186 170.773 28.809C170.944 29.0994 171.036 29.4295 171.04 29.7665V182.538C171.04 187.636 167.422 193.897 163.006 196.446L94.7289 235.888C94.4051 236.074 94.038 236.172 93.6644 236.172C93.2908 236.171 92.9239 236.073 92.6004 235.886C92.2769 235.699 92.0082 235.43 91.8212 235.107C91.6343 234.784 91.5357 234.417 91.5352 234.043V80.0111C91.5077 75.8043 94.4921 70.6449 98.1483 68.5415Z" fill="white"/>
<path d="M147.21 38.6704L146.125 43.2351L122.922 56.6153L118.913 54.4789L147.21 38.6704Z" fill="#455A64"/>
<path d="M140.385 43.0809C140.385 43.8407 140.936 44.1436 141.574 43.7692C141.917 43.5415 142.202 43.2366 142.406 42.879C142.609 42.5213 142.726 42.1209 142.747 41.7098C142.747 40.9555 142.196 40.6471 141.558 41.0271C141.215 41.2535 140.93 41.5574 140.726 41.9142C140.523 42.2709 140.406 42.6706 140.385 43.0809Z" fill="#263238"/>
<path d="M124.754 52.7446C124.881 52.7436 125.006 52.7115 125.118 52.651L136.967 46.0435C137.134 45.9452 137.257 45.7855 137.308 45.5983C137.359 45.4111 137.335 45.2114 137.241 45.0418C137.146 44.8721 136.99 44.746 136.804 44.6904C136.618 44.6348 136.418 44.654 136.246 44.744L124.391 51.3515C124.247 51.4316 124.133 51.5574 124.068 51.7089C124.004 51.8605 123.991 52.0294 124.033 52.1889C124.074 52.3484 124.168 52.4896 124.298 52.5902C124.429 52.6908 124.589 52.7451 124.754 52.7446Z" fill="#263238"/>
<path d="M188.308 94.1238C190.542 91.3798 191.667 87.8982 191.46 84.3657C191.253 80.8333 189.73 77.5067 187.191 75.0422C184.652 72.5776 181.282 71.1542 177.745 71.0527C174.208 70.9512 170.761 72.179 168.085 74.4939C165.408 76.8088 163.697 80.0426 163.288 83.5574C162.879 87.0721 163.802 90.6125 165.875 93.4801C167.948 96.3476 171.021 98.3341 174.487 99.0475C177.953 99.761 181.56 99.1495 184.597 97.3339L191.491 100.329L188.308 94.1238Z" fill="#3E87FF"/>
<path opacity="0.4" d="M188.308 94.1238C190.542 91.3798 191.667 87.8982 191.46 84.3657C191.253 80.8333 189.73 77.5067 187.191 75.0422C184.652 72.5776 181.282 71.1542 177.745 71.0527C174.208 70.9512 170.761 72.179 168.085 74.4939C165.408 76.8088 163.697 80.0426 163.288 83.5574C162.879 87.0721 163.802 90.6125 165.875 93.4801C167.948 96.3476 171.021 98.3341 174.487 99.0475C177.953 99.761 181.56 99.1495 184.597 97.3339L191.491 100.329L188.308 94.1238Z" fill="#D3D3D3"/>
<path d="M101.762 136.863V205.278C101.761 206.052 101.964 206.813 102.35 207.483C102.736 208.154 103.292 208.711 103.962 209.098C104.632 209.486 105.392 209.69 106.165 209.69C106.939 209.69 107.7 209.487 108.37 209.1L145.217 187.824L151.748 184.057C153.997 182.757 155.865 180.889 157.165 178.641C158.466 176.392 159.153 173.842 159.159 171.244V102.824C159.16 102.05 158.958 101.289 158.572 100.619C158.185 99.9483 157.629 99.3913 156.96 99.0039C156.29 98.6165 155.53 98.4124 154.756 98.4121C153.982 98.4118 153.222 98.6154 152.552 99.0023L109.163 124.05C106.913 125.348 105.045 127.216 103.746 129.465C102.446 131.714 101.762 134.266 101.762 136.863Z" fill="#344273"/>
<path opacity="0.5" d="M101.762 136.863V205.278C101.761 206.052 101.964 206.813 102.35 207.483C102.736 208.154 103.292 208.711 103.962 209.098C104.632 209.486 105.392 209.69 106.165 209.69C106.939 209.69 107.7 209.487 108.37 209.1L145.217 187.824L151.748 184.057C153.997 182.757 155.865 180.889 157.165 178.641C158.466 176.392 159.153 173.842 159.159 171.244V102.824C159.16 102.05 158.958 101.289 158.572 100.619C158.185 99.9483 157.629 99.3913 156.96 99.0039C156.29 98.6165 155.53 98.4124 154.756 98.4121C153.982 98.4118 153.222 98.6154 152.552 99.0023L109.163 124.05C106.913 125.348 105.045 127.216 103.746 129.465C102.446 131.714 101.762 134.266 101.762 136.863Z" fill="white"/>
<path d="M122.99 177.345C122.99 177.345 116.091 188.787 121.074 201.688L145.236 187.823L122.99 177.345Z" fill="#344273"/>
<path d="M111.986 125.937C111.464 121.697 114.478 117.836 118.719 117.314C122.959 116.791 126.82 119.806 127.343 124.046C127.865 128.287 124.85 132.148 120.61 132.67C116.369 133.192 112.508 130.178 111.986 125.937Z" fill="#344273"/>
<path d="M119.624 103.292C119.624 103.292 117.251 99.4374 116.524 99.7182C115.797 99.9991 116.998 103.672 116.998 103.672C116.998 103.672 113.408 104.421 114.074 105.324C114.74 106.227 119.129 106.012 119.129 106.012L119.624 103.292Z" fill="#344273"/>
<path d="M117.971 113.225C119.623 125.636 130.085 125.636 130.085 125.636L151.999 115.989C151.999 115.989 153.651 114.541 154.158 111.215C154.352 109.853 154.352 108.47 154.158 107.108C154.158 107.108 154.158 107.08 154.158 107.069C153.459 101.849 149.555 96.2383 141.053 94.5149C139.19 94.1387 137.293 93.9542 135.393 93.9643C134.473 93.961 133.554 94.007 132.64 94.1019C126.032 94.7517 121.401 97.8352 119.193 102.631C118.697 103.714 118.327 104.85 118.092 106.017C117.644 108.396 117.603 110.833 117.971 113.225Z" fill="#344273"/>
<path d="M170.584 137.232C170.584 137.232 178.364 136.962 181.36 144.544C181.36 144.544 178.056 146.774 173.722 144.544C169.389 142.314 170.584 137.232 170.584 137.232Z" fill="#344273"/>
<path opacity="0.5" d="M170.584 137.232C170.584 137.232 178.364 136.962 181.36 144.544C181.36 144.544 178.056 146.774 173.722 144.544C169.389 142.314 170.584 137.232 170.584 137.232Z" fill="black"/>
<path d="M170.805 140.883C170.805 140.883 173.007 131.313 174.169 131.197C175.331 131.082 175.557 134.116 175.463 135.828L178.216 129.903C178.304 129.719 178.428 129.555 178.581 129.421C178.734 129.286 178.913 129.185 179.107 129.123C179.301 129.06 179.506 129.038 179.709 129.058C179.912 129.078 180.108 129.139 180.287 129.237C183.04 130.751 187.869 135.355 177.688 146.736L170.805 140.883Z" fill="#FFD0A5"/>
<path d="M142.614 134.264L144.266 134.05C145.93 133.829 147.624 134.055 149.172 134.706C150.72 135.356 152.068 136.407 153.076 137.75L162.904 150.833L170.613 137.232C170.613 137.232 171.538 146.483 181.389 144.545L170.811 162.346C170.142 163.473 169.21 164.422 168.095 165.111C166.981 165.801 165.716 166.211 164.408 166.307C163.101 166.402 161.79 166.181 160.587 165.661C159.383 165.141 158.324 164.338 157.497 163.321L148.445 152.193L142.614 134.264Z" fill="#344273"/>
<path d="M121.635 164.797C123.837 170.38 124.079 171.47 122.736 174.262C121.8 176.324 121.063 178.47 120.533 180.671C120.533 180.671 130.742 192.113 145.273 187.829L151.803 184.063C153.161 183.28 154.385 182.283 155.426 181.112L153.439 166.289C153.339 165.509 153.418 164.716 153.67 163.971L155.757 157.853C156.775 154.865 156.927 151.65 156.194 148.58C155.461 145.509 153.874 142.709 151.616 140.503L144.601 133.648L126.177 136.004L123.424 136.792C121.622 137.313 120.068 138.467 119.048 140.042C118.029 141.617 117.612 143.507 117.874 145.365C118.777 151.862 120.252 161.289 121.635 164.797Z" fill="#344273"/>
<path opacity="0.5" d="M121.635 164.797C123.837 170.38 124.079 171.47 122.736 174.262C121.8 176.324 121.063 178.47 120.533 180.671C120.533 180.671 130.742 192.113 145.273 187.829L151.803 184.063C153.161 183.28 154.385 182.283 155.426 181.112L153.439 166.289C153.339 165.509 153.418 164.716 153.67 163.971L155.757 157.853C156.775 154.865 156.927 151.65 156.194 148.58C155.461 145.509 153.874 142.709 151.616 140.503L144.601 133.648L126.177 136.004L123.424 136.792C121.622 137.313 120.068 138.467 119.048 140.042C118.029 141.617 117.612 143.507 117.874 145.365C118.777 151.862 120.252 161.289 121.635 164.797Z" fill="black"/>
<path d="M132.744 148.118L136.433 144.974C136.824 144.64 137.295 144.413 137.8 144.317C138.305 144.22 138.826 144.257 139.313 144.424L143.773 145.96L144.373 143.46C144.467 143.071 144.638 142.705 144.877 142.384C145.116 142.063 145.418 141.794 145.763 141.593C146.109 141.392 146.492 141.263 146.889 141.214C147.286 141.165 147.689 141.196 148.073 141.307L150.006 141.858L146.735 135.592C145.667 133.551 144.022 131.869 142.005 130.757L140.722 130.052L130.123 130.603C130.123 130.603 126.175 132.255 126.175 135.971L132.744 148.085" fill="#344273"/>
<path d="M130.083 135.3L140.71 143.581V117.212H130.083V135.3Z" fill="#FFD0A5"/>
<path d="M140.541 133.125L143.774 145.982L130.124 135.299L140.541 133.125Z" fill="#FFD0A5"/>
<path d="M140.706 131.214C138.342 130.337 136.182 128.988 134.357 127.25C132.531 125.513 131.077 123.422 130.084 121.105V117.212H140.711L140.706 131.214Z" fill="#703838"/>
<path d="M138.417 97.6697C142.448 97.6697 151.015 99.9162 152.007 110.466C152.998 121.016 152.04 129.187 146.599 129.98C141.159 130.773 128.517 126.825 126.821 113.17C125.125 99.5143 134.491 97.6697 138.417 97.6697Z" fill="#FFD0A5"/>
<path d="M144.761 114.932V121.148L148.406 120.031L144.761 114.932Z" fill="#4C536C"/>
<path d="M140.707 117.272C140.008 117.272 139.441 116.705 139.441 116.006C139.441 115.306 140.008 114.74 140.707 114.74C141.407 114.74 141.974 115.306 141.974 116.006C141.974 116.705 141.407 117.272 140.707 117.272Z" fill="#344273"/>
<path d="M147.776 115.124C147.777 115.375 147.852 115.619 147.992 115.827C148.132 116.034 148.33 116.196 148.561 116.291C148.793 116.386 149.047 116.41 149.293 116.36C149.538 116.311 149.763 116.19 149.94 116.013C150.116 115.835 150.236 115.61 150.285 115.364C150.333 115.119 150.308 114.864 150.212 114.633C150.116 114.402 149.953 114.205 149.745 114.066C149.537 113.927 149.293 113.853 149.042 113.853C148.876 113.853 148.71 113.885 148.556 113.949C148.402 114.013 148.263 114.107 148.145 114.225C148.027 114.344 147.934 114.484 147.871 114.638C147.807 114.792 147.775 114.958 147.776 115.124Z" fill="#344273"/>
<path d="M150.591 112.482L148.113 111.011C148.113 111.011 149.06 110.026 150.007 110.615C150.954 111.204 150.591 112.482 150.591 112.482Z" fill="#344273"/>
<path d="M146.475 123.67C145.268 123.758 144.067 123.436 143.066 122.756C143.066 122.756 142.83 124.557 144.338 124.898C145.847 125.24 146.475 123.67 146.475 123.67Z" fill="#703838"/>
<path d="M148.638 101.26C148.638 101.26 147.124 115.824 127.318 116.281C127.318 116.281 121.332 101.805 133.16 97.1024C144.987 92.4001 148.638 101.26 148.638 101.26Z" fill="#344273"/>
<path d="M121.486 114.101L123.92 112.691C124.845 112.14 126.122 112.218 127.537 113.032C130.346 114.651 132.625 118.599 132.625 121.843C132.625 123.467 132.075 124.596 131.127 125.146L128.738 126.523L128.6 126.6L128.517 126.649C127.614 127.09 126.409 126.985 125.082 126.22C122.273 124.568 119.994 120.653 119.994 117.41C120.01 115.769 120.577 114.635 121.486 114.101Z" fill="#344273"/>
<path d="M121.504 122.394C119.518 118.954 119.518 115.237 121.504 114.09C123.489 112.944 126.709 114.803 128.695 118.242C130.681 121.682 130.681 125.399 128.695 126.546C126.709 127.692 123.49 125.833 121.504 122.394Z" fill="#344273"/>
<path opacity="0.5" d="M121.504 122.394C119.518 118.954 119.518 115.237 121.504 114.09C123.489 112.944 126.709 114.803 128.695 118.242C130.681 121.682 130.681 125.399 128.695 126.546C126.709 127.692 123.49 125.833 121.504 122.394Z" fill="black"/>
<path d="M120.509 117.157L122.161 116.193C122.789 115.819 123.664 115.868 124.633 116.424C125.646 117.086 126.488 117.976 127.093 119.024C127.697 120.071 128.047 121.246 128.113 122.454C128.113 123.555 127.722 124.342 127.089 124.706L125.437 125.647C125.408 125.669 125.377 125.687 125.344 125.702L125.289 125.735C124.902 125.882 124.484 125.932 124.073 125.88C123.662 125.828 123.271 125.676 122.932 125.438C121.92 124.777 121.078 123.887 120.474 122.841C119.869 121.795 119.519 120.621 119.452 119.414C119.496 118.296 119.882 117.52 120.509 117.157Z" fill="#344273"/>
<path d="M119.499 119.403C119.566 120.61 119.916 121.783 120.52 122.83C121.125 123.876 121.967 124.766 122.979 125.427C124.906 126.528 126.464 125.636 126.464 123.417C126.399 122.209 126.049 121.034 125.443 119.987C124.838 118.941 123.993 118.052 122.979 117.393C121.057 116.281 119.499 117.179 119.499 119.403Z" fill="#344273"/>
<path opacity="0.3" d="M119.499 119.403C119.566 120.61 119.916 121.783 120.52 122.83C121.125 123.876 121.967 124.766 122.979 125.427C124.906 126.528 126.464 125.636 126.464 123.417C126.399 122.209 126.049 121.034 125.443 119.987C124.838 118.941 123.993 118.052 122.979 117.393C121.057 116.281 119.499 117.179 119.499 119.403Z" fill="black"/>
<path d="M129.046 94.8287C130.624 93.6094 132.558 92.9386 134.552 92.918H135.042C137.062 92.8962 139.078 93.0807 141.061 93.4686C140.697 93.4686 140.334 93.4686 139.959 93.4686H141.061V94.4928H140.036C136.507 94.6128 133.162 96.1006 130.709 98.6417C128.257 101.183 126.888 104.578 126.893 108.11V112.443C126.893 112.614 126.857 112.784 126.788 112.94C126.718 113.097 126.617 113.237 126.489 113.352C126.362 113.467 126.212 113.553 126.049 113.606C125.887 113.66 125.714 113.678 125.544 113.66H125.417L124.316 113.319C124.389 113.342 124.465 113.357 124.542 113.363C124.214 113.318 123.913 113.154 123.698 112.903C123.483 112.651 123.367 112.328 123.375 111.997V107.978C123.386 100.704 126.53 96.7944 129.046 94.8287Z" fill="#344273"/>
<path d="M135.978 129.677C136.432 129.677 136.881 129.58 137.294 129.391L140.735 127.8C140.789 127.781 140.838 127.75 140.88 127.711C140.921 127.672 140.954 127.624 140.977 127.572C140.999 127.519 141.01 127.462 141.009 127.405C141.008 127.348 140.996 127.292 140.972 127.24C140.948 127.188 140.914 127.141 140.871 127.103C140.829 127.065 140.779 127.036 140.724 127.018C140.67 127.001 140.612 126.994 140.556 127C140.499 127.006 140.444 127.023 140.394 127.051L136.952 128.642C136.513 128.846 136.022 128.908 135.546 128.82C135.07 128.731 134.634 128.495 134.298 128.147L130.995 124.733C130.917 124.656 130.812 124.612 130.703 124.612C130.593 124.612 130.488 124.656 130.411 124.733C130.335 124.811 130.292 124.916 130.292 125.025C130.292 125.134 130.335 125.238 130.411 125.316L133.715 128.73C134.009 129.032 134.361 129.272 134.75 129.435C135.139 129.597 135.556 129.68 135.978 129.677Z" fill="#344273"/>
<path opacity="0.5" d="M135.978 129.677C136.432 129.677 136.881 129.58 137.294 129.391L140.735 127.8C140.789 127.781 140.838 127.75 140.88 127.711C140.921 127.672 140.954 127.624 140.977 127.572C140.999 127.519 141.01 127.462 141.009 127.405C141.008 127.348 140.996 127.292 140.972 127.24C140.948 127.188 140.914 127.141 140.871 127.103C140.829 127.065 140.779 127.036 140.724 127.018C140.67 127.001 140.612 126.994 140.556 127C140.499 127.006 140.444 127.023 140.394 127.051L136.952 128.642C136.513 128.846 136.022 128.908 135.546 128.82C135.07 128.731 134.634 128.495 134.298 128.147L130.995 124.733C130.917 124.656 130.812 124.612 130.703 124.612C130.593 124.612 130.488 124.656 130.411 124.733C130.335 124.811 130.292 124.916 130.292 125.025C130.292 125.134 130.335 125.238 130.411 125.316L133.715 128.73C134.009 129.032 134.361 129.272 134.75 129.435C135.139 129.597 135.556 129.68 135.978 129.677Z" fill="black"/>
<path d="M139.833 126.644C139.833 126.962 139.928 127.273 140.104 127.537C140.281 127.801 140.532 128.007 140.826 128.129C141.12 128.251 141.443 128.283 141.755 128.221C142.067 128.159 142.353 128.005 142.578 127.781C142.803 127.556 142.956 127.269 143.018 126.957C143.08 126.645 143.048 126.322 142.927 126.028C142.805 125.735 142.599 125.484 142.335 125.307C142.07 125.13 141.759 125.036 141.441 125.036C141.015 125.036 140.606 125.205 140.304 125.507C140.003 125.808 139.833 126.217 139.833 126.644Z" fill="#344273"/>
<path opacity="0.5" d="M139.833 126.644C139.833 126.962 139.928 127.273 140.104 127.537C140.281 127.801 140.532 128.007 140.826 128.129C141.12 128.251 141.443 128.283 141.755 128.221C142.067 128.159 142.353 128.005 142.578 127.781C142.803 127.556 142.956 127.269 143.018 126.957C143.08 126.645 143.048 126.322 142.927 126.028C142.805 125.735 142.599 125.484 142.335 125.307C142.07 125.13 141.759 125.036 141.441 125.036C141.015 125.036 140.606 125.205 140.304 125.507C140.003 125.808 139.833 126.217 139.833 126.644Z" fill="black"/>
<path d="M123.385 107.978V111.997C123.378 112.328 123.493 112.651 123.709 112.902C123.924 113.154 124.224 113.318 124.553 113.363C124.734 113.382 124.917 113.363 125.091 113.307C125.264 113.25 125.424 113.158 125.56 113.036C125.695 112.914 125.804 112.765 125.878 112.598C125.952 112.432 125.99 112.251 125.99 112.069V107.978C125.987 106.025 126.379 104.092 127.142 102.295C127.905 100.498 129.024 98.8736 130.432 97.5202C131.839 96.1668 133.506 95.1122 135.331 94.4197C137.157 93.7271 139.104 93.4111 141.055 93.4906C139.073 93.1027 137.056 92.9182 135.036 92.94H134.557C132.563 92.9605 130.63 93.6314 129.051 94.8506C126.529 96.7943 123.385 100.704 123.385 107.978Z" fill="#344273"/>
<path opacity="0.5" d="M123.385 107.978V111.997C123.378 112.328 123.493 112.651 123.709 112.902C123.924 113.154 124.224 113.318 124.553 113.363C124.734 113.382 124.917 113.363 125.091 113.307C125.264 113.25 125.424 113.158 125.56 113.036C125.695 112.914 125.804 112.765 125.878 112.598C125.952 112.432 125.99 112.251 125.99 112.069V107.978C125.987 106.025 126.379 104.092 127.142 102.295C127.905 100.498 129.024 98.8736 130.432 97.5202C131.839 96.1668 133.506 95.1122 135.331 94.4197C137.157 93.7271 139.104 93.4111 141.055 93.4906C139.073 93.1027 137.056 92.9182 135.036 92.94H134.557C132.563 92.9605 130.63 93.6314 129.051 94.8506C126.529 96.7943 123.385 100.704 123.385 107.978Z" fill="black"/>
<path d="M129.574 183.727C129.574 183.727 132.239 191.067 122.713 194.371C122.713 194.371 119.602 189.801 122.713 186.062C125.824 182.323 129.574 183.727 129.574 183.727Z" fill="#344273"/>
<path opacity="0.7" d="M129.574 183.727C129.574 183.727 132.239 191.067 122.713 194.371C122.713 194.371 119.602 189.801 122.713 186.062C125.824 182.323 129.574 183.727 129.574 183.727Z" fill="black"/>
<path d="M126.232 184.063C126.232 184.063 135.537 187.472 135.488 188.793C135.438 190.115 131.534 189.212 131.534 189.212L132.96 190.148C134.462 191.128 135.625 192.546 136.292 194.211C136.437 194.578 136.442 194.986 136.306 195.357C136.17 195.727 135.902 196.035 135.554 196.221L132.019 198.093C131.819 198.199 131.6 198.264 131.375 198.284C131.15 198.304 130.923 198.278 130.708 198.209C130.493 198.14 130.294 198.028 130.123 197.88C129.952 197.733 129.812 197.552 129.712 197.35C129.515 196.96 129.242 196.614 128.911 196.331C128.579 196.047 128.194 195.832 127.779 195.698C125.857 195.059 122.273 193.22 120.836 188.187L126.232 184.063Z" fill="#FFD0A5"/>
<path d="M123.439 136.781C123.439 136.781 128.395 139.534 125.763 147.892C123.131 156.251 118.192 169.218 118.192 169.218L129.573 183.727C128.357 183.874 127.186 184.275 126.136 184.905C125.085 185.535 124.18 186.379 123.478 187.383C122.806 188.404 122.386 189.569 122.253 190.784C122.119 191.999 122.277 193.228 122.713 194.37L108.584 176.2C107.277 174.521 106.409 172.542 106.059 170.443C105.71 168.345 105.888 166.192 106.579 164.18L112.636 146.494C113.377 144.333 114.607 142.373 116.231 140.768C117.855 139.162 119.828 137.954 121.997 137.238L123.439 136.781Z" fill="#344273"/>
<path d="M233.814 87.406L211.916 74.7416C211.664 74.567 211.372 74.4579 211.067 74.4242C210.763 74.3906 210.454 74.4334 210.17 74.5489C210.11 74.5766 210.053 74.6097 210 74.648L205.237 77.4397H205.27C204.669 77.7811 204.29 78.574 204.29 79.7083V104.068C204.29 106.127 205.539 108.523 207.087 109.415L228.985 122.079C229.263 122.28 229.594 122.395 229.936 122.41C230.279 122.424 230.618 122.338 230.912 122.161C230.897 122.167 230.884 122.177 230.874 122.189L235.604 119.436C236.22 119.106 236.611 118.302 236.611 117.151V92.7526C236.611 90.6932 235.383 88.298 233.814 87.406Z" fill="#3E87FF"/>
<path d="M235.829 89.7131C235.386 88.7709 234.687 87.9717 233.813 87.406L211.915 74.7416C211.663 74.567 211.371 74.4579 211.067 74.4242C210.762 74.3906 210.453 74.4334 210.169 74.5489C210.11 74.5766 210.052 74.6097 209.999 74.648L205.236 77.4397C205.527 77.2908 205.854 77.2248 206.18 77.2491C206.506 77.2734 206.82 77.387 207.086 77.5774L228.984 90.2417C229.888 90.8327 230.604 91.6694 231.049 92.6535L235.829 89.7131Z" fill="#3E87FF"/>
<path d="M231.782 119.937C231.782 121.038 231.43 121.803 230.874 122.139L235.603 119.386C236.22 119.056 236.611 118.252 236.611 117.101V92.7523C236.588 91.6925 236.32 90.6524 235.829 89.7129L231.05 92.6532C231.509 93.565 231.759 94.5676 231.782 95.5881V119.937Z" fill="#3E87FF"/>
<path opacity="0.3" d="M235.829 89.7131C235.386 88.7709 234.687 87.9717 233.813 87.406L211.915 74.7416C211.663 74.567 211.371 74.4579 211.067 74.4242C210.762 74.3906 210.453 74.4334 210.169 74.5489C210.11 74.5766 210.052 74.6097 209.999 74.648L205.236 77.4397C205.527 77.2908 205.854 77.2248 206.18 77.2491C206.506 77.2734 206.82 77.387 207.086 77.5774L228.984 90.2417C229.888 90.8327 230.604 91.6694 231.049 92.6535L235.829 89.7131Z" fill="black"/>
<path opacity="0.6" d="M231.782 119.937C231.782 121.038 231.43 121.803 230.874 122.139L235.603 119.386C236.22 119.056 236.611 118.252 236.611 117.101V92.7523C236.588 91.6925 236.32 90.6524 235.829 89.7129L231.05 92.6532C231.509 93.565 231.759 94.5676 231.782 95.5881V119.937Z" fill="black"/>
<path d="M225.361 102.565C225.361 105.72 224.111 106.794 222.239 105.709C221.722 105.415 221.271 105.019 220.911 104.546C220.552 104.073 220.291 103.532 220.146 102.956C219.596 103.633 218.742 103.677 217.542 102.983C215.571 101.843 214.018 99.1289 214.018 96.4914C214.018 93.8539 215.554 92.9454 217.542 94.0907C218.551 94.6851 219.365 95.5592 219.888 96.607V95.5664L221.963 96.7667V102.471C221.933 102.771 221.984 103.074 222.114 103.347C222.243 103.62 222.444 103.852 222.696 104.018C223.395 104.426 223.825 103.738 223.825 101.695C223.825 98.1213 221.534 94.333 218.148 92.3782C214.761 90.4235 212.476 91.7836 212.476 95.4617C212.521 97.4135 213.058 99.3222 214.039 101.01C215.021 102.698 216.413 104.11 218.087 105.114C218.996 105.674 220.028 106.003 221.093 106.072L221.584 107.972C220.343 107.872 219.144 107.477 218.087 106.821C213.682 104.272 210.769 99.1399 210.769 94.4926C210.769 89.8454 213.71 88.1604 218.148 90.7264C222.437 93.1987 225.361 98.1488 225.361 102.565ZM219.921 99.9163C219.931 99.2181 219.761 98.529 219.426 97.9162C219.091 97.3035 218.603 96.7879 218.01 96.4198C216.909 95.7756 216.121 96.2271 216.121 97.7248C216.107 98.4242 216.274 99.1153 216.604 99.7317C216.935 100.348 217.419 100.869 218.01 101.243C219.111 101.866 219.921 101.464 219.921 99.9163Z" fill="#3E87FF"/>
<g opacity="0.9">
<path d="M225.362 102.565C225.362 105.72 224.112 106.794 222.24 105.709C221.723 105.415 221.271 105.019 220.912 104.546C220.552 104.073 220.292 103.532 220.147 102.956C219.597 103.633 218.743 103.677 217.543 102.983C215.571 101.843 214.019 99.1289 214.019 96.4914C214.019 93.8539 215.555 92.9454 217.543 94.0907C218.551 94.6851 219.366 95.5592 219.888 96.607V95.5664L221.964 96.7667V102.471C221.933 102.771 221.985 103.074 222.114 103.347C222.243 103.62 222.445 103.852 222.697 104.018C223.396 104.426 223.825 103.738 223.825 101.695C223.825 98.1213 221.535 94.333 218.148 92.3782C214.762 90.4235 212.477 91.7836 212.477 95.4617C212.521 97.4135 213.059 99.3222 214.04 101.01C215.021 102.698 216.414 104.11 218.088 105.114C218.997 105.674 220.029 106.003 221.094 106.072L221.584 107.972C220.344 107.872 219.145 107.477 218.088 106.821C213.683 104.272 210.77 99.1399 210.77 94.4926C210.77 89.8454 213.71 88.1604 218.148 90.7264C222.438 93.1987 225.362 98.1488 225.362 102.565ZM219.921 99.9163C219.932 99.2181 219.762 98.529 219.427 97.9162C219.092 97.3035 218.604 96.7879 218.011 96.4198C216.909 95.7756 216.122 96.2271 216.122 97.7248C216.108 98.4242 216.274 99.1153 216.605 99.7317C216.936 100.348 217.42 100.869 218.011 101.243C219.112 101.866 219.921 101.464 219.921 99.9163Z" fill="white"/>
</g>
<path d="M233.814 130.784L211.916 118.12C211.664 117.944 211.372 117.835 211.067 117.802C210.762 117.769 210.453 117.814 210.17 117.933C210.11 117.96 210.053 117.993 210 118.032L205.237 120.823H205.27C204.669 121.165 204.29 121.958 204.29 123.086V147.435C204.29 149.5 205.539 151.89 207.087 152.782L228.985 165.446C229.262 165.648 229.593 165.764 229.936 165.779C230.279 165.794 230.619 165.706 230.912 165.529L230.874 165.562L235.604 162.781C236.22 162.456 236.611 161.68 236.611 160.496V136.125C236.611 134.066 235.383 131.676 233.814 130.784Z" fill="#3E87FF"/>
<path d="M235.829 133.091C235.387 132.148 234.689 131.348 233.813 130.784L211.915 118.12C211.663 117.944 211.371 117.835 211.066 117.802C210.761 117.769 210.453 117.814 210.169 117.933C210.11 117.96 210.052 117.993 209.999 118.032L205.236 120.823C205.526 120.673 205.853 120.606 206.179 120.629C206.506 120.652 206.82 120.765 207.086 120.955L228.984 133.62C229.89 134.212 230.606 135.05 231.049 136.037L235.829 133.091Z" fill="#3E87FF"/>
<path d="M231.782 163.309C231.782 164.41 231.43 165.176 230.874 165.539L235.603 162.759C236.22 162.434 236.611 161.657 236.611 160.473V136.125C236.588 135.067 236.32 134.028 235.829 133.091L231.05 136.031C231.509 136.941 231.759 137.942 231.782 138.96V163.309Z" fill="#3E87FF"/>
<path opacity="0.3" d="M235.829 133.091C235.387 132.148 234.689 131.348 233.813 130.784L211.915 118.12C211.663 117.944 211.371 117.835 211.066 117.802C210.761 117.769 210.453 117.814 210.169 117.933C210.11 117.96 210.052 117.993 209.999 118.032L205.236 120.823C205.526 120.673 205.853 120.606 206.179 120.629C206.506 120.652 206.82 120.765 207.086 120.955L228.984 133.62C229.89 134.212 230.606 135.05 231.049 136.037L235.829 133.091Z" fill="black"/>
<path opacity="0.6" d="M231.782 163.309C231.782 164.41 231.43 165.176 230.874 165.539L235.603 162.759C236.22 162.434 236.611 161.657 236.611 160.473V136.125C236.588 135.067 236.32 134.028 235.829 133.091L231.05 136.031C231.509 136.941 231.759 137.942 231.782 138.96V163.309Z" fill="black"/>
<path d="M215.589 141.67L210.308 133.091V144.715L215.589 141.67Z" fill="#3E87FF"/>
<path d="M220.494 144.142L225.764 153.266V141.659L220.494 144.142Z" fill="#3E87FF"/>
<path d="M211.106 132.7L216.53 141.51C216.553 141.53 216.573 141.552 216.59 141.576C216.595 141.598 216.595 141.621 216.59 141.642L218.204 144.263L219.569 143.619C219.59 143.596 219.614 143.576 219.641 143.559C219.694 143.527 219.755 143.508 219.817 143.503L225.323 140.921L211.106 132.7Z" fill="#3E87FF"/>
<path d="M219.696 144.517L218.22 145.21C218.163 145.237 218.101 145.25 218.039 145.249C217.963 145.25 217.888 145.231 217.821 145.194C217.754 145.158 217.699 145.104 217.659 145.04L216.045 142.419L210.748 145.48L225.004 153.707L219.696 144.517Z" fill="#3E87FF"/>
<g opacity="0.9">
<path d="M215.588 141.67L210.307 133.091V144.715L215.588 141.67Z" fill="white"/>
<path d="M220.494 144.142L225.763 153.265V141.658L220.494 144.142Z" fill="white"/>
<path d="M211.105 132.7L216.529 141.51C216.552 141.529 216.572 141.551 216.589 141.576C216.594 141.598 216.594 141.62 216.589 141.642L218.203 144.263L219.568 143.619C219.589 143.596 219.613 143.575 219.64 143.558C219.694 143.527 219.754 143.508 219.816 143.503L225.322 140.921L211.105 132.7Z" fill="white"/>
<path d="M219.695 144.516L218.22 145.21C218.163 145.236 218.101 145.25 218.038 145.248C217.962 145.249 217.887 145.23 217.82 145.194C217.754 145.157 217.698 145.104 217.658 145.039L216.045 142.418L210.748 145.48L225.003 153.706L219.695 144.516Z" fill="white"/>
</g>
<path d="M233.814 44.0495L211.916 31.3851C211.664 31.2095 211.372 31.1003 211.067 31.0675C210.762 31.0348 210.453 31.0796 210.17 31.1979C210.11 31.2256 210.053 31.2587 210 31.297L205.237 34.0887H205.27C204.669 34.4246 204.29 35.223 204.29 36.3518V60.7004C204.29 62.7598 205.539 65.155 207.087 66.047L228.985 78.7114C229.262 78.9137 229.593 79.0295 229.936 79.0442C230.279 79.0589 230.619 78.9718 230.912 78.794L230.874 78.8215L235.604 76.0684C236.22 75.7435 236.611 74.9671 236.611 73.7833V49.3741C236.611 47.3147 235.383 44.9195 233.814 44.0495Z" fill="#3E87FF"/>
<path d="M235.829 46.3401C235.387 45.3954 234.689 44.594 233.813 44.0275L211.915 31.3851C211.663 31.2095 211.371 31.1003 211.066 31.0675C210.761 31.0348 210.453 31.0796 210.169 31.1979C210.11 31.2256 210.052 31.2587 209.999 31.297L205.236 34.0887C205.526 33.9384 205.853 33.8712 206.179 33.8945C206.506 33.9178 206.82 34.0307 207.086 34.2209L228.984 46.8852C229.89 47.477 230.606 48.3159 231.049 49.3025L235.829 46.3401Z" fill="#3E87FF"/>
<path d="M231.782 76.5361C231.782 77.6374 231.43 78.4028 230.874 78.7386L235.603 75.9855C236.22 75.6607 236.611 74.8843 236.611 73.7004V49.3738C236.588 48.3157 236.32 47.2774 235.829 46.3398L231.05 49.2802C231.509 50.1901 231.759 51.1908 231.782 52.2095V76.5361Z" fill="#3E87FF"/>
<path opacity="0.3" d="M235.829 46.3401C235.387 45.3954 234.689 44.594 233.813 44.0275L211.915 31.3851C211.663 31.2095 211.371 31.1003 211.066 31.0675C210.761 31.0348 210.453 31.0796 210.169 31.1979C210.11 31.2256 210.052 31.2587 209.999 31.297L205.236 34.0887C205.526 33.9384 205.853 33.8712 206.179 33.8945C206.506 33.9178 206.82 34.0307 207.086 34.2209L228.984 46.8852C229.89 47.477 230.606 48.3159 231.049 49.3025L235.829 46.3401Z" fill="black"/>
<path opacity="0.6" d="M231.782 76.5361C231.782 77.6374 231.43 78.4028 230.874 78.7386L235.603 75.9855C236.22 75.6607 236.611 74.8843 236.611 73.7004V49.3738C236.588 48.3157 236.32 47.2774 235.829 46.3398L231.05 49.2802C231.509 50.1901 231.759 51.1908 231.782 52.2095V76.5361Z" fill="black"/>
<path d="M224.619 66.0747C223.776 64.6871 222.928 63.3216 222.086 61.923C221.952 61.6581 221.765 61.4236 221.537 61.2341C221.309 61.0446 221.044 60.9042 220.759 60.8217C220.351 60.7391 219.944 60.6455 219.525 60.5244C219.376 60.4622 219.251 60.3542 219.167 60.216C217.789 57.8567 216.693 55.3432 215.902 52.7275C215.885 52.6716 215.881 52.6128 215.888 52.5549C215.896 52.497 215.916 52.4413 215.946 52.3917C216.205 52.1329 216.497 51.8961 216.761 51.6648C217.025 51.4336 217.163 50.8995 216.97 50.2057C216.563 48.7355 216.172 47.2653 215.765 45.8007C215.686 45.3845 215.499 44.9964 215.222 44.6755C214.946 44.3546 214.59 44.1122 214.19 43.9726C213.302 43.7257 212.359 43.7604 211.492 44.0717C211.156 44.1983 210.98 44.5012 210.974 45.0243C211.117 46.0319 211.211 47.0286 211.404 48.0527C212.762 55.4384 216.029 62.2295 221.205 68.4259C221.34 68.6313 221.521 68.8022 221.735 68.9246C221.948 69.047 222.187 69.1176 222.433 69.1307C223.29 69.1103 224.113 68.7931 224.762 68.2332C225.252 67.7927 225.202 67.0108 224.619 66.0747Z" fill="#3E87FF"/>
<path d="M224.553 58.5697C224.437 56.9859 224.001 55.4421 223.27 54.0325C222.724 52.9313 222.029 51.9105 221.205 50.9986C220.99 50.7563 220.808 50.6792 220.698 50.8609C220.588 51.0426 220.698 51.3014 220.907 51.5382L221.122 51.786C222.644 53.5428 223.603 55.7162 223.875 58.0246C223.873 58.1929 223.889 58.361 223.925 58.5256C223.994 58.715 224.105 58.8863 224.25 59.0267C224.365 59.1093 224.498 59.0267 224.591 59.0267C224.558 58.8009 224.564 58.6853 224.553 58.5697Z" fill="#3E87FF"/>
<path d="M219.562 54.049C220.254 54.8095 220.674 55.7776 220.757 56.8021C220.793 56.9579 220.851 57.108 220.928 57.2481C221.264 57.5235 221.429 57.4298 221.429 57.083C221.311 55.7694 220.768 54.5301 219.882 53.5534C219.672 53.3387 219.502 53.2726 219.403 53.4543C219.367 53.5581 219.363 53.6701 219.392 53.7761C219.42 53.882 219.48 53.9771 219.562 54.049Z" fill="#3E87FF"/>
<g opacity="0.9">
<path d="M224.619 66.0745C223.777 64.6869 222.929 63.3213 222.087 61.9227C221.953 61.6578 221.766 61.4233 221.538 61.2338C221.309 61.0444 221.045 60.904 220.76 60.8215C220.352 60.7389 219.945 60.6453 219.526 60.5242C219.377 60.462 219.252 60.354 219.168 60.2158C217.79 57.8564 216.694 55.343 215.903 52.7273C215.886 52.6714 215.881 52.6125 215.889 52.5546C215.897 52.4967 215.916 52.4411 215.947 52.3914C216.206 52.1326 216.498 51.8959 216.762 51.6646C217.026 51.4333 217.164 50.8992 216.971 50.2054C216.564 48.7353 216.173 47.2651 215.765 45.8004C215.687 45.3843 215.499 44.9962 215.223 44.6753C214.947 44.3544 214.591 44.1119 214.191 43.9723C213.303 43.7255 212.36 43.7601 211.493 44.0715C211.157 44.1981 210.98 44.5009 210.975 45.024C211.118 46.0317 211.212 47.0283 211.404 48.0525C212.763 55.4382 216.03 62.2293 221.206 68.4256C221.341 68.6311 221.522 68.8019 221.736 68.9244C221.949 69.0468 222.188 69.1174 222.433 69.1304C223.29 69.1101 224.114 68.7928 224.763 68.2329C225.253 67.7924 225.203 67.0105 224.619 66.0745Z" fill="white"/>
<path d="M224.553 58.5697C224.437 56.9859 224.001 55.4421 223.27 54.0325C222.724 52.9313 222.029 51.9105 221.205 50.9986C220.99 50.7563 220.808 50.6792 220.698 50.8609C220.588 51.0426 220.698 51.3014 220.907 51.5382L221.122 51.786C222.644 53.5428 223.603 55.7162 223.875 58.0246C223.873 58.1929 223.889 58.361 223.925 58.5256C223.994 58.715 224.105 58.8863 224.25 59.0267C224.365 59.1093 224.498 59.0267 224.591 59.0267C224.558 58.8009 224.564 58.6853 224.553 58.5697Z" fill="white"/>
<path d="M219.566 54.049C220.257 54.8095 220.677 55.7776 220.761 56.8021C220.797 56.9579 220.854 57.108 220.931 57.2481C221.267 57.5235 221.433 57.4298 221.433 57.083C221.315 55.7694 220.772 54.5301 219.885 53.5534C219.676 53.3387 219.505 53.2726 219.406 53.4543C219.371 53.5581 219.367 53.6701 219.395 53.7761C219.424 53.882 219.483 53.9771 219.566 54.049Z" fill="white"/>
</g>
<path opacity="0.4" d="M94.7304 29.4476L89.571 32.3824V30.5544C89.571 30.4277 89.571 30.2956 89.571 30.1689C89.571 30.0423 89.571 29.9211 89.571 29.8V29.7339C89.3838 27.3167 87.5502 26.3861 85.3147 27.6801C84.3026 28.3026 83.4352 29.1343 82.7708 30.1194C82.2697 26.8156 79.5882 25.6483 76.345 27.5149C72.7439 29.5963 69.8256 34.673 69.8256 38.8137V42.7232C69.8308 43.0359 69.7536 43.3445 69.6019 43.618C69.4501 43.8915 69.2292 44.1203 68.9611 44.2814L65.9217 46.06C65.2657 46.4489 64.7219 47.0014 64.3436 47.6636C63.9652 48.3257 63.7653 49.0747 63.7632 49.8373C63.7631 50.1536 63.8464 50.4645 64.0046 50.7384C64.1629 51.0124 64.3905 51.2398 64.6646 51.3978C64.9387 51.5558 65.2496 51.6387 65.566 51.6384C65.8824 51.638 66.1931 51.5542 66.4668 51.3955L94.6533 35.1025C95.401 34.6683 96.0221 34.0459 96.4549 33.2973C96.8876 32.5487 97.117 31.6999 97.1201 30.8352C97.1204 30.5553 97.0471 30.2802 96.9075 30.0376C96.768 29.795 96.5672 29.5933 96.3251 29.4527C96.0831 29.3122 95.8083 29.2377 95.5284 29.2368C95.2486 29.2359 94.9733 29.3086 94.7304 29.4476Z" fill="#E6E6E6"/>
<path opacity="0.4" d="M55.3983 28.6821L51.6486 30.835V29.4915C51.6486 29.3979 51.6486 29.3043 51.6486 29.2107C51.6486 29.1171 51.6486 29.029 51.6486 28.9409V28.9078C51.5109 27.1513 50.1784 26.4741 48.5541 27.4156C47.8185 27.8663 47.1878 28.469 46.704 29.1832C46.335 26.7934 44.3858 25.929 42.0292 27.289C39.4082 28.8032 37.2883 32.4814 37.2883 35.5043V38.3511C37.2863 38.5742 37.2264 38.7931 37.1144 38.9861C37.0025 39.1791 36.8423 39.3398 36.6496 39.4523L34.4471 40.7463C33.9678 41.0281 33.5707 41.4306 33.2954 41.9137C33.0201 42.3967 32.8761 42.9434 32.8778 43.4994C32.8781 43.7271 32.9378 43.9508 33.0509 44.1485C33.1641 44.3461 33.3268 44.5108 33.523 44.6264C33.7192 44.742 33.9421 44.8045 34.1698 44.8077C34.3975 44.8109 34.6221 44.7548 34.8215 44.6447L55.3433 32.7953C55.8871 32.4807 56.3386 32.0287 56.6527 31.4846C56.9668 30.9405 57.1323 30.3235 57.1328 29.6952C57.1332 29.4919 57.0802 29.292 56.9792 29.1156C56.8781 28.9392 56.7326 28.7923 56.557 28.6898C56.3814 28.5872 56.182 28.5325 55.9787 28.5312C55.7754 28.5298 55.5753 28.5819 55.3983 28.6821Z" fill="#E6E6E6"/>
<path d="M173.548 86.144C173.372 86.144 173.204 86.096 173.044 86C172.884 85.912 172.756 85.788 172.66 85.628C172.572 85.468 172.528 85.3 172.528 85.124C172.528 84.828 172.628 84.584 172.828 84.392C173.028 84.2 173.268 84.104 173.548 84.104C173.828 84.104 174.068 84.2 174.268 84.392C174.468 84.584 174.568 84.828 174.568 85.124C174.568 85.3 174.52 85.468 174.424 85.628C174.336 85.788 174.216 85.912 174.064 86C173.912 86.096 173.74 86.144 173.548 86.144ZM177.262 86.144C177.086 86.144 176.918 86.096 176.758 86C176.598 85.912 176.47 85.788 176.374 85.628C176.286 85.468 176.242 85.3 176.242 85.124C176.242 84.828 176.342 84.584 176.542 84.392C176.742 84.2 176.982 84.104 177.262 84.104C177.542 84.104 177.782 84.2 177.982 84.392C178.182 84.584 178.282 84.828 178.282 85.124C178.282 85.3 178.234 85.468 178.138 85.628C178.05 85.788 177.93 85.912 177.778 86C177.626 86.096 177.454 86.144 177.262 86.144ZM180.977 86.144C180.801 86.144 180.633 86.096 180.473 86C180.313 85.912 180.185 85.788 180.089 85.628C180.001 85.468 179.957 85.3 179.957 85.124C179.957 84.828 180.057 84.584 180.257 84.392C180.457 84.2 180.697 84.104 180.977 84.104C181.257 84.104 181.497 84.2 181.697 84.392C181.897 84.584 181.997 84.828 181.997 85.124C181.997 85.3 181.949 85.468 181.853 85.628C181.765 85.788 181.645 85.912 181.493 86C181.341 86.096 181.169 86.144 180.977 86.144Z" fill="white"/>
</g>
<defs>
<clipPath id="clip0_433_5466">
<rect width="275.313" height="248" fill="white" transform="matrix(-1 0 0 1 276 0)"/>
</clipPath>
</defs>
</svg>
