<svg width="40" height="40" viewBox="0 0 40 40" fill="none" xmlns="http://www.w3.org/2000/svg">
<circle cx="20" cy="20" r="20" transform="rotate(-180 20 20)" fill="#0057E4"/>
<g clip-path="url(#clip0_598_2204)">
<path d="M20.7117 28.3845L13.1821 20.8549C13.047 20.7198 12.9505 20.575 12.8925 20.4205C12.8346 20.2661 12.8057 20.102 12.8057 19.9282C12.8057 19.7545 12.8346 19.5904 12.8925 19.4359C12.9505 19.2815 13.047 19.1367 13.1821 19.0015L20.7117 11.472C20.9627 11.2403 21.267 11.1194 21.6245 11.1094C21.9813 11.1001 22.2948 11.221 22.5651 11.472C22.8354 11.7229 22.9756 12.0318 22.9856 12.3987C22.9949 12.7655 22.8644 13.0744 22.5941 13.3254L17.3234 18.5961L29.6893 18.5961C30.0561 18.5961 30.37 18.7266 30.631 18.9876C30.8913 19.2479 31.0214 19.5614 31.0214 19.9282C31.0214 20.2951 30.8913 20.6086 30.631 20.8688C30.37 21.1299 30.0561 21.2604 29.6893 21.2604L17.3234 21.2604L22.5941 26.5311C22.8451 26.7628 22.9756 27.067 22.9856 27.4439C22.9949 27.82 22.8644 28.1335 22.5941 28.3845C22.3431 28.6355 22.0342 28.761 21.6674 28.761C21.3005 28.761 20.982 28.6355 20.7117 28.3845Z" fill="white"/>
</g>
<defs>
<clipPath id="clip0_598_2204">
<rect width="24" height="24" fill="white" transform="matrix(-1 0 0 -1 31 32)"/>
</clipPath>
</defs>
</svg>
