<svg width="25" height="24" viewBox="0 0 25 24" fill="none" xmlns="http://www.w3.org/2000/svg">
<g opacity="0.3">
<path d="M3.51416 13H5.51416V11H3.51416V13ZM3.51416 17H5.51416V15H3.51416V17ZM3.51416 9H5.51416V7H3.51416V9ZM7.51416 13H21.5142V11H7.51416V13ZM7.51416 17H21.5142V15H7.51416V17ZM7.51416 7V9H21.5142V7H7.51416ZM3.51416 13H5.51416V11H3.51416V13ZM3.51416 17H5.51416V15H3.51416V17ZM3.51416 9H5.51416V7H3.51416V9ZM7.51416 13H21.5142V11H7.51416V13ZM7.51416 17H21.5142V15H7.51416V17ZM7.51416 7V9H21.5142V7H7.51416Z" fill="black"/>
</g>
</svg>
