<svg width="16" height="4" viewBox="0 0 16 4" fill="none" xmlns="http://www.w3.org/2000/svg">
<path d="M12.1667 1.99998C12.1667 2.32962 12.2644 2.65185 12.4475 2.92593C12.6307 3.20001 12.891 3.41363 13.1955 3.53978C13.5001 3.66593 13.8352 3.69893 14.1585 3.63462C14.4818 3.57031 14.7788 3.41158 15.0118 3.17849C15.2449 2.9454 15.4037 2.64843 15.468 2.32513C15.5323 2.00183 15.4993 1.66672 15.3731 1.36218C15.247 1.05763 15.0334 0.797334 14.7593 0.614198C14.4852 0.431062 14.163 0.333314 13.8333 0.333314C13.3913 0.333314 12.9674 0.508909 12.6548 0.82147C12.3423 1.13403 12.1667 1.55795 12.1667 1.99998ZM3.83333 1.99998C3.83333 1.67034 3.73558 1.34811 3.55245 1.07403C3.36931 0.799948 3.10902 0.586327 2.80447 0.460181C2.49993 0.334035 2.16482 0.301029 1.84152 0.365338C1.51822 0.429646 1.22124 0.588381 0.988156 0.821469C0.755069 1.05456 0.596333 1.35153 0.532024 1.67483C0.467716 1.99813 0.500722 2.33324 0.626867 2.63779C0.753013 2.94233 0.966634 3.20263 1.24072 3.38576C1.5148 3.5689 1.83703 3.66665 2.16667 3.66665C2.60869 3.66665 3.03262 3.49105 3.34518 3.17849C3.65774 2.86593 3.83333 2.44201 3.83333 1.99998ZM9.66667 1.99998C9.66667 1.67035 9.56892 1.34811 9.38578 1.07403C9.20265 0.799948 8.94235 0.586327 8.6378 0.460181C8.33326 0.334035 7.99815 0.301029 7.67485 0.365338C7.35155 0.429647 7.05458 0.588382 6.82149 0.821469C6.5884 1.05456 6.42967 1.35153 6.36536 1.67483C6.30105 1.99813 6.33405 2.33324 6.4602 2.63779C6.58635 2.94233 6.79997 3.20263 7.07405 3.38576C7.34813 3.5689 7.67036 3.66665 8 3.66665C8.44203 3.66665 8.86595 3.49105 9.17851 3.17849C9.49107 2.86593 9.66667 2.44201 9.66667 1.99998Z" fill="#0057E4"/>
</svg>
