<svg width="371" height="371" viewBox="0 0 371 371" fill="none" xmlns="http://www.w3.org/2000/svg">
<path d="M182.989 369.953C280.738 369.953 359.979 323.401 359.979 265.976C359.979 208.552 280.738 162 182.989 162C85.2408 162 6 208.552 6 265.976C6 323.401 85.2408 369.953 182.989 369.953Z" fill="url(#paint0_linear_598_872)"/>
<path opacity="0.5" d="M300.466 314.727C323.845 314.727 342.797 303.784 342.797 290.285C342.797 276.787 323.845 265.844 300.466 265.844C277.087 265.844 258.135 276.787 258.135 290.285C258.135 303.784 277.087 314.727 300.466 314.727Z" fill="white"/>
<path d="M115.804 274.072L123.469 269.62C123.469 269.62 128.025 250.677 126.207 233.633C123.655 209.667 107.88 200.651 101.884 202.721C95.8889 204.792 94.1452 211.759 104.11 226.035C109.868 234.479 117.095 252.013 115.804 274.072Z" fill="#4B589B"/>
<g opacity="0.3">
<path d="M115.804 274.072L123.469 269.62C123.469 269.62 128.025 250.677 126.207 233.633C123.655 209.667 107.88 200.651 101.884 202.721C95.8889 204.792 94.1452 211.759 104.11 226.035C109.868 234.479 117.095 252.013 115.804 274.072Z" fill="white"/>
</g>
<path d="M118.95 264.767H118.876C118.737 264.74 118.615 264.659 118.536 264.543C118.457 264.426 118.427 264.283 118.453 264.144C122.653 242.047 114.936 217.205 105.372 206.869C105.274 206.77 105.219 206.637 105.219 206.498C105.219 206.359 105.274 206.226 105.372 206.127C105.471 206.031 105.604 205.977 105.743 205.977C105.881 205.977 106.014 206.031 106.114 206.127C115.849 216.656 123.721 241.891 119.47 264.322C119.45 264.446 119.387 264.559 119.292 264.64C119.197 264.722 119.076 264.767 118.95 264.767Z" fill="white"/>
<path d="M96.5119 285.202C95.3693 285.788 92.3271 283.184 91.4812 282.546C90.0263 281.447 88.881 279.99 88.157 278.316C87.3417 276.42 87.1368 274.317 87.5708 272.299C87.8038 271.235 88.1113 270.189 88.4909 269.168C88.8322 268.151 89.181 267.142 89.5297 266.125C89.9389 265.148 90.1459 264.098 90.1382 263.039C89.9749 260.917 88.1793 259.329 86.5395 257.986C84.729 256.502 82.8666 254.521 83.0075 251.983C83.1114 250.024 84.217 248.273 85.5081 246.789C86.7992 245.305 88.3054 244.029 89.4852 242.463C90.4112 241.379 90.9353 240.008 90.9692 238.582C90.8927 237.705 90.6404 236.852 90.2272 236.074C89.4184 234.375 88.3128 232.802 87.7786 230.999C87.2444 229.196 87.4521 226.985 88.899 225.805C90.0936 224.826 91.7928 224.759 93.351 224.944C94.7851 225.19 96.1478 225.747 97.343 226.577C101.261 229.018 103.323 233.908 107.508 235.852C109.126 236.594 110.922 236.831 112.621 237.373C114.32 237.915 116.027 238.857 116.746 240.512C118.156 243.724 115.047 247.442 116.004 250.825C116.835 253.793 119.64 255.092 121.109 257.83C121.708 259.035 121.903 260.401 121.666 261.725C121.412 263.971 120.751 266.151 119.714 268.158C118.544 270.214 117.251 272.196 115.841 274.094C115.841 274.094 96.6752 285.113 96.5119 285.202Z" fill="#4B589B"/>
<g opacity="0.65">
<path d="M96.5119 285.202C95.3693 285.788 92.3271 283.184 91.4812 282.546C90.0263 281.447 88.881 279.99 88.157 278.316C87.3417 276.42 87.1368 274.317 87.5708 272.299C87.8038 271.235 88.1113 270.189 88.4909 269.168C88.8322 268.151 89.181 267.142 89.5297 266.125C89.9389 265.148 90.1459 264.098 90.1382 263.039C89.9749 260.917 88.1793 259.329 86.5395 257.986C84.729 256.502 82.8666 254.521 83.0075 251.983C83.1114 250.024 84.217 248.273 85.5081 246.789C86.7992 245.305 88.3054 244.029 89.4852 242.463C90.4112 241.379 90.9353 240.008 90.9692 238.582C90.8927 237.705 90.6404 236.852 90.2272 236.074C89.4184 234.375 88.3128 232.802 87.7786 230.999C87.2444 229.196 87.4521 226.985 88.899 225.805C90.0936 224.826 91.7928 224.759 93.351 224.944C94.7851 225.19 96.1478 225.747 97.343 226.577C101.261 229.018 103.323 233.908 107.508 235.852C109.126 236.594 110.922 236.831 112.621 237.373C114.32 237.915 116.027 238.857 116.746 240.512C118.156 243.724 115.047 247.442 116.004 250.825C116.835 253.793 119.64 255.092 121.109 257.83C121.708 259.035 121.903 260.401 121.666 261.725C121.412 263.971 120.751 266.151 119.714 268.158C118.544 270.214 117.251 272.196 115.841 274.094C115.841 274.094 96.6752 285.113 96.5119 285.202Z" fill="white"/>
</g>
<path d="M107.59 279.466C107.524 279.461 107.459 279.442 107.4 279.411C107.341 279.381 107.288 279.339 107.246 279.288C107.203 279.237 107.171 279.178 107.151 279.114C107.131 279.05 107.124 278.984 107.13 278.917C108.963 259.039 100.682 236.571 94.1821 229.834C94.1363 229.785 94.1006 229.728 94.0769 229.665C94.0532 229.603 94.0421 229.536 94.0442 229.47C94.0463 229.403 94.0615 229.337 94.089 229.276C94.1164 229.215 94.1557 229.16 94.2044 229.114C94.2531 229.068 94.3104 229.033 94.3729 229.009C94.4354 228.985 94.502 228.974 94.5689 228.976C94.6357 228.978 94.7015 228.994 94.7624 229.021C94.8234 229.049 94.8783 229.088 94.9241 229.137C101.558 236.007 110.009 258.817 108.154 279.006C108.147 279.074 108.128 279.139 108.096 279.199C108.064 279.258 108.02 279.311 107.968 279.354C107.916 279.397 107.855 279.429 107.79 279.448C107.725 279.467 107.657 279.474 107.59 279.466Z" fill="white"/>
<path d="M105.616 254.914C105.567 254.921 105.517 254.921 105.468 254.914C99.1684 252.613 91.2067 251.864 91.1251 251.857C90.9932 251.842 90.8723 251.776 90.7878 251.673C90.7034 251.571 90.662 251.44 90.6725 251.307C90.676 251.241 90.6933 251.175 90.7234 251.115C90.7535 251.056 90.7957 251.003 90.8474 250.96C90.899 250.918 90.959 250.886 91.0234 250.868C91.0878 250.85 91.1553 250.845 91.2216 250.855C91.2958 250.855 99.3836 251.597 105.809 253.971C105.934 254.018 106.036 254.112 106.092 254.232C106.149 254.353 106.157 254.491 106.114 254.617C106.069 254.71 105.999 254.788 105.91 254.841C105.822 254.894 105.719 254.919 105.616 254.914Z" fill="white"/>
<path d="M62.6824 153.348C62.7341 152.849 62.9182 152.372 63.2156 151.968C63.513 151.563 63.9129 151.246 64.3742 151.048C65.627 150.435 67.0062 150.125 68.4007 150.143C69.7952 150.161 71.166 150.507 72.4026 151.152C72.8574 151.362 73.2482 151.689 73.535 152.099C73.8218 152.51 73.9944 152.99 74.035 153.489L75.5561 212.567C75.6155 213.799 74.8141 215.038 73.1965 215.95C71.4469 216.81 69.5194 217.245 67.5702 217.221C65.621 217.196 63.705 216.713 61.9775 215.809C60.3673 214.852 59.6179 213.583 59.7515 212.367L62.6824 153.348Z" fill="#4B589B"/>
<path opacity="0.15" d="M62.6824 153.348C62.7341 152.849 62.9182 152.372 63.2156 151.968C63.513 151.563 63.9129 151.246 64.3742 151.048C65.627 150.435 67.0062 150.125 68.4007 150.143C69.7952 150.161 71.166 150.507 72.4026 151.152C72.8574 151.362 73.2482 151.689 73.535 152.099C73.8218 152.51 73.9944 152.99 74.035 153.489L75.5561 212.567C75.6155 213.799 74.8141 215.038 73.1965 215.95C71.4469 216.81 69.5194 217.245 67.5702 217.221C65.621 217.196 63.705 216.713 61.9775 215.809C60.3673 214.852 59.6179 213.583 59.7515 212.367L62.6824 153.348Z" fill="black"/>
<path d="M72.4025 151.152C74.6285 152.457 74.5766 154.535 72.3432 155.789C71.0903 156.402 69.7111 156.711 68.3166 156.693C66.9221 156.675 65.5513 156.33 64.3147 155.685C62.0887 154.379 62.1407 152.302 64.3741 151.048C65.627 150.435 67.0062 150.125 68.4007 150.143C69.7952 150.161 71.166 150.507 72.4025 151.152Z" fill="#4B589B"/>
<g opacity="0.25">
<path d="M72.4025 151.152C74.6285 152.457 74.5766 154.535 72.3432 155.789C71.0903 156.402 69.7111 156.711 68.3166 156.693C66.9221 156.675 65.5513 156.33 64.3147 155.685C62.0887 154.379 62.1407 152.302 64.3741 151.048C65.627 150.435 67.0062 150.125 68.4007 150.143C69.7952 150.161 71.166 150.507 72.4025 151.152Z" fill="black"/>
</g>
<path d="M66.1694 130.731C66.9277 130.36 67.763 130.172 68.6074 130.184C69.4519 130.195 70.2817 130.406 71.0295 130.798C71.3032 130.926 71.5385 131.123 71.7118 131.371C71.885 131.618 71.99 131.907 72.0164 132.208L71.7864 153.459C71.755 153.76 71.6435 154.048 71.4635 154.292C71.2834 154.536 71.0414 154.727 70.7624 154.846C70.0061 155.22 69.1723 155.409 68.3289 155.399C67.4856 155.388 66.6566 155.179 65.9097 154.787C65.6341 154.662 65.3972 154.465 65.2236 154.217C65.0501 153.969 64.9462 153.679 64.9229 153.377L65.1455 132.126C65.177 131.824 65.2885 131.535 65.4685 131.29C65.6484 131.045 65.8903 130.852 66.1694 130.731Z" fill="#4B589B"/>
<path d="M71.0297 130.798C70.8517 130.694 70.6656 130.605 70.4732 130.531L70.3694 130.494C70.1987 130.435 70.0206 130.383 69.8426 130.338H69.798C68.5789 130.044 67.2953 130.186 66.1696 130.739C65.8957 130.862 65.659 131.055 65.4832 131.299C65.3074 131.542 65.1987 131.828 65.1679 132.126L65.0938 135.955C66.2395 136.187 67.4048 136.309 68.5737 136.319L68.685 155.388C69.4172 155.371 70.1357 155.186 70.7849 154.847C71.0638 154.728 71.3059 154.536 71.486 154.292C71.666 154.048 71.7775 153.761 71.8088 153.459L71.9647 135.963L72.0389 132.208C72.0104 131.905 71.902 131.615 71.7247 131.367C71.5475 131.119 71.3076 130.923 71.0297 130.798Z" fill="#455A64"/>
<path d="M69.9688 156.568L70.7108 216.878C71.565 216.68 72.3886 216.368 73.1593 215.95C74.7992 215.03 75.5857 213.798 75.5115 212.567L74.0275 153.496C73.9738 153.994 73.7888 154.468 73.4916 154.871C73.1944 155.274 72.7955 155.591 72.3357 155.789C71.5963 156.18 70.796 156.444 69.9688 156.568Z" fill="#4B589B"/>
<path d="M51.5375 140.979C57.2064 144.251 65.0345 143.776 73.6862 138.753C90.9896 128.765 105.013 104.472 105.013 84.4901C105.013 74.5547 101.526 67.5131 95.8423 64.2409L89.4759 60.5309C83.8071 57.2587 75.979 57.7336 67.3272 62.7569C50.0238 72.7442 36 97.0373 36 117.019C36 127.007 39.5097 134.026 45.1785 137.298L51.5375 141.008V140.979ZM100.732 84.5198C100.732 93.4238 97.675 103.649 92.1323 113.257C86.5896 122.866 79.266 130.613 71.5492 135.072C64.5596 139.109 58.1932 139.888 53.6819 137.298C49.1705 134.709 46.618 128.765 46.618 120.7C46.618 111.796 49.6676 101.571 55.2178 91.962C60.768 82.3531 68.136 74.6066 75.8306 70.1472C82.8202 66.1107 89.1866 65.3316 93.6979 67.9212C98.2093 70.5108 100.732 76.4542 100.732 84.5198Z" fill="#4B589B"/>
<path opacity="0.3" d="M73.6935 66.4369C56.39 76.4243 42.3662 100.717 42.3662 120.692C42.3662 140.667 56.39 148.754 73.686 138.782C90.9821 128.809 105.013 104.502 105.013 84.5195C105.013 64.5374 90.9895 56.4422 73.6935 66.4369ZM93.7275 67.9209C98.2611 70.5402 100.762 76.4243 100.762 84.4898C100.762 93.3938 97.7046 103.619 92.1618 113.227C86.6191 122.836 79.2659 130.613 71.5491 135.072C64.5594 139.101 58.1931 139.88 53.6817 137.261C49.1704 134.642 46.6179 128.758 46.6179 120.692C46.6179 111.788 49.6749 101.571 55.2177 91.9617C60.7604 82.3528 68.1359 74.6064 75.8304 70.1469C82.8201 66.1105 89.1641 65.3314 93.6978 67.9506L93.7275 67.9209Z" fill="white"/>
<path d="M93.6984 67.9505C91.8396 66.9201 89.7384 66.4076 87.614 66.4665C89.3651 69.5087 90.2926 73.6119 90.2852 78.5314C90.2852 87.4354 87.2355 97.6601 81.6854 107.269C76.1352 116.878 68.8339 124.617 61.1023 129.076C56.8506 131.54 52.8364 132.786 49.3193 132.786C50.3471 134.651 51.853 136.208 53.6823 137.298C58.2159 139.917 64.56 139.138 71.5497 135.072C79.2739 130.62 86.5826 122.858 92.1327 113.257C97.6829 103.656 100.733 93.4382 100.733 84.5267C100.733 76.4538 98.2394 70.5623 93.6984 67.9505Z" fill="#4B589B"/>
<path opacity="0.1" d="M93.6984 67.9505C91.8396 66.9201 89.7384 66.4076 87.614 66.4665C89.3651 69.5087 90.2926 73.6119 90.2852 78.5314C90.2852 87.4354 87.2355 97.6601 81.6854 107.269C76.1352 116.878 68.8339 124.617 61.1023 129.076C56.8506 131.54 52.8364 132.786 49.3193 132.786C50.3471 134.651 51.853 136.208 53.6823 137.298C58.2159 139.917 64.56 139.138 71.5497 135.072C79.2739 130.62 86.5826 122.858 92.1327 113.257C97.6829 103.656 100.733 93.4382 100.733 84.5267C100.733 76.4538 98.2394 70.5623 93.6984 67.9505Z" fill="black"/>
<path opacity="0.4" d="M96.0057 81.7887C96.0057 90.6927 92.9486 100.917 87.4059 110.526C81.8632 120.135 74.547 127.882 66.8228 132.341C61.0575 135.665 55.6928 136.793 51.4931 135.591C48.3544 132.512 46.6182 127.348 46.6182 120.692C46.6182 111.788 49.6752 101.57 55.2179 91.9615C60.7607 82.3526 68.1362 74.6062 75.8307 70.1467C81.596 66.8152 86.9236 65.6947 91.1604 66.8968C94.2991 69.9687 96.0057 75.133 96.0057 81.7887Z" fill="white"/>
<path opacity="0.1" d="M57.3769 81.1361L51.0254 77.4261C55.7668 71.3268 61.3466 66.1699 67.3494 62.7196C76.0011 57.726 83.8366 57.2511 89.5055 60.4936L95.8645 64.2036C97.0175 64.8735 98.0777 65.6917 99.018 66.6374C93.3194 60.924 84.1038 60.3972 73.7083 66.3925C67.7056 69.8873 62.1257 75.0442 57.3769 81.1361Z" fill="black"/>
<path d="M238.215 240.166V34.8916C238.215 29.6086 235.589 28.1543 233.259 26.8113C230.929 25.4682 227.1 24.652 223.783 26.559L139.025 75.531C135.708 77.4379 133.029 82.0903 133.029 85.919V291.156C133.029 294.978 135.426 297.233 137.756 298.576C140.086 299.919 144.144 301.396 147.454 299.489L232.22 250.517C234.089 249.527 235.643 248.032 236.703 246.202C237.763 244.371 238.287 242.28 238.215 240.166Z" fill="#4B589B"/>
<path d="M232.799 242.11L145.659 292.432V86.2752L134.751 79.9756C133.669 81.7716 133.066 83.8156 133 85.9116V291.156C133 294.977 135.397 297.233 137.727 298.576C140.056 299.919 144.115 301.396 147.424 299.489L232.191 250.517C234.544 249.253 236.382 247.205 237.385 244.729L237.043 244.529L232.799 242.11Z" fill="#263238"/>
<path d="M232.057 33.1184L147.054 82.2017C145.831 83.0005 144.814 84.0755 144.083 85.3398C143.352 86.6042 142.929 88.0226 142.847 89.4807V293.086C142.847 297.189 145.763 298.873 149.317 296.796L232.057 249.04C233.443 248.135 234.597 246.916 235.425 245.483C236.254 244.05 236.735 242.442 236.828 240.789V35.8712C236.836 32.8365 234.684 31.6047 232.057 33.1184Z" fill="#455A64"/>
<path d="M232.688 45.5987V235.929C232.6 237.501 232.144 239.031 231.357 240.395C230.569 241.758 229.472 242.918 228.154 243.779L151.52 288.025C149.02 289.509 146.994 288.307 146.994 285.413V93.6877C147.137 91.0889 148.274 88.6446 150.17 86.8613L150.6 86.4755C150.892 86.2443 151.2 86.0336 151.52 85.8447L173.075 73.394L174.485 72.5852C175.227 72.1326 175.888 72.4962 175.888 73.394C175.888 74.2918 176.563 74.6331 177.372 74.136L202.496 59.6299C202.92 59.3606 203.276 58.9954 203.534 58.5637C203.791 58.1319 203.944 57.6457 203.98 57.1442C204.018 56.6908 204.153 56.2509 204.376 55.8541C204.599 55.4573 204.904 55.1128 205.271 54.844L205.419 54.755L226.499 42.5862L226.952 42.319C230.106 40.4715 232.688 41.9629 232.688 45.5987Z" fill="black"/>
<path d="M221.58 238.697C222.9 237.836 223.998 236.677 224.787 235.314C225.576 233.95 226.033 232.42 226.121 230.847V42.7866L205.419 54.7254L205.271 54.8144C204.903 55.0918 204.599 55.4458 204.382 55.8519C204.164 56.258 204.037 56.7066 204.009 57.1666C203.974 57.6681 203.821 58.1543 203.563 58.586C203.305 59.0178 202.95 59.383 202.525 59.6523L177.386 74.1361C176.563 74.6184 175.902 74.2697 175.902 73.3941C175.902 72.5186 175.272 72.1327 174.5 72.5853L173.09 73.3941L151.572 85.8375C151.251 86.0263 150.944 86.237 150.652 86.4682L150.222 86.854C148.326 88.6373 147.189 91.0816 147.046 93.6804V281.755L221.58 238.697Z" fill="#263238"/>
<path d="M181.2 66.4932L192.716 59.8152C193.406 59.4219 193.962 59.7039 193.962 60.4459C193.938 60.8675 193.814 61.2772 193.599 61.6411C193.385 62.005 193.087 62.3126 192.731 62.5383L181.215 69.2163C180.532 69.617 179.976 69.3351 179.976 68.5931C180 68.1713 180.123 67.7612 180.336 67.3963C180.549 67.0313 180.845 66.7219 181.2 66.4932Z" fill="#263238"/>
<path d="M198.667 55.8902C199.409 55.445 200.069 55.8012 200.069 56.699C200.042 57.185 199.901 57.6577 199.657 58.0791C199.414 58.5006 199.074 58.8589 198.667 59.1253C197.925 59.5705 197.265 59.2069 197.265 58.3165C197.289 57.8299 197.429 57.356 197.673 56.9341C197.917 56.5123 198.258 56.1544 198.667 55.8902Z" fill="#263238"/>
<path d="M140.888 110.494C140.858 109.698 140.641 108.92 140.255 108.224C139.868 107.528 139.322 106.933 138.662 106.487C138.444 106.33 138.187 106.236 137.919 106.214C137.651 106.191 137.382 106.242 137.141 106.361C136.866 106.532 135.768 107.14 135.479 107.311C135.238 107.491 135.049 107.731 134.93 108.007C134.81 108.283 134.764 108.585 134.796 108.884V125.609C134.826 126.404 135.043 127.182 135.429 127.878C135.816 128.575 136.362 129.17 137.022 129.615C137.234 129.77 137.482 129.866 137.743 129.893C138.004 129.921 138.267 129.879 138.506 129.771C138.81 129.615 139.931 128.97 140.22 128.792C140.461 128.612 140.651 128.372 140.771 128.096C140.891 127.82 140.936 127.518 140.903 127.219L140.888 110.494Z" fill="#455A64"/>
<path d="M139.24 111.458V128.183C139.24 129.667 138.253 130.342 137.014 129.63C136.354 129.184 135.808 128.589 135.421 127.893C135.035 127.197 134.818 126.419 134.788 125.623V108.899C134.788 107.415 135.782 106.747 137.014 107.452C137.674 107.897 138.22 108.492 138.607 109.189C138.994 109.885 139.211 110.663 139.24 111.458Z" fill="#4B589B"/>
<path d="M140.888 139.781C140.858 138.985 140.64 138.207 140.254 137.511C139.867 136.815 139.322 136.22 138.662 135.774C138.443 135.617 138.187 135.522 137.919 135.5C137.651 135.478 137.382 135.529 137.141 135.648C136.866 135.818 135.768 136.39 135.479 136.605C135.237 136.785 135.047 137.024 134.927 137.3C134.808 137.576 134.762 137.879 134.796 138.178V154.903C134.825 155.698 135.042 156.476 135.429 157.172C135.816 157.869 136.362 158.464 137.022 158.909C137.233 159.064 137.482 159.16 137.743 159.187C138.004 159.215 138.267 159.173 138.506 159.065C138.81 158.902 139.931 158.256 140.22 158.086C140.461 157.904 140.651 157.663 140.771 157.386C140.891 157.109 140.936 156.805 140.903 156.505L140.888 139.781Z" fill="#455A64"/>
<path d="M139.24 140.731V157.463C139.24 158.947 138.253 159.614 137.014 158.91C136.354 158.464 135.808 157.869 135.421 157.173C135.035 156.476 134.818 155.699 134.788 154.903V138.178C134.788 136.694 135.782 136.019 137.014 136.694C137.678 137.143 138.226 137.743 138.613 138.445C139 139.146 139.215 139.93 139.24 140.731Z" fill="#4B589B"/>
<path d="M242.201 48.5306L159.587 96.167C159.044 96.5187 158.593 96.9938 158.269 97.5535C157.945 98.1132 157.759 98.7416 157.725 99.3873V292.953C157.76 293.597 157.947 294.224 158.271 294.782C158.594 295.341 159.045 295.815 159.587 296.166L160.752 296.833C161.328 297.122 161.963 297.272 162.607 297.272C163.251 297.272 163.886 297.122 164.462 296.833L247.076 249.123C247.618 248.77 248.068 248.294 248.392 247.735C248.715 247.176 248.903 246.548 248.939 245.903V52.4038C248.904 51.7585 248.716 51.1307 248.391 50.5721C248.066 50.0136 247.613 49.5402 247.069 49.191L245.911 48.5306C245.336 48.242 244.7 48.0918 244.056 48.0918C243.412 48.0918 242.777 48.242 242.201 48.5306Z" fill="#4B589B"/>
<path opacity="0.25" d="M242.201 48.5306L159.587 96.167C159.044 96.5187 158.593 96.9938 158.269 97.5535C157.945 98.1132 157.759 98.7416 157.725 99.3873V292.953C157.76 293.597 157.947 294.224 158.271 294.782C158.594 295.341 159.045 295.815 159.587 296.166L160.752 296.833C161.328 297.122 161.963 297.272 162.607 297.272C163.251 297.272 163.886 297.122 164.462 296.833L247.076 249.123C247.618 248.77 248.068 248.294 248.392 247.735C248.715 247.176 248.903 246.548 248.939 245.903V52.4038C248.904 51.7585 248.716 51.1307 248.391 50.5721C248.066 50.0136 247.613 49.5402 247.069 49.191L245.911 48.5306C245.336 48.242 244.7 48.0918 244.056 48.0918C243.412 48.0918 242.777 48.242 242.201 48.5306Z" fill="black"/>
<path d="M248.953 246.028C248.953 247.66 247.803 248.699 246.379 249.523L165.189 296.402C163.772 297.219 162.614 296.558 162.614 294.918V102.993C162.611 102.091 162.846 101.204 163.296 100.422C163.745 99.6407 164.393 98.9915 165.174 98.5406L246.379 51.6537C246.639 51.5023 246.935 51.4224 247.237 51.4219C247.538 51.4214 247.834 51.5004 248.095 51.6509C248.356 51.8014 248.573 52.0181 248.724 52.2791C248.875 52.5401 248.954 52.8363 248.953 53.1377V246.028Z" fill="#FAFAFA"/>
<path d="M247.232 52.9074C247.294 52.9073 247.353 52.9313 247.397 52.9743C247.442 53.0172 247.467 53.0757 247.469 53.1374V246.057C247.469 246.629 247.247 247.341 245.637 248.283L164.447 295.118C164.349 295.175 164.244 295.22 164.135 295.252C164.111 295.142 164.099 295.03 164.098 294.918V102.992C164.099 102.355 164.268 101.729 164.587 101.177C164.906 100.624 165.364 100.166 165.916 99.8463L247.121 52.937C247.157 52.9269 247.196 52.9269 247.232 52.937M247.232 51.453C246.932 51.4548 246.639 51.5341 246.379 51.6831L165.174 98.5626C164.393 99.0135 163.745 99.6627 163.296 100.444C162.846 101.226 162.611 102.113 162.614 103.015V294.918C162.614 296.083 163.193 296.751 164.039 296.751C164.446 296.737 164.843 296.617 165.189 296.402L246.379 249.523C247.803 248.699 248.953 247.66 248.953 246.028V53.1374C248.953 52.9117 248.909 52.6882 248.822 52.4797C248.736 52.2713 248.609 52.082 248.449 51.9227C248.289 51.7635 248.099 51.6374 247.89 51.5517C247.681 51.466 247.458 51.4224 247.232 51.4234V51.453Z" fill="#4B589B"/>
<path d="M248.954 52.4031V53.1451C248.952 52.8435 248.872 52.5475 248.72 52.2867C248.569 52.026 248.351 51.8096 248.09 51.6594C247.828 51.5091 247.532 51.4301 247.231 51.4304C246.929 51.4307 246.633 51.5103 246.371 51.6611L165.174 98.5629C164.394 99.0059 163.748 99.6521 163.305 100.433V100.485L158.281 97.5909C158.595 97.0102 159.056 96.5217 159.617 96.1737L242.201 48.5298C242.777 48.2396 243.412 48.0884 244.056 48.0884C244.701 48.0884 245.336 48.2396 245.911 48.5298L247.069 49.1902C247.616 49.5378 248.072 50.0104 248.399 50.5691C248.727 51.1278 248.917 51.7564 248.954 52.4031Z" fill="#4B589B"/>
<path opacity="0.45" d="M248.954 52.4031V53.1451C248.952 52.8435 248.872 52.5475 248.72 52.2867C248.569 52.026 248.351 51.8096 248.09 51.6594C247.828 51.5091 247.532 51.4301 247.231 51.4304C246.929 51.4307 246.633 51.5103 246.371 51.6611L165.174 98.5629C164.394 99.0059 163.748 99.6521 163.305 100.433V100.485L158.281 97.5909C158.595 97.0102 159.056 96.5217 159.617 96.1737L242.201 48.5298C242.777 48.2396 243.412 48.0884 244.056 48.0884C244.701 48.0884 245.336 48.2396 245.911 48.5298L247.069 49.1902C247.616 49.5378 248.072 50.0104 248.399 50.5691C248.727 51.1278 248.917 51.7564 248.954 52.4031Z" fill="white"/>
<path opacity="0.15" d="M184 251.44V234.916C184.013 234.703 184.075 234.496 184.182 234.312C184.289 234.128 184.438 233.971 184.616 233.855L224.098 211.083C224.432 210.89 224.706 211.045 224.706 211.439V227.956C224.695 228.168 224.635 228.375 224.529 228.559C224.423 228.743 224.275 228.9 224.098 229.017L184.616 251.804C184.275 251.989 184 251.833 184 251.44Z" fill="black"/>
<path d="M226.234 212.314L186.753 235.101C186.573 235.216 186.424 235.373 186.316 235.557C186.209 235.742 186.148 235.949 186.137 236.162V252.679C186.148 252.891 186.209 253.097 186.316 253.281C186.424 253.464 186.573 253.619 186.753 253.733L188.979 254.964C189.169 255.061 189.38 255.112 189.594 255.112C189.808 255.112 190.02 255.061 190.21 254.964L229.692 232.185C229.87 232.068 230.018 231.912 230.123 231.727C230.229 231.543 230.29 231.336 230.301 231.124V214.592C230.288 214.38 230.226 214.174 230.119 213.991C230.012 213.808 229.863 213.653 229.685 213.538L227.459 212.307C227.268 212.213 227.058 212.164 226.846 212.166C226.633 212.167 226.424 212.218 226.234 212.314Z" fill="#4B589B"/>
<path d="M189.565 254.609V238.084C189.577 237.871 189.639 237.664 189.746 237.48C189.853 237.295 190.002 237.139 190.181 237.023L229.663 214.244C229.997 214.043 230.272 214.207 230.272 214.592V231.117C230.261 231.329 230.2 231.536 230.094 231.72C229.989 231.905 229.841 232.061 229.663 232.178L190.181 254.957C189.84 255.158 189.565 254.994 189.565 254.609Z" fill="#4B589B"/>
<path opacity="0.2" d="M190.181 254.957C189.99 255.053 189.779 255.102 189.565 255.102C189.351 255.102 189.141 255.053 188.949 254.957L186.723 253.726C186.543 253.612 186.394 253.458 186.286 253.274C186.179 253.091 186.118 252.884 186.107 252.672V236.162C186.126 235.95 186.197 235.746 186.315 235.569L189.736 237.52C189.62 237.7 189.555 237.908 189.55 238.121V254.646C189.565 254.965 189.817 255.172 190.181 254.957Z" fill="black"/>
<path opacity="0.4" d="M230.264 214.481C230.22 214.177 229.967 214.065 229.656 214.244L190.181 237.053C189.999 237.164 189.85 237.323 189.751 237.513L186.315 235.569C186.419 235.39 186.564 235.24 186.738 235.131L226.22 212.351C226.41 212.256 226.62 212.207 226.832 212.207C227.045 212.207 227.254 212.256 227.444 212.351L229.67 213.583C229.826 213.684 229.958 213.816 230.061 213.97C230.163 214.125 230.232 214.299 230.264 214.481Z" fill="white"/>
<path d="M200.139 235.568L202.305 243.886C202.312 243.96 202.312 244.035 202.305 244.109C202.305 244.287 202.172 244.48 201.86 244.665L201.563 244.836C201.311 244.977 201.118 245.014 201.081 244.836L200.636 243.078L198.187 244.472L197.742 246.743C197.715 246.856 197.664 246.961 197.592 247.052C197.52 247.143 197.43 247.217 197.327 247.27L197.059 247.426C196.703 247.626 196.54 247.619 196.54 247.426C196.544 247.333 196.557 247.241 196.577 247.151L198.744 236.348C198.779 236.224 198.841 236.109 198.926 236.011C199.011 235.914 199.116 235.836 199.234 235.784L199.671 235.568C199.901 235.42 200.087 235.39 200.139 235.568ZM199.397 237.935C199.397 238.269 199.323 238.603 199.256 238.937L198.514 242.647L200.257 241.638L199.515 238.774C199.454 238.497 199.41 238.217 199.382 237.935H199.397Z" fill="white"/>
<path d="M207.655 234.085C207.708 234.936 207.54 235.787 207.168 236.555C206.796 237.323 206.233 237.982 205.533 238.47L204.346 239.152V242.862C204.333 243.016 204.279 243.162 204.189 243.287C204.098 243.411 203.976 243.508 203.834 243.567L203.604 243.701C203.255 243.901 203.099 243.842 203.099 243.575V234.136C203.077 233.993 203.098 233.846 203.159 233.714C203.219 233.582 203.317 233.471 203.441 233.394L205.437 232.244C206.275 231.769 207.655 231.354 207.655 234.085ZM204.346 234.522V237.49L205.429 236.867C205.759 236.641 206.023 236.33 206.191 235.967C206.36 235.604 206.427 235.202 206.386 234.804C206.386 233.595 205.822 233.654 205.377 233.914L204.346 234.522Z" fill="white"/>
<path d="M213.116 230.931C213.168 231.783 213.001 232.634 212.629 233.402C212.257 234.17 211.694 234.829 210.994 235.316L209.807 236.007V239.717C209.794 239.87 209.74 240.016 209.65 240.141C209.559 240.265 209.437 240.362 209.295 240.421L209.065 240.555C208.716 240.755 208.56 240.696 208.56 240.429V230.983C208.538 230.84 208.559 230.693 208.62 230.561C208.68 230.429 208.778 230.318 208.902 230.241L210.898 229.091C211.736 228.616 213.116 228.201 213.116 230.931ZM209.807 231.369V234.337L210.89 233.714C211.22 233.488 211.484 233.177 211.652 232.814C211.82 232.451 211.888 232.049 211.847 231.651C211.847 230.442 211.283 230.508 210.838 230.761L209.807 231.369Z" fill="white"/>
<path d="M215.305 226.939V235.249L217.62 233.906C217.798 233.81 217.872 233.958 217.872 234.404V234.767C217.872 235.212 217.798 235.45 217.62 235.546L214.407 237.401C214.162 237.542 214.059 237.401 214.059 237.075V227.659C214.07 227.506 214.124 227.36 214.213 227.236C214.302 227.112 214.423 227.014 214.563 226.954L214.793 226.82C215.149 226.62 215.305 226.664 215.305 226.939Z" fill="white"/>
<path d="M222.747 222.213C223.111 221.997 223.274 222.012 223.274 222.213C223.261 222.342 223.231 222.469 223.185 222.591L221.241 228.43V233.083C221.23 233.235 221.177 233.382 221.088 233.506C220.999 233.631 220.877 233.728 220.736 233.788L220.506 233.921C220.15 234.122 220.002 234.062 220.002 233.795V229.106L218.058 225.552C218.007 225.468 217.977 225.374 217.969 225.277C217.969 225.099 218.132 224.906 218.51 224.683L218.822 224.505C219.067 224.364 219.252 224.32 219.334 224.505L220.647 227.065L221.983 222.962C222.083 222.717 222.271 222.519 222.51 222.405L222.747 222.213Z" fill="white"/>
<path d="M178.857 186.826L232.704 155.736C233.565 155.239 234.263 155.595 234.263 156.523C234.224 157.045 234.062 157.551 233.792 158C233.521 158.449 233.148 158.827 232.704 159.105L178.857 190.195C178.004 190.692 177.307 190.336 177.307 189.408C177.346 188.887 177.507 188.382 177.776 187.933C178.045 187.485 178.415 187.106 178.857 186.826Z" fill="#E0E0E0"/>
<path d="M178.857 193.586L232.704 162.503C233.565 162.006 234.263 162.355 234.263 163.245C234.225 163.768 234.065 164.275 233.794 164.724C233.523 165.173 233.15 165.551 232.704 165.828L178.857 196.917C178.004 197.415 177.307 197.066 177.307 196.131C177.351 195.616 177.515 195.118 177.784 194.677C178.053 194.235 178.42 193.862 178.857 193.586Z" fill="#E0E0E0"/>
<path d="M178.857 179.586L232.704 148.503C233.565 148.006 234.263 148.355 234.263 149.245C234.225 149.768 234.065 150.275 233.794 150.724C233.523 151.173 233.15 151.551 232.704 151.828L178.857 182.917C178.004 183.415 177.307 183.066 177.307 182.131C177.351 181.616 177.515 181.118 177.784 180.677C178.053 180.235 178.42 179.862 178.857 179.586Z" fill="#E0E0E0"/>
<path d="M178.857 200.323L232.704 169.234C233.565 168.736 234.263 169.093 234.263 170.02C234.224 170.543 234.062 171.049 233.792 171.497C233.521 171.946 233.148 172.324 232.704 172.602L178.857 203.692C178.004 204.182 177.307 203.833 177.307 202.906C177.345 202.384 177.505 201.878 177.774 201.43C178.044 200.981 178.415 200.602 178.857 200.323Z" fill="#E0E0E0"/>
<path d="M178.857 207.053L232.704 175.964C233.565 175.474 234.263 175.823 234.263 176.75C234.225 177.273 234.064 177.779 233.793 178.228C233.522 178.677 233.149 179.055 232.704 179.332L178.857 210.422C178.004 210.919 177.307 210.563 177.307 209.636C177.346 209.114 177.507 208.609 177.776 208.161C178.045 207.712 178.415 207.333 178.857 207.053Z" fill="#E0E0E0"/>
<path d="M327.816 273.123C327.141 263.87 328.179 256.799 327.408 242.33C327.341 238.62 327.207 234.658 326.962 231.133C326.124 219.261 324.299 215.225 324.128 212.932C324.128 212.932 323.816 194.486 323.037 168.538C322.674 156.332 319.134 152.637 316.315 146.159H282.702C278.948 162.142 277.879 197.008 277.99 213.481C278.05 221.88 281.441 266.816 281.508 267.855C281.752 271.52 281.433 272.967 280.024 274.533C277.011 277.76 272.648 280.832 268.894 283.652C269.443 285.091 273.976 285.039 276.217 283.941C279.159 282.41 281.962 280.625 284.594 278.606C287.688 276.313 291.651 274.473 291.703 270.978C291.719 270.768 291.753 270.559 291.806 270.355C291.866 268.315 296.615 238.256 297 231.281C297.334 225.286 296.607 215.106 296.607 215.106L300.48 189.7C300.48 189.7 302.862 204.718 305.274 214.972C307.24 223.32 310.468 237.559 312.694 247.828C314.816 259.663 317.932 268.085 318.474 274.006C318.637 275.423 320.24 289.306 320.9 292.482C321.561 295.657 328.491 295.746 328.936 290.256C329.218 286.612 327.964 274.867 327.816 273.123Z" fill="#FFBDA7"/>
<path d="M300.465 189.678L297.631 171.358C297.631 171.358 286.694 170.059 282.717 166.238C282.717 166.238 287.733 173.309 295.153 174.467L298.284 189.655L296.629 214.883L300.465 189.678Z" fill="#FFBDA7"/>
<path d="M262.445 287.317C262.253 287.317 261.941 289.425 262.972 290.337C264.167 291.383 267.677 293.127 272.344 292.563C277.011 291.999 279.556 290.597 281.441 289.054C283.325 287.51 285.959 285.344 288.074 284.898C290.04 284.483 292.177 283.622 292.816 283.021C293.454 282.42 293.387 279.727 293.387 279.727L262.445 287.317Z" fill="#263238"/>
<path d="M291.873 269.346C291.873 269.346 292.229 269.346 292.341 269.984C292.474 270.726 292.608 272.893 292.905 274.11C293.364 276.262 293.494 278.471 293.29 280.662C293.016 282.034 289.818 282.962 287.762 283.719C285.342 284.742 283.091 286.125 281.084 287.822C278.185 289.904 274.762 291.137 271.201 291.384C266.564 291.384 263.573 290.107 262.661 288.416C261.533 286.345 262.445 285.158 267.803 282.739C268.819 282.287 272.388 280.224 273.605 279.474C274.894 278.69 276.118 277.801 277.263 276.818C277.841 276.317 278.391 275.784 278.91 275.223C279.448 274.722 279.908 274.145 280.276 273.509C280.342 273.368 280.38 273.205 280.439 273.064C280.589 272.657 280.711 272.241 280.803 271.817C280.892 271.372 280.951 270.726 281.374 270.467C281.978 270.224 282.638 270.152 283.281 270.259C283.972 270.314 284.659 270.418 285.336 270.57C286.123 270.756 287.028 270.838 287.488 271.58C287.789 272.179 287.932 272.846 287.903 273.516C287.903 273.828 287.903 274.14 287.903 274.451C287.903 274.585 287.844 274.822 288.03 274.77C288.215 274.718 288.408 274.258 288.482 274.102C288.631 273.754 288.727 273.36 288.898 273.041C289.239 272.269 289.764 271.591 290.426 271.068C290.716 270.845 291.087 270.734 291.346 270.489C291.631 270.168 291.814 269.771 291.873 269.346Z" fill="#4B589B"/>
<path d="M266.964 283.154C273.642 283.689 275.75 287.859 276.009 290.433C274.472 290.993 272.858 291.313 271.223 291.383C266.586 291.383 263.403 290.107 262.49 288.415C261.429 286.471 262.178 284.928 266.964 283.154Z" fill="#FAFAFA"/>
<path d="M277.033 283.332C277.109 283.334 277.182 283.307 277.24 283.258C277.274 283.232 277.302 283.198 277.323 283.161C277.344 283.123 277.357 283.082 277.362 283.039C277.367 282.996 277.363 282.953 277.351 282.912C277.339 282.87 277.319 282.832 277.292 282.798C276.518 281.98 275.578 281.337 274.535 280.912C273.492 280.487 272.37 280.29 271.245 280.335C271.158 280.346 271.079 280.39 271.024 280.457C270.969 280.525 270.942 280.611 270.948 280.698C270.952 280.741 270.964 280.783 270.984 280.82C271.004 280.858 271.032 280.892 271.065 280.919C271.098 280.946 271.136 280.966 271.178 280.978C271.219 280.989 271.262 280.993 271.304 280.988C272.322 280.959 273.333 281.142 274.276 281.526C275.219 281.909 276.071 282.484 276.78 283.214C276.811 283.251 276.85 283.281 276.893 283.301C276.937 283.322 276.984 283.333 277.033 283.332Z" fill="#F0F0F0"/>
<path d="M279.942 281.678C280.02 281.679 280.096 281.652 280.157 281.604C280.191 281.577 280.219 281.544 280.24 281.506C280.261 281.468 280.274 281.426 280.278 281.383C280.282 281.34 280.277 281.297 280.264 281.256C280.251 281.215 280.23 281.177 280.201 281.144C279.428 280.324 278.488 279.681 277.445 279.256C276.402 278.831 275.28 278.634 274.154 278.68C274.111 278.685 274.069 278.698 274.032 278.719C273.994 278.74 273.96 278.768 273.933 278.802C273.906 278.836 273.886 278.874 273.875 278.916C273.863 278.958 273.859 279.001 273.865 279.044C273.867 279.087 273.879 279.129 273.899 279.167C273.918 279.206 273.946 279.24 273.979 279.267C274.013 279.294 274.051 279.314 274.093 279.325C274.135 279.337 274.178 279.34 274.221 279.333C275.237 279.305 276.248 279.488 277.189 279.871C278.13 280.255 278.982 280.829 279.689 281.559C279.72 281.596 279.759 281.626 279.802 281.646C279.846 281.667 279.893 281.678 279.942 281.678Z" fill="#F0F0F0"/>
<path d="M282.65 279.778C282.726 279.777 282.799 279.751 282.858 279.704C282.892 279.678 282.92 279.644 282.941 279.607C282.961 279.569 282.975 279.528 282.98 279.485C282.984 279.442 282.981 279.399 282.969 279.358C282.957 279.316 282.937 279.278 282.91 279.244C282.134 278.427 281.192 277.785 280.148 277.362C279.104 276.938 277.981 276.743 276.855 276.788C276.812 276.792 276.771 276.804 276.733 276.824C276.695 276.844 276.662 276.872 276.635 276.905C276.608 276.938 276.588 276.976 276.576 277.018C276.564 277.059 276.561 277.102 276.566 277.144C276.57 277.187 276.582 277.229 276.602 277.267C276.622 277.305 276.649 277.339 276.682 277.367C276.715 277.395 276.753 277.415 276.795 277.428C276.836 277.441 276.879 277.445 276.922 277.441C277.939 277.41 278.952 277.592 279.895 277.975C280.838 278.359 281.691 278.935 282.398 279.667C282.429 279.703 282.468 279.732 282.512 279.751C282.555 279.77 282.603 279.779 282.65 279.778Z" fill="#F0F0F0"/>
<path d="M285.291 277.879C285.366 277.883 285.44 277.859 285.499 277.812C285.533 277.786 285.562 277.753 285.584 277.716C285.605 277.679 285.619 277.637 285.625 277.594C285.63 277.552 285.627 277.508 285.616 277.467C285.604 277.425 285.585 277.386 285.558 277.352C284.29 275.712 281.388 274.614 278.947 274.852C278.904 274.856 278.863 274.869 278.825 274.889C278.787 274.91 278.753 274.937 278.726 274.971C278.699 275.004 278.678 275.043 278.666 275.084C278.654 275.125 278.65 275.169 278.654 275.211C278.658 275.254 278.671 275.296 278.692 275.334C278.712 275.372 278.74 275.405 278.773 275.433C278.807 275.46 278.845 275.48 278.886 275.492C278.928 275.505 278.971 275.509 279.014 275.505C281.24 275.289 283.911 276.306 285.039 277.731C285.066 277.774 285.103 277.81 285.147 277.836C285.191 277.862 285.24 277.877 285.291 277.879Z" fill="#F0F0F0"/>
<path d="M318.704 294.937C318.89 298.106 319.387 300.206 320.507 302.068C321.628 303.931 323.757 304.509 325.902 303.96C328.046 303.411 330.799 301.964 331.415 299.234C332.03 296.503 332.394 294.626 331.904 291.688L318.704 294.937Z" fill="#263238"/>
<path d="M327.742 271.995C328.624 272.061 328.884 276.313 329.396 280.572C329.938 285.143 331.303 287.028 331.793 290.775C332.349 295.049 331.644 296.963 330.146 299.552C328.647 302.142 323.341 304.672 320.73 300.97C318.593 297.95 318.504 294.603 318.704 290.329C318.812 286.718 318.715 283.104 318.415 279.504C318.244 276.306 317.532 273.071 318.303 272.714C318.363 273.189 318.422 273.783 318.481 274.243C318.514 274.823 318.611 275.398 318.771 275.957C318.86 276.194 319.053 276.439 319.134 276.053C319.179 275.791 319.179 275.522 319.134 275.259C319.008 274.08 319.602 273.983 319.921 273.887C321.278 273.624 322.647 273.431 324.024 273.308C324.707 273.263 327.037 273.16 327.341 273.545C327.542 273.927 327.644 274.353 327.638 274.785C327.712 275.423 327.86 275.898 327.882 275.697C327.927 275.237 327.831 274.035 327.823 273.746C327.816 273.456 327.764 273.093 327.764 272.811C327.764 272.529 327.756 272.262 327.742 271.995Z" fill="#4B589B"/>
<path d="M332.037 293.253C332.2 295.541 331.619 297.821 330.383 299.753C328.899 302.343 323.148 304.888 320.536 301.178C319.238 299.338 318.889 297.156 318.711 294.938C320.277 292.081 329.566 290.819 332.037 293.253Z" fill="#FAFAFA"/>
<path d="M320.64 290.285H320.752C320.752 290.285 324.877 288.571 328.869 289.499C328.949 289.504 329.028 289.481 329.093 289.433C329.157 289.385 329.201 289.315 329.219 289.237C329.236 289.159 329.224 289.077 329.186 289.006C329.147 288.936 329.085 288.881 329.01 288.853C326.139 288.318 323.175 288.609 320.462 289.692C320.385 289.73 320.325 289.797 320.296 289.879C320.267 289.961 320.27 290.05 320.306 290.129C320.341 290.185 320.391 290.229 320.451 290.256C320.51 290.284 320.576 290.294 320.64 290.285Z" fill="#F0F0F0"/>
<path d="M328.706 286.278C328.769 286.272 328.828 286.248 328.877 286.209C328.926 286.169 328.962 286.116 328.981 286.056C329.009 285.974 329.004 285.884 328.966 285.807C328.929 285.729 328.862 285.669 328.78 285.64C324.811 284.297 320.403 286.315 320.24 286.382C320.163 286.422 320.106 286.49 320.079 286.572C320.053 286.654 320.06 286.743 320.099 286.82C320.14 286.897 320.21 286.955 320.293 286.981C320.376 287.008 320.466 287 320.544 286.961C320.581 286.961 324.877 284.987 328.565 286.219C328.606 286.25 328.655 286.271 328.706 286.278Z" fill="#F0F0F0"/>
<path d="M328.528 283.273C328.589 283.265 328.647 283.241 328.695 283.203C328.744 283.166 328.781 283.115 328.803 283.058C328.818 283.018 328.826 282.975 328.824 282.931C328.823 282.888 328.813 282.846 328.795 282.806C328.777 282.767 328.751 282.732 328.72 282.702C328.688 282.673 328.651 282.65 328.61 282.635C324.24 281.077 320.062 283.281 319.906 283.377C319.832 283.423 319.779 283.496 319.759 283.581C319.738 283.665 319.751 283.755 319.795 283.83C319.817 283.867 319.847 283.9 319.881 283.926C319.916 283.951 319.956 283.97 319.998 283.981C320.04 283.991 320.084 283.993 320.127 283.986C320.17 283.979 320.211 283.964 320.248 283.941C320.248 283.941 324.321 281.812 328.41 283.258C328.447 283.273 328.488 283.279 328.528 283.273Z" fill="#F0F0F0"/>
<path d="M328.312 280.313C328.373 280.306 328.43 280.284 328.479 280.247C328.527 280.21 328.564 280.161 328.587 280.105C328.602 280.065 328.61 280.022 328.608 279.978C328.607 279.935 328.597 279.893 328.579 279.853C328.561 279.814 328.535 279.779 328.504 279.749C328.472 279.72 328.435 279.697 328.394 279.682C324.306 278.146 319.802 280.424 319.639 280.506C319.6 280.526 319.566 280.554 319.539 280.587C319.512 280.621 319.492 280.66 319.48 280.701C319.468 280.743 319.465 280.787 319.47 280.829C319.476 280.872 319.49 280.914 319.512 280.951C319.533 280.99 319.562 281.024 319.596 281.051C319.63 281.078 319.67 281.098 319.712 281.11C319.754 281.122 319.798 281.125 319.842 281.119C319.885 281.114 319.927 281.099 319.965 281.077C319.965 281.077 324.365 278.851 328.127 280.291C328.184 280.321 328.25 280.329 328.312 280.313Z" fill="#EBEBEB"/>
<path d="M317.212 146.263C321.189 153.52 324.143 159.456 324.543 181.033C324.944 202.611 324.885 208.658 324.966 211.255C325.048 213.852 326.569 218.512 327.934 231.326C329.299 244.14 327.689 259.418 327.689 259.418C327.689 259.418 326.769 261.481 321.872 261.919C317.353 262.327 315.112 260.628 315.112 260.628C315.112 260.628 308.909 235.667 307.195 227.98C305.481 220.293 300.517 194.872 300.517 194.872L297.549 215.462C297.549 215.462 298.929 222.533 297.549 233.775C296.169 245.016 293.743 256.532 293.743 256.532C291.51 257.305 289.16 257.687 286.798 257.66C284.66 257.698 282.553 257.148 280.706 256.072C280.706 256.072 276.862 222.63 276.862 209.89C276.862 197.15 277.938 165.295 281.952 146.434L317.212 146.263Z" fill="#4B589B"/>
<path d="M300.466 194.841L296.429 170.355C296.429 170.355 287.904 169.747 283.17 164.798C285.092 170.059 292.074 173.746 295.153 174.444L298.759 194.545L297.542 215.432L300.466 194.841Z" fill="#263238"/>
<path d="M309.028 149.884C310.153 151.732 311.078 153.695 311.789 155.738C312.522 157.766 313.139 159.835 313.636 161.934C314.118 164.034 314.527 166.148 314.801 168.285C315.109 170.42 315.25 172.576 315.224 174.733C314.712 172.634 314.237 170.556 313.74 168.471C313.243 166.386 312.805 164.316 312.301 162.246C311.796 160.175 311.299 158.113 310.772 156.05C310.245 153.987 309.666 151.917 309.028 149.884Z" fill="#263238"/>
<path d="M311.841 150.626C312.913 151.623 313.889 152.719 314.757 153.898C315.632 155.078 316.423 156.318 317.124 157.608C317.827 158.893 318.43 160.23 318.927 161.608C319.433 162.988 319.765 164.426 319.914 165.889L317.947 162.031C317.287 160.769 316.627 159.508 315.937 158.261C315.247 157.015 314.557 155.761 313.866 154.499C313.176 153.238 312.479 151.962 311.841 150.626Z" fill="#263238"/>
<path d="M307.188 176.418C308.116 183.096 308.954 189.774 309.793 196.452C310.631 203.13 311.537 209.808 312.761 216.397C313.985 222.986 315.284 229.634 316.471 236.268C317.658 242.901 318.771 249.557 319.795 256.22C318.252 249.656 316.797 243.074 315.432 236.475C314.045 229.872 312.739 223.283 311.44 216.649C310.142 210.016 309.414 203.293 308.762 196.571C308.109 189.848 307.567 183.148 307.188 176.418Z" fill="#263238"/>
<path d="M283.17 176.418L282.072 193.989C281.908 196.919 281.723 199.843 281.589 202.766C281.456 205.69 281.278 208.628 281.33 211.522C281.381 214.416 281.567 217.362 281.715 220.285L282.161 229.078C282.457 234.94 282.69 240.806 282.858 246.678C282.166 240.846 281.579 235.001 281.1 229.144C280.617 223.29 280.172 217.451 279.972 211.544C279.972 205.608 280.491 199.769 281.018 193.907C281.545 188.045 282.264 182.22 283.17 176.418Z" fill="#263238"/>
<path d="M291.421 108.903C284.305 110.135 282.606 110.661 279.445 115.425C276.202 120.315 271.958 126.318 267.076 133.804L254.291 127.831L249.156 136.735C249.156 136.735 262.913 145.572 267.996 147.294C271.802 148.578 272.7 146.908 275.512 143.97C278.636 140.705 287.829 130.042 287.829 130.042L291.421 108.903Z" fill="#FFBDA7"/>
<path d="M267.075 133.805C269.242 134.547 271.527 136.595 271.935 137.826C270.689 134.042 268.73 133.374 267.698 132.855L267.075 133.805Z" fill="#FFBDA7"/>
<path d="M322.711 150.952C320.988 148.412 319.732 145.586 319.001 142.605C317.866 134.154 319.372 129.865 319.921 126.17C321.123 118.112 318.815 111.367 316.953 109.779C316.953 109.779 314.823 109.252 313.035 108.933C311.618 108.681 310.527 108.51 308.657 108.057C304.012 106.93 298.93 108.057 297.156 108.221C295.941 108.189 294.726 108.276 293.528 108.48C292.274 108.77 289.358 109.274 289.358 109.274C287.117 111.313 285.245 113.723 283.823 116.398C281.149 120.774 279.687 125.783 279.586 130.911C279.089 140.861 279.245 145.899 279.141 151.613C287.377 156.681 312.071 157.156 322.711 150.952Z" fill="#4B589B"/>
<g opacity="0.3">
<path d="M322.711 150.952C320.988 148.412 319.732 145.586 319.001 142.605C317.866 134.154 319.372 129.865 319.921 126.17C321.123 118.112 318.815 111.367 316.953 109.779C316.953 109.779 314.823 109.252 313.035 108.933C311.618 108.681 310.527 108.51 308.657 108.057C304.012 106.93 298.93 108.057 297.156 108.221C295.941 108.189 294.726 108.276 293.528 108.48C292.274 108.77 289.358 109.274 289.358 109.274C287.117 111.313 285.245 113.723 283.823 116.398C281.149 120.774 279.687 125.783 279.586 130.911C279.089 140.861 279.245 145.899 279.141 151.613C287.377 156.681 312.071 157.156 322.711 150.952Z" fill="white"/>
</g>
<path d="M238.479 117.518L239.473 116.59C239.624 116.482 239.797 116.411 239.981 116.383C240.164 116.354 240.351 116.369 240.527 116.427L253.846 119.513C254.415 119.675 254.942 119.957 255.391 120.342C255.841 120.726 256.202 121.203 256.45 121.739L265.399 144.578C265.505 144.762 265.553 144.975 265.536 145.187C265.519 145.399 265.437 145.601 265.302 145.765L264.278 146.723C264.127 146.835 263.951 146.91 263.765 146.94C263.579 146.969 263.388 146.953 263.21 146.893L249.854 143.814C249.286 143.652 248.76 143.369 248.312 142.984C247.864 142.6 247.504 142.124 247.257 141.588L238.331 118.72C238.224 118.529 238.181 118.31 238.208 118.094C238.235 117.878 238.33 117.676 238.479 117.518Z" fill="#455A64"/>
<path d="M254.076 121.049C254.671 121.469 255.143 122.04 255.441 122.704L264.397 145.535C264.495 145.717 264.541 145.922 264.529 146.127C264.517 146.333 264.448 146.531 264.331 146.7L265.295 145.803C265.432 145.639 265.516 145.438 265.534 145.225C265.553 145.013 265.506 144.8 265.399 144.615L256.428 121.762C256.152 121.143 255.72 120.606 255.174 120.204L254.076 121.049Z" fill="#263238"/>
<path d="M264.39 145.543L255.434 122.697C255.187 122.161 254.827 121.684 254.379 121.3C253.93 120.916 253.404 120.633 252.837 120.471L239.518 117.392C238.471 117.147 237.937 117.763 238.331 118.764L247.286 141.603C247.534 142.139 247.894 142.615 248.342 143C248.79 143.384 249.316 143.667 249.883 143.829L263.239 146.908C264.249 147.153 264.783 146.537 264.39 145.543Z" fill="#4B589B"/>
<path d="M255.619 127.557L253.942 123.283C253.895 123.182 253.827 123.092 253.742 123.019C253.658 122.946 253.559 122.892 253.452 122.86L251.345 122.377C251.145 122.333 251.048 122.444 251.123 122.637C251.449 123.476 252.466 126.073 252.8 126.911C252.844 127.012 252.91 127.101 252.994 127.173C253.077 127.245 253.176 127.297 253.282 127.327L255.397 127.816C255.589 127.861 255.686 127.742 255.619 127.557Z" fill="#455A64"/>
<path d="M253.876 124.322C253.757 124.071 253.586 123.849 253.373 123.671C253.16 123.492 252.912 123.363 252.644 123.29C252.132 123.172 251.902 123.446 252.05 123.906C252.171 124.156 252.345 124.378 252.558 124.556C252.772 124.734 253.021 124.864 253.289 124.938C253.764 125.049 254.061 124.774 253.876 124.322Z" fill="#263238"/>
<path d="M254.699 126.481C254.579 126.23 254.406 126.008 254.192 125.83C253.978 125.652 253.728 125.522 253.46 125.45C252.955 125.331 252.718 125.605 252.866 126.058C252.985 126.31 253.158 126.534 253.372 126.713C253.586 126.892 253.836 127.023 254.105 127.097C254.61 127.208 254.877 126.934 254.699 126.481Z" fill="#263238"/>
<path d="M241.595 132.55C240.43 131.252 240.497 131.066 240.972 130.265C241.323 129.648 241.817 129.124 242.412 128.737C243.007 128.35 243.686 128.111 244.393 128.039C245.639 127.935 246.893 127.779 247.568 128.039C248.244 128.299 247.85 129.709 246.27 130.265C243.777 131.118 243.866 131.808 243.866 131.808C244.927 131.438 246.007 131.124 247.101 130.866C248.372 130.817 249.645 130.869 250.907 131.022C252.005 131.074 252.391 132.439 250.596 133.122L252.599 133.218C254.009 133.292 254.558 133.96 253.564 134.947C253.245 135.279 252.824 135.493 252.369 135.556C252.369 135.556 253.853 135.392 253.92 135.875C254.165 137.27 253.297 137.737 250.418 138.924C247.672 140.059 247.257 141.647 247.932 142.634C247.932 142.634 246.715 142.093 245.624 141.499C244.823 141.069 244.14 140.557 244.341 139.362C244.341 139.362 242.723 139.57 242.515 138.575C242.411 137.843 242.464 137.097 242.671 136.387C242.362 136.254 242.097 136.036 241.907 135.759C241.717 135.482 241.608 135.157 241.595 134.821C241.522 134.186 241.66 133.544 241.988 132.996L241.595 132.55Z" fill="#E4B88F"/>
<path d="M250.596 133.085C249.994 133.025 249.388 133.025 248.786 133.085C248.191 133.242 247.625 133.493 247.109 133.827C246.065 134.412 245.072 135.085 244.141 135.837C245.251 135.411 246.323 134.892 247.346 134.287C247.815 133.974 248.312 133.706 248.83 133.485C249.409 133.337 250.054 133.255 250.596 133.085Z" fill="#FFBDA7"/>
<path d="M252.369 135.518C251.719 135.404 251.05 135.455 250.425 135.667C249.809 135.876 249.213 136.139 248.644 136.453C247.51 137.065 246.444 137.794 245.461 138.627C246.635 138.12 247.779 137.548 248.889 136.913C249.951 136.234 251.132 135.761 252.369 135.518Z" fill="#FFBDA7"/>
<path d="M314.482 76.8115C311.707 73.1015 303.427 69.9406 297.06 72.2185C291.384 73.5838 287.77 78.8075 287.548 85.7897C288.179 94.4118 308.673 104.08 308.673 104.08C308.873 102.655 311.01 99.9545 312.679 97.1497C313.791 95.2756 314.783 93.3326 315.647 91.3324C317.235 88.5128 317.91 81.4045 314.482 76.8115Z" fill="#263238"/>
<path d="M294.263 74.8526C295.487 74.1848 296.533 74.5855 297.676 75.194C298.278 75.5729 298.963 75.8019 299.672 75.8618C300.681 75.9137 301.631 75.5205 302.64 75.5501C304.124 75.5947 305.022 76.8635 306.35 77.4422C307.552 77.9616 308.62 77.6352 309.852 77.7019C310.315 77.7607 310.786 77.7094 311.225 77.5521C311.665 77.3948 312.061 77.136 312.382 76.7967C312.954 76.2773 313.955 76.1066 314.23 75.3127C314.801 73.6432 312.746 72.6118 313.814 71.1575C315.001 69.5325 314.749 68.0485 313.132 66.8613C312.562 66.5626 312.012 66.228 311.484 65.8596C311.102 65.3728 310.882 64.7787 310.854 64.1604C310.829 63.7942 310.728 63.4371 310.557 63.1124C310.386 62.7877 310.148 62.5027 309.859 62.2757C309.338 61.9175 308.751 61.6673 308.131 61.5398C307.512 61.4124 306.873 61.4103 306.253 61.5337C305.348 61.6525 304.532 61.927 303.723 61.3557C303.159 60.955 302.825 60.2872 302.239 59.8717C300.755 58.729 297.891 58.9516 297.045 60.7621C296.793 61.3111 296.444 62.2461 295.747 62.4167C295.049 62.5874 294.181 61.6747 293.521 61.4299C292.733 61.0822 291.849 61.0192 291.02 61.2518C290.159 61.5486 290.078 61.9938 289.907 62.7803C289.85 63.237 289.63 63.6579 289.288 63.9659C288.946 64.2739 288.505 64.4483 288.045 64.4572C287.191 64.5389 285.774 64.2346 286.19 63.0474C286.063 63.411 285.737 63.7078 285.611 64.0936C285.461 64.5178 285.435 64.9761 285.537 65.4144C285.646 65.7811 285.836 66.1186 286.093 66.4023C286.35 66.686 286.667 66.9088 287.021 67.0542C286.683 67.2004 286.4 67.4486 286.211 67.7641C286.022 68.0795 285.937 68.4463 285.967 68.8128C286.004 69.3247 286.338 69.4954 286.598 69.8812C286.857 70.2671 286.664 70.5268 286.308 70.8533C285.359 71.7214 285.084 73.428 286.479 74.0216C287.154 74.3184 287.369 74.4965 287.31 75.2236C287.296 75.4924 287.359 75.7595 287.49 75.9944C287.621 76.2293 287.816 76.4225 288.052 76.5518C288.571 76.8205 289.143 76.97 289.727 76.9892C290.312 77.0085 290.893 76.8971 291.428 76.6631C292.511 76.2699 293.283 75.3869 294.263 74.8526Z" fill="#263238"/>
<path d="M308.628 106.039C308.628 104.718 308.88 98.107 308.88 98.107C308.88 98.426 309.941 99.1161 311.262 98.849C313.406 98.4335 317.68 92.0597 313.785 89.7001C312.152 88.7133 309.785 89.0917 308.694 91.7109C307.21 92.0374 306.357 90.5905 306.506 88.6539C306.75 85.5746 304.955 83.5118 302.402 81.7533C300.562 80.4919 297.832 79.0821 296.57 77.4126C293.343 80.0467 289.21 79.6831 287.666 83.6231C287.471 86.2326 287.416 88.8507 287.503 91.4661C287.562 98.0625 288.987 101.854 291.302 102.937C293.042 103.725 294.963 104.026 296.86 103.806L296.719 106.032C296.659 107.137 296.756 107.612 295.68 107.961C294.938 108.191 293.513 108.495 293.513 108.495C293.513 108.495 290.382 111.418 297.223 112.39C307.426 113.874 313.035 108.948 313.035 108.948C313.035 108.948 312.345 108.829 310.601 108.502C308.858 108.176 308.628 107.36 308.628 106.039Z" fill="#FFBDA7"/>
<path d="M299.538 95.8662L295.828 97.0089C295.892 97.2568 296.006 97.4891 296.162 97.692C296.318 97.8949 296.513 98.0642 296.736 98.1896C296.96 98.3151 297.206 98.3941 297.46 98.422C297.715 98.4499 297.972 98.4261 298.217 98.3519C298.718 98.1912 299.136 97.8415 299.383 97.3773C299.629 96.9131 299.685 96.3709 299.538 95.8662Z" fill="#FFBDA7"/>
<path d="M288.764 85.9605L291.42 84.6175C291.341 84.4402 291.226 84.2808 291.083 84.1492C290.941 84.0176 290.772 83.9164 290.589 83.8519C290.406 83.7873 290.211 83.7607 290.018 83.7737C289.824 83.7867 289.634 83.839 289.461 83.9274C289.108 84.1133 288.838 84.4274 288.709 84.8054C288.579 85.1834 288.599 85.5966 288.764 85.9605Z" fill="#263238"/>
<path d="M302.617 85.7899L299.901 84.484C299.982 84.306 300.096 84.1455 300.238 84.0118C300.381 83.8782 300.548 83.7739 300.731 83.7049C300.913 83.636 301.108 83.6038 301.303 83.6102C301.498 83.6165 301.69 83.6613 301.868 83.742C302.232 83.9217 302.513 84.2347 302.652 84.616C302.792 84.9973 302.779 85.4176 302.617 85.7899Z" fill="#263238"/>
<path d="M292.171 88.4464C292.191 88.7759 292.083 89.1004 291.868 89.3512C291.653 89.602 291.349 89.7592 291.02 89.7894C290.86 89.8057 290.698 89.7896 290.544 89.7421C290.39 89.6945 290.247 89.6165 290.124 89.5127C290.001 89.4089 289.9 89.2813 289.827 89.1377C289.754 88.994 289.711 88.8371 289.7 88.6764C289.679 88.3445 289.79 88.0179 290.008 87.7667C290.225 87.5156 290.533 87.36 290.865 87.3334C291.024 87.3192 291.184 87.3368 291.336 87.3853C291.489 87.4338 291.63 87.5122 291.751 87.6158C291.873 87.7194 291.972 87.8463 292.044 87.9889C292.116 88.1315 292.159 88.287 292.171 88.4464Z" fill="#263238"/>
<path d="M301.163 88.7429C301.182 89.072 301.073 89.3955 300.858 89.6459C300.644 89.8962 300.341 90.0539 300.013 90.086C299.853 90.1033 299.69 90.0883 299.536 90.0417C299.382 89.9951 299.238 89.9179 299.114 89.8148C298.99 89.7116 298.889 89.5846 298.815 89.4412C298.741 89.2979 298.697 89.1412 298.685 88.9804C298.666 88.6502 298.776 88.3256 298.992 88.075C299.208 87.8245 299.513 87.6676 299.842 87.6374C300.002 87.62 300.164 87.6351 300.318 87.6818C300.472 87.7284 300.615 87.8057 300.738 87.9089C300.861 88.0122 300.962 88.1393 301.036 88.2826C301.109 88.4259 301.152 88.5825 301.163 88.7429Z" fill="#263238"/>
<path opacity="0.7" d="M291.31 92.505L295.22 94.412L296.088 86.8584L291.31 92.505Z" fill="#F28F8F"/>
<path d="M296.867 103.813C301.593 103.375 306.119 101.869 307.203 99.7319C307.184 100.42 306.999 101.094 306.663 101.695C306.327 102.296 305.85 102.806 305.273 103.182C302.573 104.74 296.763 105.482 296.763 105.482L296.867 103.813Z" fill="#FFBDA7"/>
<path d="M293.995 126.978C291.68 125.249 290.515 124.581 289.432 124.277C288.349 123.973 284.557 122.392 283.103 122.051C282.183 121.821 281.812 123.29 282.984 124.277C283.889 125.019 286.241 126.073 287.273 126.636C288.304 127.2 290.33 129.656 290.33 129.656L293.995 126.978Z" fill="#FFBDA7"/>
<path d="M326.577 115.7C324.277 110.802 322.318 110.328 316.76 109.689C311.522 114.787 315.773 126.206 315.773 126.206L318.571 139.956C318.571 139.956 304.71 136.246 303.144 135.229C301.579 134.213 297.372 129.701 295.955 128.343C294.033 126.503 293.083 126.748 292.104 126.896C288.913 127.371 288.208 127.638 287.533 128.076C287.336 128.216 287.176 128.403 287.067 128.618C286.959 128.834 286.905 129.074 286.91 129.315C286.064 129.427 284.795 129.397 284.624 130.799C284.555 131.169 284.54 131.546 284.58 131.92C284.364 131.956 284.167 132.066 284.023 132.231C283.318 133.055 284.528 135.882 285.299 136.572C285.632 136.808 286.013 136.968 286.415 137.038C286.816 137.109 287.229 137.089 287.622 136.98C288.483 136.869 288.082 135.993 288.082 135.993L289.284 136.06C291.888 137.908 292.015 141.566 295.457 142.375C296.877 142.518 298.28 142.791 299.65 143.191C307.07 145.676 319.187 153.208 325.775 153.779C332.216 154.328 332.031 150.9 332.127 146.96C332.216 143.436 328.87 120.589 326.577 115.7Z" fill="#FFBDA7"/>
<path d="M318.317 138.605L318.592 139.955C321.56 140.697 324.691 142.82 325.396 144.407C324.825 141.885 323.452 139.985 318.317 138.605Z" fill="#FFBDA7"/>
<path d="M286.909 129.315L290.708 128.573L286.998 128.811C286.94 128.972 286.909 129.143 286.909 129.315Z" fill="#FFBDA7"/>
<path d="M284.579 131.912L288.95 131.341L284.572 131.4C284.552 131.57 284.555 131.743 284.579 131.912Z" fill="#FFBDA7"/>
<path d="M285.15 133.834C285.296 134.057 285.502 134.234 285.744 134.346C285.978 134.464 286.228 134.549 286.486 134.598L286.427 134.561L286.798 135.236L286.887 135.118C286.765 135.096 286.64 135.1 286.52 135.13C286.4 135.159 286.287 135.213 286.189 135.288C286.01 135.438 285.878 135.636 285.811 135.86C285.917 135.666 286.07 135.503 286.256 135.385C286.435 135.28 286.645 135.24 286.85 135.273L287.02 135.311L286.939 135.155C286.82 134.932 286.701 134.702 286.575 134.48V134.442H286.538C286.284 134.402 286.036 134.335 285.796 134.242C285.553 134.155 285.333 134.016 285.15 133.834Z" fill="#FFBDA7"/>
<path d="M286.315 134.398C286.84 134.466 287.367 134.503 287.896 134.509C287.987 134.837 288.176 135.13 288.438 135.348C288.704 135.612 288.987 135.86 289.283 136.09L288.081 136.023C287.918 135.81 287.711 135.634 287.474 135.506C287.238 135.378 286.977 135.301 286.709 135.281L286.315 134.398Z" fill="#FFBDA7"/>
<path d="M315.409 91.0059C316.856 92.9425 318.088 96.0589 318.377 101.104C318.577 104.881 320.44 111.693 322.377 113.051C318.377 113.051 312.975 117.399 313.287 119.462C312.055 116.167 311.529 107.033 312.449 101.898C312.971 99.2039 313.308 96.4769 313.458 93.7364L315.409 91.0059Z" fill="#4B589B"/>
<path opacity="0.3" d="M315.409 91.0059C316.856 92.9425 318.088 96.0589 318.377 101.104C318.577 104.881 320.44 111.693 322.377 113.051C318.377 113.051 312.975 117.399 313.287 119.462C312.055 116.167 311.529 107.033 312.449 101.898C312.971 99.2039 313.308 96.4769 313.458 93.7364L315.409 91.0059Z" fill="black"/>
<path d="M311.262 98.8564C312.508 96.1036 310.164 86.0495 306.513 82.2801C297.698 73.1683 292.615 77.5536 290.404 79.6386C288.783 81.3063 287.776 83.475 287.547 85.7898C287.273 80.9519 288.289 76.2031 293.699 73.428C300.673 69.8368 307.44 73.339 310.92 76.5815C316.359 81.6568 316.575 87.6299 315.61 91.3325C315.61 91.3325 312.538 97.5727 311.262 98.8564Z" fill="#4B589B"/>
<path opacity="0.25" d="M311.262 98.8564C312.508 96.1036 310.164 86.0495 306.513 82.2801C297.698 73.1683 292.615 77.5536 290.404 79.6386C288.783 81.3063 287.776 83.475 287.547 85.7898C287.273 80.9519 288.289 76.2031 293.699 73.428C300.673 69.8368 307.44 73.339 310.92 76.5815C316.359 81.6568 316.575 87.6299 315.61 91.3325C315.61 91.3325 312.538 97.5727 311.262 98.8564Z" fill="black"/>
<path d="M311.262 98.8564C310.15 100.261 309.28 101.841 308.687 103.531C307.455 106.573 303.901 114.149 304.235 122.311C304.34 126.69 304.882 131.047 305.852 135.318C306.146 133.151 306.87 131.065 307.982 129.182C310.253 125.613 312.946 126.273 315.595 122.007C313.718 117.05 312.85 114.038 313.599 105.201C314.348 96.3633 314.178 94.2041 314.178 94.2041C314.178 94.2041 312.961 96.3262 311.262 98.8564Z" fill="#4B589B"/>
<path opacity="0.38" d="M311.262 98.8564C310.15 100.261 309.28 101.841 308.687 103.531C307.455 106.573 303.901 114.149 304.235 122.311C304.34 126.69 304.882 131.047 305.852 135.318C306.146 133.151 306.87 131.065 307.982 129.182C310.253 125.613 312.946 126.273 315.595 122.007C313.718 117.05 312.85 114.038 313.599 105.201C314.348 96.3633 314.178 94.2041 314.178 94.2041C314.178 94.2041 312.961 96.3262 311.262 98.8564Z" fill="black"/>
<path d="M133.56 346.081C130.67 345.351 115.24 336.571 113.67 335.501C112.1 334.431 109 332.221 109 328.411C109 325.041 109.35 293.261 112.11 277.911C113.017 273.136 114.891 268.597 117.616 264.573C120.342 260.549 123.862 257.125 127.96 254.511C137.56 248.561 147.21 244.251 155.34 247.631C163.47 251.011 170.89 257.221 174.09 264.721C177.29 272.221 179.48 287.241 179.71 293.051C179.94 298.861 179.71 318.781 179.71 320.551C179.71 322.321 179.39 324.621 169.86 330.551C160.33 336.481 147.17 343.551 143.1 345.381C140.073 346.612 136.735 346.857 133.56 346.081Z" fill="#7983B0"/>
<path d="M131.18 258.642C130.3 259.142 127.76 257.892 127.38 257.262C127 256.632 126.9 251.182 128.8 248.172C130.7 245.162 142.55 239.612 145.48 240.022C146.578 240.2 147.627 240.601 148.564 241.199C149.501 241.798 150.306 242.581 150.93 243.502C151.29 244.272 151.69 249.342 150.93 250.382C150.17 251.422 147.46 249.822 147.22 249.382C146.98 248.942 148.11 245.232 146.22 244.462C144.48 243.762 136.22 247.272 132.86 250.092C131.4 251.322 131.47 254.372 131.54 255.882C131.61 257.392 131.62 258.382 131.18 258.642Z" fill="#4B589B"/>
<path d="M128.8 294.422C130.5 277.912 133.56 268.272 149.71 261.082C165.86 253.892 172.13 260.012 174.42 265.522C177.42 273.242 179.49 287.442 179.71 293.052C179.94 298.862 179.71 318.782 179.71 320.552C179.71 322.322 179.39 324.622 169.86 330.552C160.33 336.482 147.17 343.552 143.1 345.382C140.076 346.622 136.738 346.878 133.56 346.112C132.922 345.917 132.3 345.673 131.7 345.382C126.67 338.922 127.24 309.502 128.8 294.422Z" fill="#4B589B"/>
<path d="M166.45 254.632C162.23 252.162 155.31 250.532 145.15 255.062C126.99 263.152 122.38 273.282 120.55 291.062C120.22 294.322 119.73 298.202 119.55 302.372L118.05 301.462C118.26 296.962 118.7 293.112 119.05 289.632C121.05 271.722 126.42 261.822 143.77 254.092C153.38 249.812 159.69 250.372 163.87 252.482C164.767 253.152 165.629 253.87 166.45 254.632Z" fill="#8CAEBF"/>
<path d="M167.08 255.092C162.87 252.622 155.94 250.992 145.79 255.522C127.62 263.612 123.01 273.742 121.18 291.522C120.85 294.782 120.36 298.662 120.18 302.832L118.68 301.922C118.89 297.422 119.33 293.572 119.68 290.092C121.68 272.182 127.05 262.272 144.4 254.552C154.01 250.272 160.49 250.982 164.67 253.082C165.51 253.706 166.315 254.377 167.08 255.092Z" fill="#4B589B"/>
<path d="M161.2 270.791L155.71 267.651C155.439 267.499 155.119 267.46 154.819 267.543C154.52 267.625 154.265 267.822 154.11 268.091L148.48 277.881C148.323 278.151 148.279 278.471 148.358 278.773C148.436 279.075 148.631 279.333 148.9 279.491L154.32 282.651C154.589 282.808 154.91 282.852 155.211 282.774C155.513 282.695 155.771 282.5 155.93 282.231L161.63 272.381C161.708 272.249 161.759 272.103 161.779 271.951C161.8 271.799 161.79 271.644 161.75 271.496C161.71 271.348 161.641 271.209 161.546 271.088C161.451 270.967 161.334 270.866 161.2 270.791Z" fill="#8CAEBF"/>
<path d="M155.31 281.531L160.72 272.201C160.759 272.135 160.784 272.061 160.794 271.984C160.804 271.907 160.799 271.83 160.778 271.755C160.758 271.68 160.723 271.611 160.675 271.55C160.627 271.489 160.568 271.439 160.5 271.401L155.5 268.561C155.364 268.485 155.204 268.466 155.055 268.507C154.905 268.548 154.777 268.647 154.7 268.781L149.35 278.071C149.274 278.207 149.254 278.367 149.296 278.517C149.337 278.666 149.435 278.794 149.57 278.871L154.48 281.741C154.548 281.784 154.623 281.813 154.702 281.825C154.782 281.838 154.862 281.834 154.94 281.815C155.018 281.795 155.091 281.76 155.154 281.711C155.218 281.662 155.271 281.601 155.31 281.531Z" fill="#4B589B"/>
<path d="M156.47 277.071C156.614 276.984 156.736 276.865 156.827 276.723C156.917 276.58 156.973 276.419 156.99 276.251V271.781C156.99 271.491 156.76 271.401 156.47 271.561C156.326 271.649 156.204 271.768 156.114 271.91C156.024 272.053 155.968 272.214 155.95 272.381V276.851C155.95 277.141 156.18 277.231 156.47 277.071Z" fill="#7983B0"/>
<path d="M153.57 278.752C153.714 278.662 153.835 278.54 153.925 278.397C154.015 278.253 154.072 278.09 154.09 277.922V273.462C154.09 273.172 153.85 273.072 153.57 273.242C153.425 273.328 153.302 273.447 153.211 273.589C153.121 273.732 153.066 273.894 153.05 274.062V278.532C153.08 278.812 153.28 278.912 153.57 278.752Z" fill="#7983B0"/>
<path d="M136.28 308.381C136.28 308.381 139 310.621 140.96 319.061C142.92 327.501 144.1 338.131 141.96 339.411C139.82 340.691 136.73 338.011 135.96 337.091C134.38 335.201 134.77 315.141 136.28 308.381Z" fill="#8CAEBF"/>
<path d="M136.28 308.382C136.28 308.382 139 310.622 140.96 319.062C142.92 327.502 144.1 338.132 141.96 339.412L174.96 319.952C177.12 318.672 177.65 307.502 175.7 299.062C174.41 293.512 172.04 290.872 170.58 289.712C170.245 289.453 169.841 289.3 169.418 289.274C168.996 289.247 168.575 289.347 168.21 289.562L136.28 308.382Z" fill="#7983B0"/>
<path d="M169.9 291.001C171.48 291.781 174.16 293.931 175.37 299.641C175.574 300.419 175.556 301.237 175.317 302.005C175.078 302.772 174.629 303.457 174.02 303.981C172.92 304.761 149.3 318.191 146.17 320.061C143.47 321.671 142.07 319.531 141.48 318.191C140.48 315.811 139.62 313.961 138.88 312.541C138.315 310.993 137.433 309.579 136.29 308.391L167.76 291.091C168.082 290.902 168.446 290.795 168.819 290.779C169.192 290.764 169.563 290.84 169.9 291.001Z" fill="#8CAEBF"/>
<path d="M120.57 303.761C121.027 305.48 121.324 307.238 121.46 309.011C121.46 309.371 120.97 309.561 120.83 309.561C119.686 309.331 118.627 308.792 117.77 308.001C117.93 306.49 118.204 304.992 118.59 303.521L120.57 303.761Z" fill="#8CAEBF"/>
<path d="M121.59 302.351C121.59 301.974 121.478 301.604 121.268 301.29C121.058 300.976 120.759 300.731 120.41 300.587C120.061 300.442 119.677 300.404 119.307 300.478C118.936 300.552 118.596 300.734 118.329 301.001C118.062 301.268 117.88 301.608 117.806 301.979C117.733 302.349 117.77 302.733 117.915 303.082C118.059 303.431 118.304 303.73 118.618 303.94C118.932 304.149 119.302 304.261 119.68 304.261C120.186 304.261 120.672 304.06 121.03 303.702C121.388 303.344 121.59 302.858 121.59 302.351Z" fill="#8CAEBF"/>
<path d="M145.48 244.372C147.57 244.172 149.54 244.372 150.04 246.462C150.54 248.552 150.36 250.462 150.04 250.722C148.982 250.587 147.993 250.118 147.22 249.382C146.98 248.932 148.11 245.232 146.22 244.462C145.989 244.385 145.744 244.354 145.5 244.372H145.48Z" fill="#8CAEBF"/>
<path d="M168.41 289.451C168.734 289.261 169.099 289.152 169.474 289.137C169.849 289.121 170.222 289.198 170.56 289.361C172.14 290.141 174.82 292.291 176.03 298.001C176.233 298.779 176.214 299.597 175.976 300.364C175.737 301.131 175.288 301.816 174.68 302.341C173.58 303.121 149.97 316.551 146.84 318.421C144.14 320.031 142.73 317.891 142.14 316.551C138.87 309.711 136.28 308.381 136.28 308.381L168.41 289.451Z" fill="#7983B0"/>
<path d="M297.736 96.305L293.018 97.3808C293.073 97.6958 293.192 97.9963 293.367 98.2641C293.542 98.532 293.769 98.7617 294.035 98.9394C294.301 99.1171 294.6 99.2391 294.914 99.2982C295.229 99.3572 295.552 99.3519 295.864 99.2827C296.502 99.1266 297.053 98.7285 297.403 98.1728C297.752 97.617 297.871 96.9472 297.736 96.305Z" fill="#B16668"/>
<path d="M295.864 99.2825C295.446 99.3764 295.011 99.3514 294.606 99.2103C294.706 98.6519 295.016 98.1533 295.473 97.818C295.931 97.4827 296.5 97.3367 297.062 97.4102C297.269 97.4399 297.471 97.5017 297.659 97.5935C297.535 98.0082 297.304 98.3828 296.989 98.6794C296.673 98.976 296.285 99.1841 295.864 99.2825Z" fill="#F28F8F"/>
<path d="M176.001 117.796V159.139C176.001 159.568 176.3 159.739 176.665 159.525L233.021 126.992C233.217 126.864 233.379 126.692 233.496 126.49C233.613 126.288 233.68 126.061 233.692 125.828V84.4777C233.692 84.0494 233.393 83.878 233.021 84.0922L176.665 116.604C176.467 116.736 176.304 116.913 176.189 117.12C176.074 117.328 176.009 117.559 176.001 117.796Z" fill="#D3D3D3"/>
<path d="M233.021 84.0992L176.665 116.604C176.471 116.733 176.311 116.906 176.195 117.108C176.08 117.309 176.013 117.535 176.001 117.768V120.702L233.692 87.3333V84.4776C233.692 84.0564 233.393 83.885 233.021 84.0992Z" fill="#5667BC"/>
<path d="M178.429 116.725C178.234 116.849 178.071 117.018 177.955 117.218C177.84 117.419 177.775 117.644 177.765 117.875C177.765 118.296 178.058 118.467 178.429 118.253C178.622 118.13 178.783 117.961 178.897 117.762C179.012 117.564 179.076 117.34 179.086 117.111C179.086 116.69 178.793 116.518 178.429 116.725Z" fill="#FAFAFA"/>
<path d="M181.047 115.212C180.855 115.339 180.694 115.509 180.579 115.708C180.464 115.908 180.397 116.132 180.383 116.362C180.383 116.783 180.683 116.954 181.047 116.74C181.24 116.616 181.401 116.448 181.515 116.249C181.63 116.05 181.694 115.827 181.704 115.598C181.704 115.177 181.411 115.005 181.047 115.212Z" fill="#FAFAFA"/>
<path d="M183.677 113.699C183.485 113.826 183.326 113.996 183.212 114.195C183.098 114.395 183.032 114.618 183.02 114.848C183.02 115.269 183.313 115.441 183.677 115.226C183.871 115.104 184.033 114.936 184.149 114.737C184.265 114.538 184.33 114.314 184.341 114.084C184.334 113.663 184.034 113.492 183.677 113.699Z" fill="#FAFAFA"/>
<path d="M222.613 97.5562C225.305 95.9999 227.482 97.2635 227.482 100.362C227.392 102.051 226.904 103.696 226.058 105.161C225.212 106.626 224.032 107.871 222.613 108.793C219.929 110.343 217.752 109.086 217.752 105.98C217.844 104.293 218.332 102.651 219.176 101.188C220.021 99.724 221.198 98.4799 222.613 97.5562Z" fill="white"/>
<path d="M222.942 99.7912C223.813 99.2843 224.52 99.6912 224.52 100.705C224.489 101.253 224.331 101.785 224.057 102.26C223.783 102.735 223.401 103.139 222.942 103.439C222.071 103.939 221.364 103.532 221.364 102.525C221.393 101.978 221.551 101.445 221.825 100.969C222.1 100.494 222.482 100.091 222.942 99.7912Z" fill="#263238"/>
<path d="M225.689 105.367C225.689 103.71 224.533 103.039 223.098 103.867L222.206 104.389C221.449 104.879 220.819 105.541 220.367 106.322C219.915 107.102 219.655 107.979 219.607 108.879V109.322C220.117 109.453 220.648 109.473 221.167 109.382C221.685 109.291 222.178 109.09 222.612 108.794C223.858 108.029 224.91 106.988 225.689 105.752V105.367Z" fill="#263238"/>
<path d="M213.702 103.282L206.128 107.658C205.893 107.804 205.697 108.002 205.554 108.238C205.411 108.474 205.327 108.74 205.307 109.015C205.307 109.508 205.671 109.693 206.128 109.429L213.702 105.053C213.938 104.909 214.135 104.71 214.278 104.474C214.421 104.238 214.505 103.971 214.523 103.696C214.523 103.204 214.159 103.039 213.702 103.282Z" fill="white"/>
<path d="M213.702 107.623L201.359 114.762C201.126 114.908 200.93 115.107 200.789 115.343C200.648 115.579 200.564 115.845 200.545 116.119C200.545 116.611 200.909 116.833 201.359 116.533L213.702 109.394C213.938 109.25 214.135 109.051 214.278 108.815C214.421 108.579 214.505 108.312 214.523 108.037C214.523 107.545 214.159 107.359 213.702 107.623Z" fill="white"/>
<path d="M213.702 110.892L201.359 118.032C201.127 118.179 200.933 118.378 200.791 118.613C200.65 118.849 200.566 119.114 200.545 119.388C200.545 119.881 200.909 120.102 201.359 119.802L213.702 112.663C213.937 112.516 214.134 112.316 214.276 112.079C214.419 111.843 214.504 111.575 214.523 111.299C214.523 110.814 214.159 110.628 213.702 110.892Z" fill="white"/>
<path d="M179.041 148.809V153.6C179.041 154.035 179.341 154.221 179.719 153.999L193.284 146.182L194.49 145.468C194.695 145.34 194.867 145.165 194.991 144.958C195.115 144.751 195.188 144.517 195.204 144.276V139.478C195.204 139.043 194.897 138.864 194.49 139.078L179.733 147.603C179.53 147.734 179.361 147.912 179.24 148.122C179.12 148.332 179.052 148.567 179.041 148.809Z" fill="white"/>
<path d="M179.041 123.522V144.283C179.041 144.725 179.341 144.904 179.719 144.682L193.284 136.829L194.49 136.115C194.695 135.989 194.867 135.816 194.991 135.61C195.115 135.403 195.188 135.171 195.204 134.93V114.212C195.204 113.77 194.897 113.598 194.49 113.813L179.719 122.315C179.518 122.448 179.352 122.627 179.234 122.837C179.116 123.046 179.05 123.281 179.041 123.522Z" fill="white"/>
<path d="M179.042 136.865V144.283C179.042 144.725 179.341 144.904 179.72 144.682L193.284 136.829L189.222 128.262L186.652 133.845L182.554 125.549L179.042 136.865Z" fill="#263238"/>
<path d="M229.621 108.43L199.38 125.885C199.101 126.042 198.864 126.262 198.685 126.528C198.507 126.793 198.393 127.096 198.352 127.413C198.352 127.927 198.809 128.077 199.38 127.748L229.593 110.3C229.88 110.145 230.125 109.923 230.309 109.654C230.493 109.384 230.609 109.075 230.649 108.751C230.649 108.251 230.193 108.094 229.621 108.43Z" fill="white"/>
<path d="M229.621 113.099L199.38 130.54C199.101 130.697 198.864 130.917 198.685 131.182C198.507 131.447 198.393 131.751 198.352 132.068C198.352 132.582 198.809 132.732 199.38 132.403L229.621 114.962C229.9 114.805 230.138 114.585 230.316 114.32C230.494 114.055 230.609 113.751 230.649 113.434C230.649 112.92 230.193 112.77 229.621 113.099Z" fill="white"/>
<path d="M229.62 117.768L199.379 135.216C199.101 135.372 198.863 135.591 198.685 135.855C198.506 136.119 198.392 136.421 198.351 136.737C198.351 137.258 198.808 137.408 199.379 137.079L229.592 119.631C229.87 119.474 230.108 119.254 230.286 118.989C230.465 118.724 230.579 118.42 230.62 118.103C230.648 117.589 230.191 117.439 229.62 117.768Z" fill="white"/>
<path d="M229.62 122.444L199.379 139.885C199.1 140.042 198.863 140.262 198.684 140.527C198.506 140.792 198.391 141.095 198.351 141.412C198.351 141.926 198.808 142.076 199.379 141.748L229.592 124.307C229.87 124.15 230.108 123.93 230.286 123.665C230.465 123.399 230.579 123.096 230.62 122.779C230.648 122.265 230.191 122.115 229.62 122.444Z" fill="white"/>
<defs>
<linearGradient id="paint0_linear_598_872" x1="46.1933" y1="172.739" x2="183.193" y2="441.739" gradientUnits="userSpaceOnUse">
<stop stop-color="#99A8FB"/>
<stop offset="1" stop-color="#B3DAFF" stop-opacity="0"/>
</linearGradient>
</defs>
</svg>
