<svg width="28" height="36" viewBox="0 0 28 36" fill="none" xmlns="http://www.w3.org/2000/svg">
<path d="M27.4076 8.44009L18.9746 0H1.86062C1.10944 0 0.5 0.609444 0.5 1.36062V25.5045H27.4076V8.44009Z" fill="#EDEFF5"/>
<path d="M18.9743 7.07947C18.9743 7.83064 19.5837 8.44008 20.3349 8.44008H27.4144L18.9743 0V7.07947Z" fill="#CFD3DF"/>
<path d="M0.506561 25.4979V34.6395C0.506561 35.3907 1.11601 36.0001 1.86718 36.0001H26.0536C26.8048 36.0001 27.4142 35.3907 27.4142 34.6395V25.4979H0.506561Z" fill="#F86A56"/>
<path d="M7.05623 23.9518C6.62395 23.9518 6.20585 23.7889 5.82317 23.47C5.1783 22.9314 5.12869 22.3361 5.19247 21.9322C5.50428 20.1109 8.89165 18.4456 10.8617 17.6236C11.9318 14.9448 12.8601 11.7913 13.4341 9.42441C12.2861 6.96538 11.8822 5.22917 12.2365 4.24414C12.4137 3.75517 12.7751 3.43627 13.2853 3.32289L13.3562 3.30872L13.427 3.3158C13.4837 3.32289 13.9869 3.40084 14.3979 3.95359C14.9294 4.67642 15.0499 5.8457 14.7522 7.43309C14.6672 7.88663 14.5255 8.53859 14.3412 9.31811C15.39 11.5008 16.864 13.9102 18.0687 15.5826C19.075 15.4409 20.0317 15.3913 20.8396 15.4763C22.349 15.6322 22.6679 16.2913 22.7246 16.674C22.8096 17.2338 22.3986 17.8149 21.6971 18.1125C20.7262 18.5235 19.1388 18.4172 17.8491 16.7448C17.7924 16.674 17.7357 16.596 17.679 16.5181C16.0207 16.7944 14.0932 17.3188 12.1373 18.0487C11.9318 18.1267 11.7334 18.2047 11.5349 18.2826C10.2097 21.5282 8.91291 23.392 7.67276 23.8385C7.47434 23.9164 7.26174 23.9518 7.05623 23.9518ZM10.3869 18.7716C7.57355 20.0401 6.1775 21.2944 6.04994 22.081C6.0216 22.2511 6.0216 22.5133 6.38301 22.8109C6.71608 23.0873 7.03497 23.1582 7.3893 23.0306C8.37433 22.6763 9.42314 20.9755 10.3869 18.7716ZM18.6782 16.3834C19.6349 17.5102 20.712 17.6023 21.364 17.3188C21.7041 17.1771 21.8955 16.9362 21.8742 16.8015C21.853 16.6598 21.5341 16.4188 20.7545 16.3409C20.1734 16.2842 19.4719 16.2984 18.6782 16.3834ZM14.0294 10.615C13.5971 12.2803 13.0089 14.2858 12.3215 16.2275C12.2011 16.5606 12.0877 16.8795 11.9672 17.1913C13.505 16.6244 15.3617 16.0716 17.1262 15.7385C16.1766 14.385 15.0073 12.5071 14.0294 10.615ZM13.3916 4.20162C13.2286 4.25831 13.1223 4.36461 13.0585 4.54886C12.8105 5.22917 13.1365 6.51184 13.7672 8.02836C13.8239 7.75907 13.8735 7.51104 13.916 7.28427C14.242 5.51972 13.9302 4.76146 13.7105 4.47091C13.59 4.30792 13.4625 4.22997 13.3916 4.20162Z" fill="#F86A56"/>
<path d="M20.3635 30.2034H18.7407V28.5522H20.3635C20.6682 28.5522 20.9162 28.3042 20.9162 27.9995C20.9162 27.6947 20.6682 27.4467 20.3635 27.4467H18.195C17.8903 27.4467 17.6422 27.6947 17.6422 27.9995V33.4986C17.6422 33.8034 17.8903 34.0514 18.195 34.0514C18.4997 34.0514 18.7477 33.8034 18.7477 33.4986V31.3018H20.3706C20.6753 31.3018 20.9233 31.0538 20.9233 30.7491C20.9162 30.4443 20.6682 30.2034 20.3635 30.2034Z" fill="#EDEFF5"/>
<path d="M8.66968 27.4545H7.55C7.24528 27.4545 6.99725 27.7026 6.99725 28.0073V33.5064C6.99725 33.8112 7.24528 34.0592 7.55 34.0592C7.85473 34.0592 8.10275 33.8112 8.10275 33.5064V31.3096H8.66968C9.73266 31.3096 10.5972 30.4451 10.5972 29.3821C10.5972 28.3191 9.73266 27.4545 8.66968 27.4545ZM8.66968 30.2041H8.10275V28.5529H8.66968C9.12322 28.5529 9.49172 28.9214 9.49172 29.375C9.49172 29.8285 9.12322 30.2041 8.66968 30.2041Z" fill="#EDEFF5"/>
<path d="M13.4163 27.4537H11.9706C11.6659 27.4537 11.4179 27.7017 11.4179 28.0064V33.5056C11.4179 33.8103 11.6659 34.0583 11.9706 34.0583H13.4163C15.2375 34.0583 16.7186 32.5773 16.7186 30.756C16.7186 28.9277 15.2375 27.4537 13.4163 27.4537ZM13.4163 32.9458H12.5234V28.545H13.4163C14.6281 28.545 15.6131 29.53 15.6131 30.7418C15.6202 31.9607 14.6281 32.9458 13.4163 32.9458Z" fill="#EDEFF5"/>
</svg>
