<svg width="40" height="40" viewBox="0 0 40 40" fill="none" xmlns="http://www.w3.org/2000/svg">
<circle cx="20" cy="20" r="20" fill="#0057E4"/>
<g clip-path="url(#clip0_598_2200)">
<path d="M19.2883 11.6155L26.8179 19.1451C26.953 19.2802 27.0495 19.425 27.1075 19.5795C27.1654 19.7339 27.1943 19.898 27.1943 20.0718C27.1943 20.2455 27.1654 20.4096 27.1075 20.5641C27.0495 20.7185 26.953 20.8633 26.8179 20.9985L19.2883 28.528C19.0373 28.7597 18.733 28.8806 18.3755 28.8906C18.0187 28.8999 17.7052 28.779 17.4349 28.528C17.1646 28.2771 17.0244 27.9682 17.0144 27.6013C17.0051 27.2345 17.1356 26.9256 17.4059 26.6746L22.6766 21.4039H10.3107C9.94393 21.4039 9.63 21.2734 9.36898 21.0124C9.10872 20.7521 8.9786 20.4386 8.9786 20.0718C8.9786 19.7049 9.10872 19.3914 9.36898 19.1312C9.63 18.8701 9.94393 18.7396 10.3107 18.7396H22.6766L17.4059 13.4689C17.1549 13.2372 17.0244 12.933 17.0144 12.5561C17.0051 12.18 17.1356 11.8665 17.4059 11.6155C17.6569 11.3645 17.9658 11.239 18.3326 11.239C18.6995 11.239 19.018 11.3645 19.2883 11.6155Z" fill="white"/>
</g>
<defs>
<clipPath id="clip0_598_2200">
<rect width="24" height="24" fill="white" transform="translate(9 8)"/>
</clipPath>
</defs>
</svg>
