<svg width="18" height="19" viewBox="0 0 18 19" fill="none" xmlns="http://www.w3.org/2000/svg">
<path d="M12.755 11.7549H11.965L11.685 11.4849C12.665 10.3449 13.255 8.86488 13.255 7.25488C13.255 3.66488 10.345 0.754883 6.755 0.754883C3.165 0.754883 0.255005 3.66488 0.255005 7.25488C0.255005 10.8449 3.165 13.7549 6.755 13.7549C8.365 13.7549 9.845 13.1649 10.985 12.1849L11.255 12.4649V13.2549L16.255 18.2449L17.745 16.7549L12.755 11.7549ZM6.755 11.7549C4.26501 11.7549 2.255 9.74488 2.255 7.25488C2.255 4.76488 4.26501 2.75488 6.755 2.75488C9.245 2.75488 11.255 4.76488 11.255 7.25488C11.255 9.74488 9.245 11.7549 6.755 11.7549Z" fill="black"/>
</svg>
