<svg width="87" height="99" viewBox="0 0 87 99" fill="none" xmlns="http://www.w3.org/2000/svg">
<path d="M64.7402 12.4814L53.4989 5.98152H53.4544L53.3728 5.937C47.9191 2.85028 40.4175 3.32518 32.1368 8.11108C15.4714 17.7571 1.9596 41.1301 1.9596 60.3775C1.9596 69.9419 5.2986 76.7015 10.7004 79.855L10.7894 79.8996H10.8265L22.0752 86.3995L23.9896 81.3465C26.922 80.5957 29.7327 79.4315 32.3371 77.8887C49.0024 68.2427 62.5142 44.8623 62.5142 25.6223C62.5468 22.6147 62.1571 19.6175 61.3567 16.7183L64.7402 12.4814Z" fill="#2370FF"/>
<path opacity="0.4" d="M64.7402 12.4814L53.4989 5.98152H53.4544L53.3728 5.937C47.9191 2.85028 40.4175 3.32518 32.1368 8.11108C15.4714 17.7571 1.9596 41.1301 1.9596 60.3775C1.9596 69.9419 5.2986 76.7015 10.7004 79.855L10.7894 79.8996H10.8265L22.0752 86.3995L23.9896 81.3465C26.922 80.5957 29.7327 79.4315 32.3371 77.8887C49.0024 68.2427 62.5142 44.8623 62.5142 25.6223C62.5468 22.6147 62.1571 19.6175 61.3567 16.7183L64.7402 12.4814Z" fill="white"/>
<path opacity="0.4" d="M2.19713 55.6509C2.02435 57.2131 1.93519 58.7834 1.93003 60.3552C1.93003 69.9195 5.26902 76.6792 10.6708 79.8327L10.7598 79.8772H10.7969L22.0456 86.3771L23.96 81.3241C24.5907 81.1683 25.2288 80.9828 25.8669 80.775L28.7236 70.9361L2.19713 55.6509Z" fill="#2370FF"/>
<path d="M22.1604 86.4616C10.3744 79.657 10.3741 57.5923 22.1598 37.1789C33.9456 16.7654 53.0542 5.73333 64.8402 12.538C76.6262 19.3426 76.6264 41.4073 64.8407 61.8207C53.055 82.2342 33.9464 93.2663 22.1604 86.4616Z" fill="#2370FF"/>
<path opacity="0.6" d="M22.1604 86.4616C10.3744 79.657 10.3741 57.5923 22.1598 37.1789C33.9456 16.7654 53.0542 5.73333 64.8402 12.538C76.6262 19.3426 76.6264 41.4073 64.8407 61.8207C53.055 82.2342 33.9464 93.2663 22.1604 86.4616Z" fill="white"/>
<path d="M66.4018 20.7173C62.6918 14.2322 54.9899 13.505 45.8781 18.7584C30.8081 27.462 18.0754 49.5143 18.0754 66.9216C18.0754 71.4775 18.9509 75.4101 20.613 78.2816C24.323 84.7593 32.025 85.4864 41.1293 80.2331C56.2067 71.5294 68.9395 49.4772 68.9395 32.0699C68.9395 27.514 68.0639 23.5814 66.4018 20.7173Z" fill="#2370FF"/>
<path d="M66.8255 20.9547C62.5812 14.1876 54.3747 13.1414 44.8623 18.1722C29.117 26.49 16.3843 48.5422 17.0521 66.328C17.2302 70.9877 18.3135 75.039 20.1908 78.0367C24.435 84.8038 32.6415 85.85 42.154 80.8192C57.8992 72.5088 70.6319 50.4566 69.9641 32.6634C69.7861 28.0037 68.7027 23.9524 66.8255 20.9547Z" fill="#2370FF"/>
<path opacity="0.4" d="M66.8255 20.9547C62.5812 14.1876 54.3747 13.1414 44.8623 18.1722C29.117 26.49 16.3843 48.5422 17.0521 66.328C17.2302 70.9877 18.3135 75.039 20.1908 78.0367C24.435 84.8038 32.6415 85.85 42.154 80.8192C57.8992 72.5088 70.6319 50.4566 69.9641 32.6634C69.7861 28.0037 68.7027 23.9524 66.8255 20.9547Z" fill="white"/>
<path d="M39.0892 79.098C33.0345 82.296 27.5066 83.0306 23.1956 81.3982C22.0047 80.4625 20.9875 79.3247 20.1905 78.0369C18.3132 75.0689 17.2225 70.9879 17.0518 66.3282C16.384 48.5202 29.1168 26.4902 44.862 18.1724C50.9167 14.9744 56.4372 14.2398 60.7482 15.8722C61.9294 16.8074 62.9344 17.9456 63.7162 19.2334C65.5935 22.2014 66.6842 26.275 66.8549 30.9422C67.5598 48.7279 54.8271 70.7802 39.0892 79.098Z" fill="#FAFAFA"/>
<path d="M41.6564 22.5503C41.4669 22.6815 41.3105 22.8551 41.1997 23.0573C41.089 23.2596 41.0269 23.4848 41.0183 23.7152V26.98C41.0183 27.4178 41.3002 27.6107 41.6564 27.4029C41.8436 27.2716 41.9979 27.0988 42.1073 26.898C42.2167 26.6973 42.2783 26.4739 42.2871 26.2454V22.9732C42.2648 22.5354 42.0051 22.3499 41.6564 22.5503Z" fill="#2370FF"/>
<path d="M63.3378 35.0753C63.3186 35.3032 63.247 35.5236 63.1285 35.7192C63.0101 35.9149 62.8481 36.0805 62.6551 36.2032L59.8207 37.843C59.4423 38.0582 59.138 37.9098 59.1455 37.5017C59.1635 37.2725 59.2346 37.0507 59.3531 36.8536C59.4715 36.6566 59.6342 36.4898 59.8281 36.3664L62.6625 34.734C63.041 34.5114 63.3452 34.6672 63.3378 35.0753Z" fill="#2370FF"/>
<path d="M19.1816 61.4828C19.2008 61.2549 19.2724 61.0345 19.3908 60.8389C19.5092 60.6432 19.6712 60.4776 19.8642 60.3549L22.6987 58.7151C23.0771 58.4999 23.3813 58.6483 23.3739 59.0564C23.3558 59.2856 23.2847 59.5074 23.1663 59.7044C23.0478 59.9014 22.8852 60.0682 22.6912 60.1917L19.8642 61.8241C19.4858 62.0467 19.1816 61.8909 19.1816 61.4828Z" fill="#2370FF"/>
<path d="M40.8628 74.0004C41.0514 73.8699 41.2072 73.6975 41.3179 73.4967C41.4286 73.2958 41.4913 73.0721 41.501 72.8429V69.5707C41.501 69.1403 41.219 68.9474 40.8628 69.1552C40.6756 69.2865 40.5213 69.4593 40.4119 69.6601C40.3025 69.8609 40.241 70.0842 40.2322 70.3127V73.5849C40.2247 74.0227 40.5141 74.2082 40.8628 74.0004Z" fill="#2370FF"/>
<path d="M42.9404 50.6722L26.9428 48.3794H44.1943L42.9404 50.6722Z" fill="#2370FF"/>
<path d="M43.5564 30.8014C43.5564 30.8014 45.0404 44.5507 45.5005 47.7338C45.5467 47.9182 45.5692 48.1077 45.5673 48.2977C45.5294 49.0132 45.3227 49.7095 44.9642 50.3298C44.6057 50.9501 44.1055 51.4768 43.5045 51.8668C43.2923 52.0203 43.0432 52.1149 42.7825 52.1409C42.5219 52.167 42.259 52.1236 42.0205 52.0152L40.9223 51.3771C40.706 51.2312 40.5335 51.029 40.4237 50.7924C40.3138 50.5557 40.2707 50.2934 40.2991 50.034C40.1136 46.747 41.3379 30.9275 41.3379 30.9275L42.4138 30.1855L43.5564 30.8014Z" fill="#37474F"/>
<path d="M45.5664 48.3051C45.5285 49.0205 45.3218 49.7168 44.9633 50.3371C44.6048 50.9574 44.1046 51.4841 43.5036 51.8741C42.3684 52.5345 41.4483 52.0002 41.4483 50.6869C41.2554 47.3924 42.4797 31.5804 42.4797 31.5804L43.5556 30.8384C43.5556 30.8384 45.559 46.9843 45.5664 48.3051Z" fill="#455A64"/>
<path d="M44.4395 48.9579C44.4225 49.2812 44.3289 49.5959 44.1663 49.8758C44.0038 50.1558 43.7769 50.3931 43.5045 50.5681C42.9926 50.8723 42.577 50.6274 42.577 50.0338C42.5943 49.7115 42.6873 49.3977 42.8484 49.1179C43.0096 48.8382 43.2344 48.6004 43.5045 48.4237C44.0239 48.1269 44.4395 48.3643 44.4395 48.9579Z" fill="#263238"/>
<path d="M60.1419 47.7245L60.1748 47.9971L56.8598 48.3971L56.827 48.1245L60.1419 47.7245Z" fill="#37474F"/>
<path d="M49.1292 61.8027L50.4414 64.873L50.189 64.9809L48.8768 61.9106L49.1292 61.8027Z" fill="#37474F"/>
<path d="M32.9849 30.7772L34.2871 33.8491L34.0345 33.9562L32.7323 30.8843L32.9849 30.7772Z" fill="#37474F"/>
<path d="M25.7464 48.3095L25.7793 48.582L22.4643 48.982L22.4315 48.7095L25.7464 48.3095Z" fill="#37474F"/>
<path d="M62.384 25.1337L62.5889 25.3164L59.6107 28.6555L59.4058 28.4728L62.384 25.1337Z" fill="#37474F"/>
<path d="M50.4962 18.3332L50.7568 18.4194L49.3512 22.6672L49.0906 22.5809L50.4962 18.3332Z" fill="#37474F"/>
<path d="M34.3847 75.0887L34.6455 75.1738L33.2585 79.4244L32.9977 79.3393L34.3847 75.0887Z" fill="#37474F"/>
<path d="M22.8869 67.9511L23.0918 68.1338L20.1142 71.4734L19.9093 71.2907L22.8869 67.9511Z" fill="#37474F"/>
</svg>
