<svg width="87" height="100" viewBox="0 0 87 100" fill="none" xmlns="http://www.w3.org/2000/svg">
<path d="M65.2448 17.1521L65.191 17.1253L52.3782 9.75088L52.3009 9.71391C46.3147 6.68887 38.3286 7.59974 29.7375 13.1524C12.4813 24.3114 -0.667521 49.9974 0.367715 70.5239C0.881971 80.7519 4.82797 87.7667 10.7873 90.8522L10.8377 90.8791L23.6538 98.2568L23.7143 98.2904C29.7005 101.315 37.6934 100.418 46.2912 94.8587C63.5474 83.6997 76.6962 58.0137 75.661 37.4871C75.1534 27.2524 71.2074 20.2377 65.2448 17.1521Z" fill="#D1D4E6"/>
<path d="M23.2133 98.0183L10.8543 90.8725L10.7938 90.8355C4.83446 87.7432 0.891827 80.7285 0.374209 70.514C-0.086269 61.3582 2.27662 51.1839 6.55873 41.7357L6.64276 41.5273L19.3748 49.1101C15.086 58.5583 12.7298 68.7325 13.1903 77.8883C13.6777 87.9012 17.4657 94.8319 23.2133 98.0183Z" fill="#D7DCF9"/>
<path d="M46.2976 94.8518C63.5537 83.6927 76.7026 58.0068 75.6673 37.4802C74.6321 16.9536 59.8027 9.36414 42.5465 20.5232C25.2903 31.6822 12.1381 57.3682 13.1734 77.8914C14.2086 98.4146 29.0414 106.011 46.2976 94.8518Z" fill="#7BA9FF"/>
<path d="M60.9124 15.5591L39.2834 60.1179L34.6282 55.0762C33.2401 53.631 31.3407 52.7878 29.3377 52.7278C27.3348 52.6678 25.3883 53.3957 23.9161 54.7551C22.444 56.1146 21.5638 57.9972 21.4645 59.9985C21.3652 61.9999 22.0548 63.9603 23.3851 65.4588L35.65 78.7455C36.9986 80.2106 38.8677 81.0891 40.8564 81.1924C40.9976 81.1924 41.1387 81.1924 41.2799 81.1924C41.6511 81.192 42.0218 81.1651 42.3891 81.1117C43.6237 80.932 44.7955 80.4526 45.8021 79.7155C46.8087 78.9785 47.6195 78.0061 48.1636 76.8834L72.9689 25.7938C70.4245 20.1202 66.1894 16.6044 60.9124 15.5591Z" fill="#2E2E2E"/>
<path d="M78.4778 0.884241C78.3433 0.806934 78.2022 0.732991 78.061 0.665768C76.4757 -0.102418 74.6504 -0.210389 72.9857 0.365545C71.3209 0.94148 69.9525 2.15428 69.1808 3.73786L41.6597 60.4271L40.0934 58.7465C39.6412 58.2526 39.1151 57.8319 38.5338 57.4995C37.7137 57.029 34.2248 55.0089 33.6601 54.6829C32.2838 53.8866 30.6675 53.6103 29.1048 53.9041C27.5421 54.1979 26.1365 55.0423 25.1433 56.284C24.1501 57.5257 23.6351 59.0825 23.6917 60.6715C23.7484 62.2606 24.373 63.7767 25.4522 64.9445L37.717 78.2278C38.1769 78.7268 38.7108 79.1519 39.3001 79.4882C40.1001 79.942 43.5755 81.9587 44.1469 82.2881C44.9373 82.7457 45.8135 83.0356 46.7208 83.1395C47.6282 83.2434 48.5473 83.1592 49.4206 82.892C50.294 82.6249 51.1029 82.1806 51.7968 81.5868C52.4908 80.9931 53.0549 80.2627 53.454 79.4412L86.0135 12.376C86.7455 10.8645 86.879 9.13211 86.3871 7.52629C85.8953 5.92047 84.8145 4.55998 83.3615 3.71769L78.4778 0.884241Z" fill="#E7E7E7"/>
<path opacity="0.15" d="M78.4778 0.884241C78.3433 0.806934 78.2022 0.732991 78.061 0.665768C76.4757 -0.102418 74.6504 -0.210389 72.9857 0.365545C71.3209 0.94148 69.9525 2.15428 69.1808 3.73786L41.6597 60.4271L40.0934 58.7465C39.6412 58.2526 39.1151 57.8319 38.5338 57.4995C37.7137 57.029 34.2248 55.0089 33.6601 54.6829C32.2838 53.8866 30.6675 53.6103 29.1048 53.9041C27.5421 54.1979 26.1365 55.0423 25.1433 56.284C24.1501 57.5257 23.6351 59.0825 23.6917 60.6715C23.7484 62.2606 24.373 63.7767 25.4522 64.9445L37.717 78.2278C38.1769 78.7268 38.7108 79.1519 39.3001 79.4882C40.1001 79.942 43.5755 81.9587 44.1469 82.2881C44.9373 82.7457 45.8135 83.0356 46.7208 83.1395C47.6282 83.2434 48.5473 83.1592 49.4206 82.892C50.294 82.6249 51.1029 82.1806 51.7968 81.5868C52.4908 80.9931 53.0549 80.2627 53.454 79.4412L86.0135 12.376C86.7455 10.8645 86.879 9.13211 86.3871 7.52629C85.8953 5.92047 84.8145 4.55998 83.3615 3.71769L78.4778 0.884241Z" fill="#686868"/>
<path opacity="0.15" d="M44.1304 82.2748C43.5657 81.9387 40.097 79.922 39.287 79.475C38.6978 79.1384 38.1639 78.7133 37.7039 78.2145L25.439 64.9312C24.8982 64.3411 24.4689 63.6578 24.1719 62.9146L29.0489 65.7278C29.3446 66.4733 29.7766 67.1572 30.3228 67.7445L42.5843 81.0278C43.0354 81.5173 43.5564 81.9376 44.1304 82.2748Z" fill="#D2D2D2"/>
<path opacity="0.15" d="M75.6001 4.51098C74.9594 5.08597 74.4366 5.78004 74.0607 6.55457L45.7531 64.8639L41.6592 60.4272L69.1803 3.73792C69.5554 2.96201 70.0796 2.2676 70.7231 1.69434L75.6001 4.51098Z" fill="#979797"/>
<path d="M45.8829 65.7416L45.3858 65.2029L39.7345 59.0781C38.6156 57.9445 37.0999 57.2898 35.5073 57.2524C33.912 57.215 32.3648 57.8 31.1933 58.8834C30.0218 59.9669 29.318 61.4637 29.2308 63.0571C29.1439 64.6479 29.6785 66.2103 30.7217 67.4142L42.9777 80.6949L45.8829 65.7416ZM45.8829 65.7416L46.203 65.0822M45.8829 65.7416L46.203 65.0822M46.203 65.0822L74.5102 6.77395C75.2251 5.31045 76.4908 4.18981 78.0301 3.65729C79.5693 3.1248 81.2568 3.22372 82.7232 3.9324M46.203 65.0822L82.7232 3.9324M82.7232 3.9324C84.1898 4.64389 85.314 5.90835 85.849 7.4481C86.3841 8.98791 86.2861 10.6771 85.5765 12.1447C85.5765 12.1448 85.5765 12.1448 85.5765 12.1449L53.0174 79.2092C52.5804 80.1086 51.9304 80.8879 51.124 81.4792C50.3176 82.0706 49.379 82.4562 48.3898 82.6025C47.4006 82.7489 46.3905 82.6517 45.4474 82.3193C44.5044 81.9869 43.6568 81.4294 42.978 80.6952L82.7232 3.9324Z" fill="white" stroke="#ECECEC"/>
</svg>
