<svg width="55" height="90" viewBox="0 0 55 90" fill="none" xmlns="http://www.w3.org/2000/svg">
<path d="M54.1377 14.2383L44.1514 20.0055V77.6854L54.1403 71.9182L54.1377 14.2383Z" fill="#2370FF"/>
<path opacity="0.5" d="M54.1377 14.2383L44.1514 20.0055V77.6854L54.1403 71.9182L54.1377 14.2383Z" fill="white"/>
<path d="M34.1598 25.7725L24.1709 31.5397V89.2222L34.1598 83.4524V25.7725Z" fill="#2370FF"/>
<path opacity="0.5" d="M34.1598 25.7725L24.1709 31.5397V89.2222L34.1598 83.4524V25.7725Z" fill="white"/>
<path d="M30.8347 31.2915V35.4894L27.498 37.4154V33.2174L30.8347 31.2915Z" fill="#37474F"/>
<path d="M30.4332 35.2227L27.498 36.9188V33.2176L30.4332 31.5215V35.2227Z" fill="#2370FF"/>
<path opacity="0.8" d="M30.4332 35.2227L27.498 36.9188V33.2176L30.4332 31.5215V35.2227Z" fill="white"/>
<path d="M30.8342 31.2915L30.4326 31.5213V35.2226L30.8342 35.4894V31.2915Z" fill="#455A64"/>
<path d="M27.1279 37.6293L31.2043 35.2754L31.3866 35.3811L27.3102 37.735L27.1279 37.6293Z" fill="#2370FF"/>
<path d="M27.3105 37.7352V38.1632L31.387 35.8093V35.3813L27.3105 37.7352Z" fill="#2370FF"/>
<path opacity="0.2" d="M27.3105 37.7352V38.1632L31.387 35.8093V35.3813L27.3105 37.7352Z" fill="black"/>
<path d="M27.1279 37.6294V38.0574L27.3102 38.1631V37.7351L27.1279 37.6294Z" fill="#2370FF"/>
<path opacity="0.3" d="M27.1279 37.6294V38.0574L27.3102 38.1631V37.7351L27.1279 37.6294Z" fill="black"/>
<path d="M28.9795 36.0627V32.3615L29.1961 32.2373V35.9386L28.9795 36.0627Z" fill="#455A64"/>
<path d="M30.8347 37.3994V41.5973L27.498 43.5233V39.3253L30.8347 37.3994Z" fill="#37474F"/>
<path d="M30.4332 41.3331L27.498 43.0292V39.3253L30.4332 37.6318V41.3331Z" fill="#2370FF"/>
<path opacity="0.8" d="M30.4332 41.3331L27.498 43.0292V39.3253L30.4332 37.6318V41.3331Z" fill="white"/>
<path d="M30.8342 37.3994L30.4326 37.6319V41.3332L30.8342 41.5973V37.3994Z" fill="#455A64"/>
<path d="M27.1279 43.7372L31.2043 41.3833L31.3866 41.4916L27.3102 43.8455L27.1279 43.7372Z" fill="#2370FF"/>
<path d="M27.3105 43.8456V44.2736L31.387 41.917V41.4917L27.3105 43.8456Z" fill="#2370FF"/>
<path opacity="0.2" d="M27.3105 43.8456V44.2736L31.387 41.917V41.4917L27.3105 43.8456Z" fill="black"/>
<path d="M27.1279 43.7373V44.1653L27.3102 44.2736V43.8456L27.1279 43.7373Z" fill="#2370FF"/>
<path opacity="0.3" d="M27.1279 43.7373V44.1653L27.3102 44.2736V43.8456L27.1279 43.7373Z" fill="black"/>
<path d="M28.9795 42.1704V38.4718L29.1961 38.3477V42.0463L28.9795 42.1704Z" fill="#455A64"/>
<path d="M30.8347 44.3926V48.5905L27.498 50.5164V46.3185L30.8347 44.3926Z" fill="#37474F"/>
<path d="M30.4332 48.3238L27.498 50.0199V46.3186L30.4332 44.6226V48.3238Z" fill="#2370FF"/>
<path opacity="0.8" d="M30.4332 48.3238L27.498 50.0199V46.3186L30.4332 44.6226V48.3238Z" fill="white"/>
<path d="M30.8342 44.3926L30.4326 44.6224V48.3237L30.8342 48.5905V44.3926Z" fill="#455A64"/>
<path d="M27.1279 50.7304L31.2043 48.3765L31.3866 48.4821L27.3102 50.836L27.1279 50.7304Z" fill="#2370FF"/>
<path d="M27.3105 50.8363V51.2643L31.387 48.9104V48.4824L27.3105 50.8363Z" fill="#2370FF"/>
<path opacity="0.2" d="M27.3105 50.8363V51.2643L31.387 48.9104V48.4824L27.3105 50.8363Z" fill="black"/>
<path d="M27.1279 50.7305V51.1585L27.3102 51.2641V50.8361L27.1279 50.7305Z" fill="#2370FF"/>
<path opacity="0.3" d="M27.1279 50.7305V51.1585L27.3102 51.2641V50.8361L27.1279 50.7305Z" fill="black"/>
<path d="M28.9795 49.1638V45.4625L29.1961 45.3384V49.0396L28.9795 49.1638Z" fill="#455A64"/>
<path d="M30.8347 50.5005V54.6984L27.498 56.627V52.429L30.8347 50.5005Z" fill="#37474F"/>
<path d="M30.4332 54.4342L27.498 56.1302V52.429L30.4332 50.7329V54.4342Z" fill="#2370FF"/>
<path opacity="0.8" d="M30.4332 54.4342L27.498 56.1302V52.429L30.4332 50.7329V54.4342Z" fill="white"/>
<path d="M30.8342 50.5005L30.4326 50.733V54.4342L30.8342 54.6984V50.5005Z" fill="#455A64"/>
<path d="M27.1279 56.8409L31.2043 54.4844L31.3866 54.5927L27.3102 56.944L27.1279 56.8409Z" fill="#2370FF"/>
<path d="M27.3105 56.944V57.372L31.387 55.0208V54.5928L27.3105 56.944Z" fill="#2370FF"/>
<path opacity="0.2" d="M27.3105 56.944V57.372L31.387 55.0208V54.5928L27.3105 56.944Z" fill="black"/>
<path d="M27.1279 56.8408V57.2688L27.3102 57.3718V56.9439L27.1279 56.8408Z" fill="#2370FF"/>
<path opacity="0.3" d="M27.1279 56.8408V57.2688L27.3102 57.3718V56.9439L27.1279 56.8408Z" fill="black"/>
<path d="M28.9795 55.2744V51.5731L29.1961 51.4463V55.1502L28.9795 55.2744Z" fill="#455A64"/>
<path d="M30.8347 57.4937V61.6916L27.498 63.6175V59.4196L30.8347 57.4937Z" fill="#37474F"/>
<path d="M30.4332 61.4249L27.498 63.121V59.4197L30.4332 57.7236V61.4249Z" fill="#2370FF"/>
<path opacity="0.8" d="M30.4332 61.4249L27.498 63.121V59.4197L30.4332 57.7236V61.4249Z" fill="white"/>
<path d="M30.8342 57.4937L30.4326 57.7235V61.4248L30.8342 61.6916V57.4937Z" fill="#455A64"/>
<path d="M27.1279 63.8314L31.2043 61.4775L31.3866 61.5832L27.3102 63.9371L27.1279 63.8314Z" fill="#2370FF"/>
<path d="M27.3105 63.9374V64.3654L31.387 62.0115V61.5835L27.3105 63.9374Z" fill="#2370FF"/>
<path opacity="0.2" d="M27.3105 63.9374V64.3654L31.387 62.0115V61.5835L27.3105 63.9374Z" fill="black"/>
<path d="M27.1279 63.8315V64.2595L27.3102 64.3652V63.9372L27.1279 63.8315Z" fill="#2370FF"/>
<path opacity="0.3" d="M27.1279 63.8315V64.2595L27.3102 64.3652V63.9372L27.1279 63.8315Z" fill="black"/>
<path d="M28.9795 62.2649V58.5636L29.1961 58.4395V62.1407L28.9795 62.2649Z" fill="#455A64"/>
<path d="M30.8347 63.604V67.8019L27.498 69.7252V65.5273L30.8347 63.604Z" fill="#37474F"/>
<path d="M30.4332 67.5352L27.498 69.2313V65.5274L30.4332 63.834V67.5352Z" fill="#2370FF"/>
<path opacity="0.8" d="M30.4332 67.5352L27.498 69.2313V65.5274L30.4332 63.834V67.5352Z" fill="white"/>
<path d="M30.8342 63.604L30.4326 63.8338V67.5351L30.8342 67.8019V63.604Z" fill="#455A64"/>
<path d="M27.1279 69.9392L31.2043 67.5879L31.3866 67.6909L27.3102 70.0475L27.1279 69.9392Z" fill="#2370FF"/>
<path d="M27.3105 70.0475V70.4754L31.387 68.1215V67.6909L27.3105 70.0475Z" fill="#2370FF"/>
<path opacity="0.2" d="M27.3105 70.0475V70.4754L31.387 68.1215V67.6909L27.3105 70.0475Z" fill="black"/>
<path d="M27.1279 69.939V70.367L27.3102 70.4753V70.0473L27.1279 69.939Z" fill="#2370FF"/>
<path opacity="0.3" d="M27.1279 69.939V70.367L27.3102 70.4753V70.0473L27.1279 69.939Z" fill="black"/>
<path d="M28.9795 68.3752V64.674L29.1961 64.5498V68.2511L28.9795 68.3752Z" fill="#455A64"/>
<path d="M30.8347 70.5947V74.7927L27.498 76.7186V72.5207L30.8347 70.5947Z" fill="#37474F"/>
<path d="M30.4332 74.526L27.498 76.222V72.5208L30.4332 70.8247V74.526Z" fill="#2370FF"/>
<path opacity="0.8" d="M30.4332 74.526L27.498 76.222V72.5208L30.4332 70.8247V74.526Z" fill="white"/>
<path d="M30.8342 70.5947L30.4326 70.8246V74.5258L30.8342 74.7927V70.5947Z" fill="#455A64"/>
<path d="M27.1279 76.9325L31.2043 74.5786L31.3866 74.6843L27.3102 77.0382L27.1279 76.9325Z" fill="#2370FF"/>
<path d="M27.3105 77.0385V77.4665L31.387 75.1126V74.6846L27.3105 77.0385Z" fill="#2370FF"/>
<path opacity="0.2" d="M27.3105 77.0385V77.4665L31.387 75.1126V74.6846L27.3105 77.0385Z" fill="black"/>
<path d="M27.1279 76.9326V77.3606L27.3102 77.4663V77.0383L27.1279 76.9326Z" fill="#2370FF"/>
<path opacity="0.3" d="M27.1279 76.9326V77.3606L27.3102 77.4663V77.0383L27.1279 76.9326Z" fill="black"/>
<path d="M28.9795 75.3659V71.6647L29.1961 71.5405V75.2418L28.9795 75.3659Z" fill="#455A64"/>
<path d="M30.8347 76.7051V80.9004L27.498 82.8289V78.631L30.8347 76.7051Z" fill="#37474F"/>
<path d="M30.4332 80.6363L27.498 82.3324V78.6311L30.4332 76.9351V80.6363Z" fill="#2370FF"/>
<path opacity="0.8" d="M30.4332 80.6363L27.498 82.3324V78.6311L30.4332 76.9351V80.6363Z" fill="white"/>
<path d="M30.8342 76.7051L30.4326 76.9349V80.6362L30.8342 80.9004V76.7051Z" fill="#455A64"/>
<path d="M27.1279 83.0431L31.2043 80.6865L31.3866 80.7948L27.3102 83.1487L27.1279 83.0431Z" fill="#2370FF"/>
<path d="M27.3105 83.1488V83.5768L31.387 81.2229V80.7949L27.3105 83.1488Z" fill="#2370FF"/>
<path opacity="0.2" d="M27.3105 83.1488V83.5768L31.387 81.2229V80.7949L27.3105 83.1488Z" fill="black"/>
<path d="M27.1279 83.043V83.471L27.3102 83.5766V83.1486L27.1279 83.043Z" fill="#2370FF"/>
<path opacity="0.3" d="M27.1279 83.043V83.471L27.3102 83.5766V83.1486L27.1279 83.043Z" fill="black"/>
<path d="M28.9795 81.4763V77.775L29.1961 77.6509V81.3521L28.9795 81.4763Z" fill="#455A64"/>
<path d="M50.8172 19.7334V23.9313L47.4805 25.8573V21.6593L50.8172 19.7334Z" fill="#37474F"/>
<path d="M50.4156 23.6646L47.4805 25.3607V21.6595L50.4156 19.9634V23.6646Z" fill="#2370FF"/>
<path opacity="0.8" d="M50.4156 23.6646L47.4805 25.3607V21.6595L50.4156 19.9634V23.6646Z" fill="white"/>
<path d="M50.8166 19.7334L50.415 19.9632V23.6645L50.8166 23.9313V19.7334Z" fill="#455A64"/>
<path d="M47.1104 26.0712L51.1868 23.7173L51.3691 23.823L47.2926 26.1769L47.1104 26.0712Z" fill="#2370FF"/>
<path d="M47.293 26.1771V26.6051L51.3694 24.2512V23.8232L47.293 26.1771Z" fill="#2370FF"/>
<path opacity="0.2" d="M47.293 26.1771V26.6051L51.3694 24.2512V23.8232L47.293 26.1771Z" fill="black"/>
<path d="M47.1104 26.0713V26.4993L47.2926 26.6049V26.177L47.1104 26.0713Z" fill="#2370FF"/>
<path opacity="0.3" d="M47.1104 26.0713V26.4993L47.2926 26.6049V26.177L47.1104 26.0713Z" fill="black"/>
<path d="M48.9619 24.5046V20.8034L49.1785 20.6792V24.3805L48.9619 24.5046Z" fill="#455A64"/>
<path d="M50.8172 25.8413V30.0419L47.4805 31.9652V27.7699L50.8172 25.8413Z" fill="#37474F"/>
<path d="M50.4156 29.775L47.4805 31.4711V27.7698L50.4156 26.0737V29.775Z" fill="#2370FF"/>
<path opacity="0.8" d="M50.4156 29.775L47.4805 31.4711V27.7698L50.4156 26.0737V29.775Z" fill="white"/>
<path d="M50.8166 25.8413L50.415 26.0738V29.775L50.8166 30.0419V25.8413Z" fill="#455A64"/>
<path d="M47.1104 32.182L51.1868 29.8281L51.3691 29.9338L47.2926 32.2877L47.1104 32.182Z" fill="#2370FF"/>
<path d="M47.293 32.2875V32.7155L51.3694 30.3616V29.9336L47.293 32.2875Z" fill="#2370FF"/>
<path opacity="0.2" d="M47.293 32.2875V32.7155L51.3694 30.3616V29.9336L47.293 32.2875Z" fill="black"/>
<path d="M47.1104 32.1816V32.6096L47.2926 32.7153V32.2873L47.1104 32.1816Z" fill="#2370FF"/>
<path opacity="0.3" d="M47.1104 32.1816V32.6096L47.2926 32.7153V32.2873L47.1104 32.1816Z" fill="black"/>
<path d="M48.9619 30.615V26.9137L49.1785 26.7896V30.4908L48.9619 30.615Z" fill="#455A64"/>
<path d="M50.8172 32.8345V37.0324L47.4805 38.9583V34.7604L50.8172 32.8345Z" fill="#37474F"/>
<path d="M50.4156 36.7657L47.4805 38.4618V34.7605L50.4156 33.0645V36.7657Z" fill="#2370FF"/>
<path opacity="0.8" d="M50.4156 36.7657L47.4805 38.4618V34.7605L50.4156 33.0645V36.7657Z" fill="white"/>
<path d="M50.8166 32.8345L50.415 33.0643V36.7656L50.8166 37.0324V32.8345Z" fill="#455A64"/>
<path d="M47.1104 39.1723L51.1868 36.8184L51.3691 36.924L47.2926 39.2779L47.1104 39.1723Z" fill="#2370FF"/>
<path d="M47.293 39.2782V39.7062L51.3694 37.3523V36.9243L47.293 39.2782Z" fill="#2370FF"/>
<path opacity="0.2" d="M47.293 39.2782V39.7062L51.3694 37.3523V36.9243L47.293 39.2782Z" fill="black"/>
<path d="M47.1104 39.1724V39.6003L47.2926 39.706V39.278L47.1104 39.1724Z" fill="#2370FF"/>
<path opacity="0.3" d="M47.1104 39.1724V39.6003L47.2926 39.706V39.278L47.1104 39.1724Z" fill="black"/>
<path d="M48.9619 37.6057V33.9044L49.1785 33.7803V37.4815L48.9619 37.6057Z" fill="#455A64"/>
<path d="M50.8172 38.9424V43.143L47.4805 45.0689V40.8683L50.8172 38.9424Z" fill="#37474F"/>
<path d="M50.4156 42.8761L47.4805 44.5721V40.8682L50.4156 39.1748V42.8761Z" fill="#2370FF"/>
<path opacity="0.8" d="M50.4156 42.8761L47.4805 44.5721V40.8682L50.4156 39.1748V42.8761Z" fill="white"/>
<path d="M50.8166 38.9424L50.415 39.1749V42.8761L50.8166 43.143V38.9424Z" fill="#455A64"/>
<path d="M47.1104 45.2831L51.1868 42.9292L51.3691 43.0349L47.2926 45.3888L47.1104 45.2831Z" fill="#2370FF"/>
<path d="M47.293 45.3886V45.8166L51.3694 43.4626V43.0347L47.293 45.3886Z" fill="#2370FF"/>
<path opacity="0.2" d="M47.293 45.3886V45.8166L51.3694 43.4626V43.0347L47.293 45.3886Z" fill="black"/>
<path d="M47.1104 45.2827V45.7107L47.2926 45.8164V45.3884L47.1104 45.2827Z" fill="#2370FF"/>
<path opacity="0.3" d="M47.1104 45.2827V45.7107L47.2926 45.8164V45.3884L47.1104 45.2827Z" fill="black"/>
<path d="M48.9619 43.7161V40.0148L49.1785 39.8906V43.5919L48.9619 43.7161Z" fill="#455A64"/>
<path d="M50.8172 45.9351V50.133L47.4805 52.0589V47.861L50.8172 45.9351Z" fill="#37474F"/>
<path d="M50.4156 49.8663L47.4805 51.5624V47.8611L50.4156 46.165V49.8663Z" fill="#2370FF"/>
<path opacity="0.8" d="M50.4156 49.8663L47.4805 51.5624V47.8611L50.4156 46.165V49.8663Z" fill="white"/>
<path d="M50.8166 45.9351L50.415 46.1649V49.8662L50.8166 50.133V45.9351Z" fill="#455A64"/>
<path d="M47.1104 52.2729L51.1868 49.9189L51.3691 50.0246L47.2926 52.3785L47.1104 52.2729Z" fill="#2370FF"/>
<path d="M47.293 52.3788V52.8068L51.3694 50.4529V50.0249L47.293 52.3788Z" fill="#2370FF"/>
<path opacity="0.2" d="M47.293 52.3788V52.8068L51.3694 50.4529V50.0249L47.293 52.3788Z" fill="black"/>
<path d="M47.1104 52.2729V52.7009L47.2926 52.8066V52.3786L47.1104 52.2729Z" fill="#2370FF"/>
<path opacity="0.3" d="M47.1104 52.2729V52.7009L47.2926 52.8066V52.3786L47.1104 52.2729Z" fill="black"/>
<path d="M48.9619 50.7063V47.005L49.1785 46.8809V50.5821L48.9619 50.7063Z" fill="#455A64"/>
<path d="M50.8172 52.0459V56.2438L47.4805 58.1697V53.9718L50.8172 52.0459Z" fill="#37474F"/>
<path d="M50.4156 55.9771L47.4805 57.6732V53.972L50.4156 52.2759V55.9771Z" fill="#2370FF"/>
<path opacity="0.8" d="M50.4156 55.9771L47.4805 57.6732V53.972L50.4156 52.2759V55.9771Z" fill="white"/>
<path d="M50.8166 52.0459L50.415 52.2757V55.977L50.8166 56.2438V52.0459Z" fill="#455A64"/>
<path d="M47.1104 58.3837L51.1868 56.0298L51.3691 56.1355L47.2926 58.4894L47.1104 58.3837Z" fill="#2370FF"/>
<path d="M47.293 58.4896V58.9176L51.3694 56.5637V56.1357L47.293 58.4896Z" fill="#2370FF"/>
<path opacity="0.2" d="M47.293 58.4896V58.9176L51.3694 56.5637V56.1357L47.293 58.4896Z" fill="black"/>
<path d="M47.1104 58.3838V58.8118L47.2926 58.9174V58.4895L47.1104 58.3838Z" fill="#2370FF"/>
<path opacity="0.3" d="M47.1104 58.3838V58.8118L47.2926 58.9174V58.4895L47.1104 58.3838Z" fill="black"/>
<path d="M48.9619 56.8171V53.1159L49.1785 52.9917V56.693L48.9619 56.8171Z" fill="#455A64"/>
<path d="M50.8172 59.0361V63.2341L47.4805 65.16V60.9621L50.8172 59.0361Z" fill="#37474F"/>
<path d="M50.4156 62.9674L47.4805 64.6634V60.9622L50.4156 59.2661V62.9674Z" fill="#2370FF"/>
<path opacity="0.8" d="M50.4156 62.9674L47.4805 64.6634V60.9622L50.4156 59.2661V62.9674Z" fill="white"/>
<path d="M50.8166 59.0361L50.415 59.266V62.9672L50.8166 63.2341V59.0361Z" fill="#455A64"/>
<path d="M47.1104 65.3739L51.1868 63.02L51.3691 63.1257L47.2926 65.4796L47.1104 65.3739Z" fill="#2370FF"/>
<path d="M47.293 65.4799V65.9079L51.3694 63.554V63.126L47.293 65.4799Z" fill="#2370FF"/>
<path opacity="0.2" d="M47.293 65.4799V65.9079L51.3694 63.554V63.126L47.293 65.4799Z" fill="black"/>
<path d="M47.1104 65.374V65.802L47.2926 65.9077V65.4797L47.1104 65.374Z" fill="#2370FF"/>
<path opacity="0.3" d="M47.1104 65.374V65.802L47.2926 65.9077V65.4797L47.1104 65.374Z" fill="black"/>
<path d="M48.9619 63.8074V60.1061L49.1785 59.9819V63.6832L48.9619 63.8074Z" fill="#455A64"/>
<path d="M50.8172 65.147V69.3449L47.4805 71.2708V67.0729L50.8172 65.147Z" fill="#37474F"/>
<path d="M50.4156 69.0782L47.4805 70.7743V67.073L50.4156 65.377V69.0782Z" fill="#2370FF"/>
<path opacity="0.8" d="M50.4156 69.0782L47.4805 70.7743V67.073L50.4156 65.377V69.0782Z" fill="white"/>
<path d="M50.8166 65.147L50.415 65.3768V69.0781L50.8166 69.3449V65.147Z" fill="#455A64"/>
<path d="M47.1104 71.4848L51.1868 69.1309L51.3691 69.2365L47.2926 71.5904L47.1104 71.4848Z" fill="#2370FF"/>
<path d="M47.293 71.5907V72.0187L51.3694 69.6648V69.2368L47.293 71.5907Z" fill="#2370FF"/>
<path opacity="0.2" d="M47.293 71.5907V72.0187L51.3694 69.6648V69.2368L47.293 71.5907Z" fill="black"/>
<path d="M47.1104 71.4849V71.9128L47.2926 72.0185V71.5905L47.1104 71.4849Z" fill="#2370FF"/>
<path opacity="0.3" d="M47.1104 71.4849V71.9128L47.2926 72.0185V71.5905L47.1104 71.4849Z" fill="black"/>
<path d="M48.9619 69.9182V66.2169L49.1785 66.0928V69.794L48.9619 69.9182Z" fill="#455A64"/>
<path d="M24.1713 31.5397L0.859375 18.082V75.7619L24.1713 89.2223V31.5397Z" fill="#2370FF"/>
<path opacity="0.3" d="M24.1713 31.5397L0.859375 18.082V75.7619L24.1713 89.2223V31.5397Z" fill="white"/>
<path d="M44.1523 20.0054V77.6853L42.4668 76.7131V19.0332L44.1523 20.0054Z" fill="#2370FF"/>
<path opacity="0.3" d="M44.1523 20.0054V77.6853L42.4668 76.7131V19.0332L44.1523 20.0054Z" fill="white"/>
<path d="M0.859375 18.0821L30.8288 0.777832L54.1381 14.2382L44.1518 20.0054L42.4663 19.0331L32.4721 24.7977L34.1602 25.7725L24.1713 31.5397L0.859375 18.0821Z" fill="#2370FF"/>
<path opacity="0.9" d="M0.859375 18.0821L30.8288 0.777832L54.1381 14.2382L44.1518 20.0054L42.4663 19.0331L32.4721 24.7977L34.1602 25.7725L24.1713 31.5397L0.859375 18.0821Z" fill="white"/>
<path d="M30.8814 25.7724L29.1932 24.7975L42.466 17.1387L44.1489 18.111L50.8593 14.2353L30.8286 2.67188L4.1377 18.0819L24.171 29.6453L30.8814 25.7724Z" fill="#2370FF"/>
<path opacity="0.3" d="M30.8814 25.7724L29.1932 24.7975L42.466 17.1387L44.1489 18.111L50.8593 14.2353L30.8286 2.67188L4.1377 18.0819L24.171 29.6453L30.8814 25.7724Z" fill="black"/>
<path d="M30.8286 2.67188V4.62422L5.8285 19.0567L4.1377 18.0819L30.8286 2.67188Z" fill="#2370FF"/>
<path opacity="0.7" d="M30.8286 2.67188V4.62422L5.8285 19.0567L4.1377 18.0819L30.8286 2.67188Z" fill="white"/>
<path d="M50.8598 14.2353L49.1452 15.226L30.8291 4.62422V2.67188L50.8598 14.2353Z" fill="#2370FF"/>
<path opacity="0.8" d="M50.8598 14.2353L49.1452 15.226L30.8291 4.62422V2.67188L50.8598 14.2353Z" fill="white"/>
<path opacity="0.2" d="M30.8286 2.66943L32.7888 5.71815L7.88387 20.2405L4.1377 18.0821L30.8286 2.66943Z" fill="#2370FF"/>
<path d="M42.4659 19.0332V76.7131L34.1598 81.5292V25.7726L32.4717 24.7978L42.4659 19.0332Z" fill="#2370FF"/>
<path opacity="0.25" d="M42.4659 19.0332V76.7131L34.1598 81.5292V25.7726L32.4717 24.7978L42.4659 19.0332Z" fill="black"/>
<path d="M35.8242 71.0807L37.0289 70.3833V25.0752L35.8242 25.77V71.0807ZM39.1556 23.852V69.1627L40.3603 68.4679V23.1572L39.1556 23.852Z" fill="#2370FF"/>
<path opacity="0.5" d="M35.8242 71.0807L37.0289 70.3833V25.0752L35.8242 25.77V71.0807ZM39.1556 23.852V69.1627L40.3603 68.4679V23.1572L39.1556 23.852Z" fill="white"/>
<path d="M34.8154 81.3361V73.0354L41.6975 69.062L41.7002 77.3628L41.0529 77.7353V70.1822L35.4627 73.4079V80.961L34.8154 81.3361Z" fill="#2370FF"/>
<path opacity="0.7" d="M34.8154 81.3361V73.0354L41.6975 69.062L41.7002 77.3628L41.0529 77.7353V70.1822L35.4627 73.4079V80.961L34.8154 81.3361Z" fill="white"/>
<path d="M34.8157 81.3361L34.6572 81.2436V72.9429L34.8157 73.0353V81.3361Z" fill="#2370FF"/>
<path opacity="0.5" d="M34.8157 81.3361L34.6572 81.2436V72.9429L34.8157 73.0353V81.3361Z" fill="white"/>
<path d="M34.6572 72.9431L41.5367 68.9697L41.6978 69.0622L34.8157 73.0356L34.6572 72.9431Z" fill="#2370FF"/>
<path opacity="0.85" d="M34.6572 72.9431L41.5367 68.9697L41.6978 69.0622L34.8157 73.0356L34.6572 72.9431Z" fill="white"/>
<path d="M41.0528 77.7352L40.8916 77.6428V70.2746L41.0528 70.1821V77.7352Z" fill="#2370FF"/>
<path opacity="0.5" d="M41.0528 77.7352L40.8916 77.6428V70.2746L41.0528 70.1821V77.7352Z" fill="white"/>
<path d="M40.9104 77.6508L35.4629 80.7947V73.4106L40.9104 70.2642V77.6508Z" fill="#2370FF"/>
<path opacity="0.45" d="M40.9104 77.6508L35.4629 80.7947V73.4106L40.9104 70.2642V77.6508Z" fill="black"/>
<g opacity="0.2">
<path d="M35.5131 79.1595L39.7903 70.9116L39.2989 71.1943L35.4629 78.5915V79.1331L35.5131 79.1595Z" fill="#2370FF"/>
<path d="M35.4629 74.5547V75.2178L36.8023 72.6367L36.3109 72.9194L35.4629 74.5547Z" fill="#2370FF"/>
<path d="M38.4509 71.6855L37.4549 72.2588L35.4629 76.1001V77.4448L38.4509 71.6855Z" fill="#2370FF"/>
<path d="M40.9105 76.3455V75.0034L38.9502 78.7813L39.9462 78.208L40.9105 76.3455Z" fill="#2370FF"/>
<path d="M40.9104 71.7753V70.2642L40.7519 70.3566L35.4629 80.5542V80.7947L36.5619 80.1606L40.9104 71.7753Z" fill="#2370FF"/>
<path d="M40.9109 73.9019V73.2388L37.6455 79.537L38.1369 79.2517L40.9109 73.9019Z" fill="#2370FF"/>
</g>
<path d="M37.9805 71.9576L38.1258 71.873V79.4261L37.9805 79.3416V71.9576Z" fill="#2370FF"/>
<path opacity="0.5" d="M37.9805 71.9576L38.1258 71.873V79.4261L37.9805 79.3416V71.9576Z" fill="white"/>
<path d="M38.3928 71.7173L38.126 71.8732V79.4263L38.3928 79.2704V71.7173Z" fill="#2370FF"/>
<path opacity="0.7" d="M38.3928 71.7173L38.126 71.8732V79.4263L38.3928 79.2704V71.7173Z" fill="white"/>
<path d="M4.18555 23.498V27.6986L7.51959 29.6219V25.4266L4.18555 23.498Z" fill="#37474F"/>
<path d="M4.58496 27.4317L7.52008 29.1252V25.4265L4.58496 23.7305V27.4317Z" fill="#2370FF"/>
<path opacity="0.8" d="M4.58496 27.4317L7.52008 29.1252V25.4265L4.58496 23.7305V27.4317Z" fill="white"/>
<path d="M4.18555 23.498L4.58447 23.7305V27.4318L4.18555 27.6986V23.498Z" fill="#455A64"/>
<path d="M7.89221 29.8358L3.81315 27.4819L3.63086 27.5903L7.70727 29.9442L7.89221 29.8358Z" fill="#2370FF"/>
<path d="M7.70727 29.9442V30.3722L3.63086 28.0183V27.5903L7.70727 29.9442Z" fill="#2370FF"/>
<path opacity="0.2" d="M7.70727 29.9442V30.3722L3.63086 28.0183V27.5903L7.70727 29.9442Z" fill="black"/>
<path d="M7.89196 29.8359V30.2666L7.70703 30.3722V29.9443L7.89196 29.8359Z" fill="#2370FF"/>
<path opacity="0.3" d="M7.89196 29.8359V30.2666L7.70703 30.3722V29.9443L7.89196 29.8359Z" fill="black"/>
<path d="M6.03821 28.2717V24.5678L5.82422 24.4463V28.1475L6.03821 28.2717Z" fill="#455A64"/>
<path d="M10.8379 27.3208V31.5187L14.1746 33.4447V29.2467L10.8379 27.3208Z" fill="#37474F"/>
<path d="M11.2363 31.252L14.1741 32.9481V29.2469L11.2363 27.5508V31.252Z" fill="#2370FF"/>
<path opacity="0.8" d="M11.2363 31.252L14.1741 32.9481V29.2469L11.2363 27.5508V31.252Z" fill="white"/>
<path d="M10.8379 27.3208L11.2368 27.5506V31.2519L10.8379 31.5187V27.3208Z" fill="#455A64"/>
<path d="M14.5445 33.6586L10.4681 31.3047L10.2832 31.4104L14.3623 33.7643L14.5445 33.6586Z" fill="#2370FF"/>
<path d="M14.3623 33.7645V34.1925L10.2832 31.8386V31.4106L14.3623 33.7645Z" fill="#2370FF"/>
<path opacity="0.2" d="M14.3623 33.7645V34.1925L10.2832 31.8386V31.4106L14.3623 33.7645Z" fill="black"/>
<path d="M14.5446 33.6587V34.0867L14.3623 34.1923V33.7644L14.5446 33.6587Z" fill="#2370FF"/>
<path opacity="0.3" d="M14.5446 33.6587V34.0867L14.3623 34.1923V33.7644L14.5446 33.6587Z" fill="black"/>
<path d="M12.6906 32.092V28.3908L12.4766 28.2666V31.9679L12.6906 32.092Z" fill="#455A64"/>
<path d="M17.4893 31.1406V35.3386L20.8259 37.2645V33.0665L17.4893 31.1406Z" fill="#37474F"/>
<path d="M17.8906 35.0719L20.8257 36.7679V33.0667L17.8906 31.3706V35.0719Z" fill="#2370FF"/>
<path opacity="0.8" d="M17.8906 35.0719L20.8257 36.7679V33.0667L17.8906 31.3706V35.0719Z" fill="white"/>
<path d="M17.4893 31.1406L17.8908 31.3705V35.0717L17.4893 35.3386V31.1406Z" fill="#455A64"/>
<path d="M21.1959 37.4784L17.1195 35.1245L16.9346 35.2302L21.0136 37.5841L21.1959 37.4784Z" fill="#2370FF"/>
<path d="M21.0136 37.5844V38.0124L16.9346 35.6585V35.2305L21.0136 37.5844Z" fill="#2370FF"/>
<path opacity="0.2" d="M21.0136 37.5844V38.0124L16.9346 35.6585V35.2305L21.0136 37.5844Z" fill="black"/>
<path d="M21.196 37.4785V37.9065L21.0137 38.0122V37.5842L21.196 37.4785Z" fill="#2370FF"/>
<path opacity="0.3" d="M21.196 37.4785V37.9065L21.0137 38.0122V37.5842L21.196 37.4785Z" fill="black"/>
<path d="M19.3446 35.9118V32.2106L19.1279 32.0864V35.7877L19.3446 35.9118Z" fill="#455A64"/>
<path d="M4.18555 29.6084V33.8063L7.51959 35.7323V31.5343L4.18555 29.6084Z" fill="#37474F"/>
<path d="M4.58496 33.5421L7.52008 35.2355V31.5343L4.58496 29.8408V33.5421Z" fill="#2370FF"/>
<path opacity="0.8" d="M4.58496 33.5421L7.52008 35.2355V31.5343L4.58496 29.8408V33.5421Z" fill="white"/>
<path d="M4.18555 29.6084L4.58447 29.8409V33.5421L4.18555 33.8063V29.6084Z" fill="#455A64"/>
<path d="M7.89221 35.9462L3.81315 33.5923L3.63086 33.698L7.70727 36.0519L7.89221 35.9462Z" fill="#2370FF"/>
<path d="M7.70727 36.0521V36.4801L3.63086 34.1262V33.6982L7.70727 36.0521Z" fill="#2370FF"/>
<path opacity="0.2" d="M7.70727 36.0521V36.4801L3.63086 34.1262V33.6982L7.70727 36.0521Z" fill="black"/>
<path d="M7.89196 35.9463V36.3743L7.70703 36.4799V36.052L7.89196 35.9463Z" fill="#2370FF"/>
<path opacity="0.3" d="M7.89196 35.9463V36.3743L7.70703 36.4799V36.052L7.89196 35.9463Z" fill="black"/>
<path d="M6.03821 34.3796V30.6784L5.82422 30.5542V34.2555L6.03821 34.3796Z" fill="#455A64"/>
<path d="M10.8379 33.4287V37.6293L14.1746 39.5526V35.3573L10.8379 33.4287Z" fill="#37474F"/>
<path d="M11.2363 37.3624L14.1741 39.0585V35.3572L11.2363 33.6611V37.3624Z" fill="#2370FF"/>
<path opacity="0.8" d="M11.2363 37.3624L14.1741 39.0585V35.3572L11.2363 33.6611V37.3624Z" fill="white"/>
<path d="M10.8379 33.4287L11.2368 33.6612V37.3625L10.8379 37.6293V33.4287Z" fill="#455A64"/>
<path d="M14.5445 39.7694L10.4681 37.4155L10.2832 37.5212L14.3623 39.8751L14.5445 39.7694Z" fill="#2370FF"/>
<path d="M14.3623 39.8749V40.3029L10.2832 37.949V37.521L14.3623 39.8749Z" fill="#2370FF"/>
<path opacity="0.2" d="M14.3623 39.8749V40.3029L10.2832 37.949V37.521L14.3623 39.8749Z" fill="black"/>
<path d="M14.5446 39.769V40.197L14.3623 40.3027V39.8747L14.5446 39.769Z" fill="#2370FF"/>
<path opacity="0.3" d="M14.5446 39.769V40.197L14.3623 40.3027V39.8747L14.5446 39.769Z" fill="black"/>
<path d="M12.6906 38.2024V34.5011L12.4766 34.377V38.0782L12.6906 38.2024Z" fill="#455A64"/>
<path d="M17.4893 37.2515V41.4494L20.8259 43.3753V39.1774L17.4893 37.2515Z" fill="#37474F"/>
<path d="M17.8906 41.1827L20.8257 42.8788V39.1775L17.8906 37.4814V41.1827Z" fill="#2370FF"/>
<path opacity="0.8" d="M17.8906 41.1827L20.8257 42.8788V39.1775L17.8906 37.4814V41.1827Z" fill="white"/>
<path d="M17.4893 37.2515L17.8908 37.4813V41.1826L17.4893 41.4494V37.2515Z" fill="#455A64"/>
<path d="M21.1959 43.5893L17.1195 41.2354L16.9346 41.341L21.0136 43.6949L21.1959 43.5893Z" fill="#2370FF"/>
<path d="M21.0136 43.6952V44.1232L16.9346 41.7693V41.3413L21.0136 43.6952Z" fill="#2370FF"/>
<path opacity="0.2" d="M21.0136 43.6952V44.1232L16.9346 41.7693V41.3413L21.0136 43.6952Z" fill="black"/>
<path d="M21.196 43.5894V44.0173L21.0137 44.123V43.695L21.196 43.5894Z" fill="#2370FF"/>
<path opacity="0.3" d="M21.196 43.5894V44.0173L21.0137 44.123V43.695L21.196 43.5894Z" fill="black"/>
<path d="M19.3446 42.0227V38.3214L19.1279 38.1973V41.8985L19.3446 42.0227Z" fill="#455A64"/>
<path d="M4.18555 36.5991V40.7997L7.51959 42.723V38.5277L4.18555 36.5991Z" fill="#37474F"/>
<path d="M4.58496 40.5328L7.52008 42.2289V38.5276L4.58496 36.8315V40.5328Z" fill="#2370FF"/>
<path opacity="0.8" d="M4.58496 40.5328L7.52008 42.2289V38.5276L4.58496 36.8315V40.5328Z" fill="white"/>
<path d="M4.18555 36.5991L4.58447 36.8316V40.5329L4.18555 40.7997V36.5991Z" fill="#455A64"/>
<path d="M7.89221 42.9398L3.81315 40.5859L3.63086 40.6916L7.70727 43.0455L7.89221 42.9398Z" fill="#2370FF"/>
<path d="M7.70727 43.0453V43.4733L3.63086 41.1194V40.6914L7.70727 43.0453Z" fill="#2370FF"/>
<path opacity="0.2" d="M7.70727 43.0453V43.4733L3.63086 41.1194V40.6914L7.70727 43.0453Z" fill="black"/>
<path d="M7.89196 42.9395V43.3674L7.70703 43.4731V43.0451L7.89196 42.9395Z" fill="#2370FF"/>
<path opacity="0.3" d="M7.89196 42.9395V43.3674L7.70703 43.4731V43.0451L7.89196 42.9395Z" fill="black"/>
<path d="M6.03821 41.3728V37.6715L5.82422 37.5474V41.2486L6.03821 41.3728Z" fill="#455A64"/>
<path d="M10.8379 40.4219V44.6198L14.1746 46.5457V42.3478L10.8379 40.4219Z" fill="#37474F"/>
<path d="M11.2363 44.3531L14.1741 46.0492V42.3479L11.2363 40.6519V44.3531Z" fill="#2370FF"/>
<path opacity="0.8" d="M11.2363 44.3531L14.1741 46.0492V42.3479L11.2363 40.6519V44.3531Z" fill="white"/>
<path d="M10.8379 40.4219L11.2368 40.6517V44.353L10.8379 44.6198V40.4219Z" fill="#455A64"/>
<path d="M14.5445 46.7597L10.4681 44.4058L10.2832 44.5114L14.3623 46.8653L14.5445 46.7597Z" fill="#2370FF"/>
<path d="M14.3623 46.8656V47.2936L10.2832 44.9397V44.5117L14.3623 46.8656Z" fill="#2370FF"/>
<path opacity="0.2" d="M14.3623 46.8656V47.2936L10.2832 44.9397V44.5117L14.3623 46.8656Z" fill="black"/>
<path d="M14.5446 46.7598V47.1877L14.3623 47.2934V46.8654L14.5446 46.7598Z" fill="#2370FF"/>
<path opacity="0.3" d="M14.5446 46.7598V47.1877L14.3623 47.2934V46.8654L14.5446 46.7598Z" fill="black"/>
<path d="M12.6906 45.1931V41.4918L12.4766 41.3677V45.0689L12.6906 45.1931Z" fill="#455A64"/>
<path d="M17.4893 44.2417V48.4396L20.8259 50.3655V46.1676L17.4893 44.2417Z" fill="#37474F"/>
<path d="M17.8906 48.1727L20.8257 49.8688V46.1676L17.8906 44.4741V48.1727Z" fill="#2370FF"/>
<path opacity="0.8" d="M17.8906 48.1727L20.8257 49.8688V46.1676L17.8906 44.4741V48.1727Z" fill="white"/>
<path d="M17.4893 44.2417L17.8908 44.4742V48.1728L17.4893 48.4396V44.2417Z" fill="#455A64"/>
<path d="M21.1959 50.5795L17.1195 48.2256L16.9346 48.3313L21.0136 50.6852L21.1959 50.5795Z" fill="#2370FF"/>
<path d="M21.0136 50.6854V51.1134L16.9346 48.7595V48.3315L21.0136 50.6854Z" fill="#2370FF"/>
<path opacity="0.2" d="M21.0136 50.6854V51.1134L16.9346 48.7595V48.3315L21.0136 50.6854Z" fill="black"/>
<path d="M21.196 50.5796V51.0076L21.0137 51.1133V50.6853L21.196 50.5796Z" fill="#2370FF"/>
<path opacity="0.3" d="M21.196 50.5796V51.0076L21.0137 51.1133V50.6853L21.196 50.5796Z" fill="black"/>
<path d="M19.3446 49.0129V45.3117L19.1279 45.1875V48.8888L19.3446 49.0129Z" fill="#455A64"/>
<path d="M4.18555 42.7095V46.9074L7.51959 48.8333V44.6354L4.18555 42.7095Z" fill="#37474F"/>
<path d="M4.58496 46.6432L7.52008 48.3366V44.6353L4.58496 42.9419V46.6432Z" fill="#2370FF"/>
<path opacity="0.8" d="M4.58496 46.6432L7.52008 48.3366V44.6353L4.58496 42.9419V46.6432Z" fill="white"/>
<path d="M4.18555 42.7095L4.58447 42.942V46.6432L4.18555 46.9074V42.7095Z" fill="#455A64"/>
<path d="M7.89221 49.0473L3.81315 46.6934L3.63086 46.799L7.70727 49.1529L7.89221 49.0473Z" fill="#2370FF"/>
<path d="M7.70727 49.1532V49.5812L3.63086 47.2273V46.7993L7.70727 49.1532Z" fill="#2370FF"/>
<path opacity="0.2" d="M7.70727 49.1532V49.5812L3.63086 47.2273V46.7993L7.70727 49.1532Z" fill="black"/>
<path d="M7.89196 49.0474V49.4753L7.70703 49.581V49.153L7.89196 49.0474Z" fill="#2370FF"/>
<path opacity="0.3" d="M7.89196 49.0474V49.4753L7.70703 49.581V49.153L7.89196 49.0474Z" fill="black"/>
<path d="M6.03821 47.4807V43.7794L5.82422 43.6553V47.3565L6.03821 47.4807Z" fill="#455A64"/>
<path d="M10.8379 46.5322V50.7302L14.1746 52.6561V48.4581L10.8379 46.5322Z" fill="#37474F"/>
<path d="M11.2363 50.4635L14.1741 52.1595V48.4583L11.2363 46.7622V50.4635Z" fill="#2370FF"/>
<path opacity="0.8" d="M11.2363 50.4635L14.1741 52.1595V48.4583L11.2363 46.7622V50.4635Z" fill="white"/>
<path d="M10.8379 46.5322L11.2368 46.7621V50.4633L10.8379 50.7302V46.5322Z" fill="#455A64"/>
<path d="M14.5445 52.87L10.4681 50.5161L10.2832 50.6218L14.3623 52.9757L14.5445 52.87Z" fill="#2370FF"/>
<path d="M14.3623 52.976V53.404L10.2832 51.0501V50.6221L14.3623 52.976Z" fill="#2370FF"/>
<path opacity="0.2" d="M14.3623 52.976V53.404L10.2832 51.0501V50.6221L14.3623 52.976Z" fill="black"/>
<path d="M14.5446 52.8701V53.2981L14.3623 53.4038V52.9758L14.5446 52.8701Z" fill="#2370FF"/>
<path opacity="0.3" d="M14.5446 52.8701V53.2981L14.3623 53.4038V52.9758L14.5446 52.8701Z" fill="black"/>
<path d="M12.6906 51.3035V47.6022L12.4766 47.478V51.1793L12.6906 51.3035Z" fill="#455A64"/>
<path d="M17.4893 50.3525V54.5505L20.8259 56.4764V52.2785L17.4893 50.3525Z" fill="#37474F"/>
<path d="M17.8906 54.2838L20.8257 55.9799V52.2786L17.8906 50.5825V54.2838Z" fill="#2370FF"/>
<path opacity="0.8" d="M17.8906 54.2838L20.8257 55.9799V52.2786L17.8906 50.5825V54.2838Z" fill="white"/>
<path d="M17.4893 50.3525L17.8908 50.5824V54.2836L17.4893 54.5505V50.3525Z" fill="#455A64"/>
<path d="M21.1959 56.6903L17.1195 54.3364L16.9346 54.4421L21.0136 56.796L21.1959 56.6903Z" fill="#2370FF"/>
<path d="M21.0136 56.7963V57.2243L16.9346 54.8704V54.4424L21.0136 56.7963Z" fill="#2370FF"/>
<path opacity="0.2" d="M21.0136 56.7963V57.2243L16.9346 54.8704V54.4424L21.0136 56.7963Z" fill="black"/>
<path d="M21.196 56.6904V57.1184L21.0137 57.2241V56.7961L21.196 56.6904Z" fill="#2370FF"/>
<path opacity="0.3" d="M21.196 56.6904V57.1184L21.0137 57.2241V56.7961L21.196 56.6904Z" fill="black"/>
<path d="M19.3446 55.1238V51.4225L19.1279 51.2983V54.9996L19.3446 55.1238Z" fill="#455A64"/>
<path d="M4.18555 49.7026V53.9006L7.51959 55.8265V51.6286L4.18555 49.7026Z" fill="#37474F"/>
<path d="M4.58496 53.6339L7.52008 55.33V51.6287L4.58496 49.9326V53.6339Z" fill="#2370FF"/>
<path opacity="0.8" d="M4.58496 53.6339L7.52008 55.33V51.6287L4.58496 49.9326V53.6339Z" fill="white"/>
<path d="M4.18555 49.7026L4.58447 49.9325V53.6337L4.18555 53.9006V49.7026Z" fill="#455A64"/>
<path d="M7.89221 56.0404L3.81315 53.6865L3.63086 53.7922L7.70727 56.1461L7.89221 56.0404Z" fill="#2370FF"/>
<path d="M7.70727 56.1464V56.5744L3.63086 54.2205V53.7925L7.70727 56.1464Z" fill="#2370FF"/>
<path opacity="0.2" d="M7.70727 56.1464V56.5744L3.63086 54.2205V53.7925L7.70727 56.1464Z" fill="black"/>
<path d="M7.89196 56.0405V56.4685L7.70703 56.5742V56.1462L7.89196 56.0405Z" fill="#2370FF"/>
<path opacity="0.3" d="M7.89196 56.0405V56.4685L7.70703 56.5742V56.1462L7.89196 56.0405Z" fill="black"/>
<path d="M6.03821 54.4739V50.7726L5.82422 50.6484V54.3497L6.03821 54.4739Z" fill="#455A64"/>
<path d="M10.8379 53.5229V57.7209L14.1746 59.6468V55.4489L10.8379 53.5229Z" fill="#37474F"/>
<path d="M11.2363 57.4542L14.1741 59.1503V55.449L11.2363 53.7529V57.4542Z" fill="#2370FF"/>
<path opacity="0.8" d="M11.2363 57.4542L14.1741 59.1503V55.449L11.2363 53.7529V57.4542Z" fill="white"/>
<path d="M10.8379 53.5229L11.2368 53.7528V57.4541L10.8379 57.7209V53.5229Z" fill="#455A64"/>
<path d="M14.5445 59.8607L10.4681 57.5068L10.2832 57.6125L14.3623 59.9664L14.5445 59.8607Z" fill="#2370FF"/>
<path d="M14.3623 59.9667V60.3947L10.2832 58.0408V57.6128L14.3623 59.9667Z" fill="#2370FF"/>
<path opacity="0.2" d="M14.3623 59.9667V60.3947L10.2832 58.0408V57.6128L14.3623 59.9667Z" fill="black"/>
<path d="M14.5446 59.8608V60.2888L14.3623 60.3945V59.9665L14.5446 59.8608Z" fill="#2370FF"/>
<path opacity="0.3" d="M14.5446 59.8608V60.2888L14.3623 60.3945V59.9665L14.5446 59.8608Z" fill="black"/>
<path d="M12.6906 58.2942V54.5929L12.4766 54.4688V58.17L12.6906 58.2942Z" fill="#455A64"/>
<path d="M17.4893 57.3428V61.5407L20.8259 63.4666V59.2687L17.4893 57.3428Z" fill="#37474F"/>
<path d="M17.8906 61.2767L20.8257 62.9701V59.2688L17.8906 57.5728V61.2767Z" fill="#2370FF"/>
<path opacity="0.8" d="M17.8906 61.2767L20.8257 62.9701V59.2688L17.8906 57.5728V61.2767Z" fill="white"/>
<path d="M17.4893 57.3428L17.8908 57.5726V61.2765L17.4893 61.5407V57.3428Z" fill="#455A64"/>
<path d="M21.1959 63.6806L17.1195 61.3267L16.9346 61.4323L21.0136 63.7862L21.1959 63.6806Z" fill="#2370FF"/>
<path d="M21.0136 63.7865V64.2145L16.9346 61.8606V61.4326L21.0136 63.7865Z" fill="#2370FF"/>
<path opacity="0.2" d="M21.0136 63.7865V64.2145L16.9346 61.8606V61.4326L21.0136 63.7865Z" fill="black"/>
<path d="M21.196 63.6807V64.1086L21.0137 64.2143V63.7863L21.196 63.6807Z" fill="#2370FF"/>
<path opacity="0.3" d="M21.196 63.6807V64.1086L21.0137 64.2143V63.7863L21.196 63.6807Z" fill="black"/>
<path d="M19.3446 62.114V58.4127L19.1279 58.2886V61.9898L19.3446 62.114Z" fill="#455A64"/>
<path d="M4.18555 55.8105V60.0085L7.51959 61.9344V57.7365L4.18555 55.8105Z" fill="#37474F"/>
<path d="M4.58496 59.7442L7.52008 61.4377V57.7364L4.58496 56.043V59.7442Z" fill="#2370FF"/>
<path opacity="0.8" d="M4.58496 59.7442L7.52008 61.4377V57.7364L4.58496 56.043V59.7442Z" fill="white"/>
<path d="M4.18555 55.8105L4.58447 56.043V59.7443L4.18555 60.0085V55.8105Z" fill="#455A64"/>
<path d="M7.89221 62.1483L3.81315 59.7944L3.63086 59.9001L7.70727 62.254L7.89221 62.1483Z" fill="#2370FF"/>
<path d="M7.70727 62.2543V62.6823L3.63086 60.3284V59.9004L7.70727 62.2543Z" fill="#2370FF"/>
<path opacity="0.2" d="M7.70727 62.2543V62.6823L3.63086 60.3284V59.9004L7.70727 62.2543Z" fill="black"/>
<path d="M7.89196 62.1484V62.5764L7.70703 62.6821V62.2541L7.89196 62.1484Z" fill="#2370FF"/>
<path opacity="0.3" d="M7.89196 62.1484V62.5764L7.70703 62.6821V62.2541L7.89196 62.1484Z" fill="black"/>
<path d="M6.03821 60.5818V56.8805L5.82422 56.7563V60.4576L6.03821 60.5818Z" fill="#455A64"/>
<path d="M10.8379 59.6333V63.8312L14.1746 65.7571V61.5592L10.8379 59.6333Z" fill="#37474F"/>
<path d="M11.2363 63.5645L14.1741 65.2606V61.5594L11.2363 59.8633V63.5645Z" fill="#2370FF"/>
<path opacity="0.8" d="M11.2363 63.5645L14.1741 65.2606V61.5594L11.2363 59.8633V63.5645Z" fill="white"/>
<path d="M10.8379 59.6333L11.2368 59.8631V63.5644L10.8379 63.8312V59.6333Z" fill="#455A64"/>
<path d="M14.5445 65.9711L10.4681 63.6172L10.2832 63.7229L14.3623 66.0768L14.5445 65.9711Z" fill="#2370FF"/>
<path d="M14.3623 66.077V66.505L10.2832 64.1511V63.7231L14.3623 66.077Z" fill="#2370FF"/>
<path opacity="0.2" d="M14.3623 66.077V66.505L10.2832 64.1511V63.7231L14.3623 66.077Z" fill="black"/>
<path d="M14.5446 65.9712V66.3992L14.3623 66.5048V66.0769L14.5446 65.9712Z" fill="#2370FF"/>
<path opacity="0.3" d="M14.5446 65.9712V66.3992L14.3623 66.5048V66.0769L14.5446 65.9712Z" fill="black"/>
<path d="M12.6906 64.4045V60.7033L12.4766 60.5791V64.2804L12.6906 64.4045Z" fill="#455A64"/>
<path d="M17.4893 63.4536V67.6515L20.8259 69.5775V65.3795L17.4893 63.4536Z" fill="#37474F"/>
<path d="M17.8906 67.3849L20.8257 69.0809V65.3797L17.8906 63.6836V67.3849Z" fill="#2370FF"/>
<path opacity="0.8" d="M17.8906 67.3849L20.8257 69.0809V65.3797L17.8906 63.6836V67.3849Z" fill="white"/>
<path d="M17.4893 63.4536L17.8908 63.6835V67.3847L17.4893 67.6515V63.4536Z" fill="#455A64"/>
<path d="M21.1959 69.7914L17.1195 67.4375L16.9346 67.5432L21.0136 69.8971L21.1959 69.7914Z" fill="#2370FF"/>
<path d="M21.0136 69.8974V70.3253L16.9346 67.9714V67.5435L21.0136 69.8974Z" fill="#2370FF"/>
<path opacity="0.2" d="M21.0136 69.8974V70.3253L16.9346 67.9714V67.5435L21.0136 69.8974Z" fill="black"/>
<path d="M21.196 69.7915V70.2195L21.0137 70.3252V69.8972L21.196 69.7915Z" fill="#2370FF"/>
<path opacity="0.3" d="M21.196 69.7915V70.2195L21.0137 70.3252V69.8972L21.196 69.7915Z" fill="black"/>
<path d="M19.3446 68.2248V64.5236L19.1279 64.3994V68.1007L19.3446 68.2248Z" fill="#455A64"/>
<path d="M4.18555 62.8037V67.0016L7.51959 68.9276V64.7296L4.18555 62.8037Z" fill="#37474F"/>
<path d="M4.58496 66.735L7.52008 68.431V64.7298L4.58496 63.0337V66.735Z" fill="#2370FF"/>
<path opacity="0.8" d="M4.58496 66.735L7.52008 68.431V64.7298L4.58496 63.0337V66.735Z" fill="white"/>
<path d="M4.18555 62.8037L4.58447 63.0336V66.7348L4.18555 67.0016V62.8037Z" fill="#455A64"/>
<path d="M7.89221 69.1415L3.81315 66.7876L3.63086 66.8933L7.70727 69.2472L7.89221 69.1415Z" fill="#2370FF"/>
<path d="M7.70727 69.2475V69.6754L3.63086 67.3215V66.8936L7.70727 69.2475Z" fill="#2370FF"/>
<path opacity="0.2" d="M7.70727 69.2475V69.6754L3.63086 67.3215V66.8936L7.70727 69.2475Z" fill="black"/>
<path d="M7.89196 69.1416V69.5696L7.70703 69.6753V69.2473L7.89196 69.1416Z" fill="#2370FF"/>
<path opacity="0.3" d="M7.89196 69.1416V69.5696L7.70703 69.6753V69.2473L7.89196 69.1416Z" fill="black"/>
<path d="M6.03821 67.5749V63.8737L5.82422 63.7495V67.4508L6.03821 67.5749Z" fill="#455A64"/>
<path d="M10.8379 66.6235V70.8215L14.1746 72.7474V68.5495L10.8379 66.6235Z" fill="#37474F"/>
<path d="M11.2363 70.5548L14.1741 72.2509V68.5496L11.2363 66.8535V70.5548Z" fill="#2370FF"/>
<path opacity="0.8" d="M11.2363 70.5548L14.1741 72.2509V68.5496L11.2363 66.8535V70.5548Z" fill="white"/>
<path d="M10.8379 66.6235L11.2368 66.8534V70.5546L10.8379 70.8215V66.6235Z" fill="#455A64"/>
<path d="M14.5445 72.9613L10.4681 70.6074L10.2832 70.7131L14.3623 73.067L14.5445 72.9613Z" fill="#2370FF"/>
<path d="M14.3623 73.0673V73.4953L10.2832 71.1414V70.7134L14.3623 73.0673Z" fill="#2370FF"/>
<path opacity="0.2" d="M14.3623 73.0673V73.4953L10.2832 71.1414V70.7134L14.3623 73.0673Z" fill="black"/>
<path d="M14.5446 72.9614V73.3894L14.3623 73.4951V73.0671L14.5446 72.9614Z" fill="#2370FF"/>
<path opacity="0.3" d="M14.5446 72.9614V73.3894L14.3623 73.4951V73.0671L14.5446 72.9614Z" fill="black"/>
<path d="M12.6906 71.3948V67.6935L12.4766 67.5693V71.2706L12.6906 71.3948Z" fill="#455A64"/>
<path d="M17.4893 70.4438V74.6418L20.8259 76.5677V72.3698L17.4893 70.4438Z" fill="#37474F"/>
<path d="M17.8906 74.3775L20.8257 76.071V72.3697L17.8906 70.6763V74.3775Z" fill="#2370FF"/>
<path opacity="0.8" d="M17.8906 74.3775L20.8257 76.071V72.3697L17.8906 70.6763V74.3775Z" fill="white"/>
<path d="M17.4893 70.4438L17.8908 70.6763V74.3776L17.4893 74.6418V70.4438Z" fill="#455A64"/>
<path d="M21.1959 76.7816L17.1195 74.4277L16.9346 74.5334L21.0136 76.8873L21.1959 76.7816Z" fill="#2370FF"/>
<path d="M21.0136 76.8876V77.3156L16.9346 74.9617V74.5337L21.0136 76.8876Z" fill="#2370FF"/>
<path opacity="0.2" d="M21.0136 76.8876V77.3156L16.9346 74.9617V74.5337L21.0136 76.8876Z" fill="black"/>
<path d="M21.196 76.7817V77.2097L21.0137 77.3154V76.8874L21.196 76.7817Z" fill="#2370FF"/>
<path opacity="0.3" d="M21.196 76.7817V77.2097L21.0137 77.3154V76.8874L21.196 76.7817Z" fill="black"/>
<path d="M19.3446 75.2151V71.5138L19.1279 71.3896V75.0909L19.3446 75.2151Z" fill="#455A64"/>
<path d="M4.18555 68.9116V73.1095L7.51959 75.0355V70.8375L4.18555 68.9116Z" fill="#37474F"/>
<path d="M4.58496 72.8453L7.52008 74.5387V70.8375L4.58496 69.144V72.8453Z" fill="#2370FF"/>
<path opacity="0.8" d="M4.58496 72.8453L7.52008 74.5387V70.8375L4.58496 69.144V72.8453Z" fill="white"/>
<path d="M4.18555 68.9116L4.58447 69.1441V72.8454L4.18555 73.1095V68.9116Z" fill="#455A64"/>
<path d="M7.89221 75.2494L3.81315 72.8955L3.63086 73.0012L7.70727 75.3551L7.89221 75.2494Z" fill="#2370FF"/>
<path d="M7.70727 75.3554V75.7834L3.63086 73.4294V73.0015L7.70727 75.3554Z" fill="#2370FF"/>
<path opacity="0.2" d="M7.70727 75.3554V75.7834L3.63086 73.4294V73.0015L7.70727 75.3554Z" fill="black"/>
<path d="M7.89196 75.2495V75.6775L7.70703 75.7832V75.3552L7.89196 75.2495Z" fill="#2370FF"/>
<path opacity="0.3" d="M7.89196 75.2495V75.6775L7.70703 75.7832V75.3552L7.89196 75.2495Z" fill="black"/>
<path d="M6.03821 73.6829V69.9816L5.82422 69.8574V73.5613L6.03821 73.6829Z" fill="#455A64"/>
<path d="M10.8379 72.7344V76.9323L14.1746 78.8582V74.6603L10.8379 72.7344Z" fill="#37474F"/>
<path d="M11.2363 76.6656L14.1741 78.3617V74.6604L11.2363 72.9644V76.6656Z" fill="#2370FF"/>
<path opacity="0.8" d="M11.2363 76.6656L14.1741 78.3617V74.6604L11.2363 72.9644V76.6656Z" fill="white"/>
<path d="M10.8379 72.7344L11.2368 72.9642V76.6655L10.8379 76.9323V72.7344Z" fill="#455A64"/>
<path d="M14.5445 79.0722L10.4681 76.7183L10.2832 76.8239L14.3623 79.1778L14.5445 79.0722Z" fill="#2370FF"/>
<path d="M14.3623 79.1781V79.6061L10.2832 77.2522V76.8242L14.3623 79.1781Z" fill="#2370FF"/>
<path opacity="0.2" d="M14.3623 79.1781V79.6061L10.2832 77.2522V76.8242L14.3623 79.1781Z" fill="black"/>
<path d="M14.5446 79.0723V79.5002L14.3623 79.6059V79.1779L14.5446 79.0723Z" fill="#2370FF"/>
<path opacity="0.3" d="M14.5446 79.0723V79.5002L14.3623 79.6059V79.1779L14.5446 79.0723Z" fill="black"/>
<path d="M12.6906 77.5056V73.8043L12.4766 73.6802V77.3814L12.6906 77.5056Z" fill="#455A64"/>
<path d="M17.4893 76.5547V80.7526L20.8259 82.6785V78.4806L17.4893 76.5547Z" fill="#37474F"/>
<path d="M17.8906 80.4859L20.8257 82.182V78.4808L17.8906 76.7847V80.4859Z" fill="#2370FF"/>
<path opacity="0.8" d="M17.8906 80.4859L20.8257 82.182V78.4808L17.8906 76.7847V80.4859Z" fill="white"/>
<path d="M17.4893 76.5547L17.8908 76.7845V80.4858L17.4893 80.7526V76.5547Z" fill="#455A64"/>
<path d="M21.1959 82.8925L17.1195 80.5386L16.9346 80.6442L21.0136 82.9982L21.1959 82.8925Z" fill="#2370FF"/>
<path d="M21.0136 82.9984V83.4264L16.9346 81.0725V80.6445L21.0136 82.9984Z" fill="#2370FF"/>
<path opacity="0.2" d="M21.0136 82.9984V83.4264L16.9346 81.0725V80.6445L21.0136 82.9984Z" fill="black"/>
<path d="M21.196 82.8926V83.3206L21.0137 83.4262V82.9983L21.196 82.8926Z" fill="#2370FF"/>
<path opacity="0.3" d="M21.196 82.8926V83.3206L21.0137 83.4262V82.9983L21.196 82.8926Z" fill="black"/>
<path d="M19.3446 81.3259V77.6247L19.1279 77.5005V81.2017L19.3446 81.3259Z" fill="#455A64"/>
</svg>
