<svg width="123" height="92" viewBox="0 0 123 92" fill="none" xmlns="http://www.w3.org/2000/svg">
<path d="M0.832581 58.5518L81.7228 11.8525L122.168 35.2022L41.2777 81.9014L0.832581 58.5518Z" fill="#70A2FF"/>
<path opacity="0.15" d="M117.915 35.202L41.2787 79.4083L5.08756 58.5154L81.7239 14.3091L117.915 35.202ZM115.784 35.202L81.7239 15.5338L7.21816 58.5444L41.2787 78.2125L115.784 35.202Z" fill="black"/>
<g opacity="0.15">
<path d="M59.9888 58.9649C65.5037 58.9649 71.1563 57.6967 75.5189 55.1748C79.7656 52.7253 82.1934 49.3772 82.1934 46.0074C82.1934 42.9057 80.2005 40.0504 76.5842 37.9561C68.8518 33.4992 55.8 33.7746 47.4806 38.5721C43.2411 41.0215 40.8061 44.3696 40.8061 47.7467C40.8061 50.8411 42.799 53.7036 46.4153 55.7908C50.0315 57.8779 54.9811 58.9649 59.9888 58.9649ZM63.0107 35.5066C67.8879 35.5066 72.6419 36.5284 76.2219 38.5938C79.6062 40.5505 81.4687 43.1811 81.4687 46.0147C81.4687 49.1236 79.1714 52.2398 75.1566 54.5588C67.04 59.2403 54.3072 59.5229 46.7776 55.1748C43.3933 53.2181 41.5308 50.5802 41.5308 47.7539C41.5308 44.6377 43.8281 41.5288 47.8429 39.2098C52.1041 36.7458 57.6335 35.5066 63.0107 35.5066Z" fill="black"/>
</g>
<g opacity="0.1">
<path d="M59.9897 56.3557C65.2292 56.3557 70.4108 55.102 74.2081 52.9062C77.6215 50.935 79.5781 48.4203 79.5781 46.0071C79.5781 43.8837 78.049 41.8328 75.2734 40.2095C72.1065 38.3833 67.7511 37.376 63.0116 37.376C57.7721 37.376 52.5906 38.6369 48.7932 40.8255C45.3799 42.7967 43.4232 45.3114 43.4232 47.7318C43.4232 49.8552 44.9523 51.9061 47.7279 53.5294C50.8948 55.3484 55.2792 56.3557 59.9897 56.3557Z" fill="black"/>
</g>
<path opacity="0.1" d="M45.5389 73.9155L67.7725 60.9942L65.9897 61.2261C64.3986 61.4294 62.7962 61.5311 61.1922 61.5305C55.7852 61.4329 50.481 60.036 45.7273 57.4577C41.7922 55.1894 37.8209 51.1239 37.8209 47.1671C37.8293 45.7869 38.1358 44.4247 38.7195 43.174L39.1978 42.1377L14.8481 56.2765L17.515 57.8201C17.9643 58.081 18.2397 58.3998 18.2397 58.7332C18.2103 58.9358 18.1277 59.127 18.0004 59.2874C17.8731 59.4478 17.7057 59.5716 17.515 59.6463L14.8409 61.1899L37.0237 73.9155L39.3355 72.5603C39.9405 72.2569 40.6081 72.0988 41.2849 72.0988C41.9618 72.0988 42.6293 72.2569 43.2344 72.5603L45.5389 73.9155Z" fill="black"/>
<path d="M35.7128 64.8638C37.0066 64.8835 38.284 64.5716 39.4232 63.9579C39.8842 63.7476 40.2821 63.4202 40.5771 63.0082C40.8721 62.5962 41.0539 62.1141 41.1045 61.6099C41.0743 61.1625 40.9236 60.7317 40.6684 60.363C40.4133 59.9943 40.0631 59.7015 39.6551 59.5156C38.5635 58.9909 37.3639 58.73 36.1529 58.7539C34.942 58.7779 33.7536 59.0859 32.6836 59.6532C32.2216 59.8641 31.8231 60.1927 31.528 60.6061C31.2329 61.0194 31.0516 61.503 31.0023 62.0085C31.0317 62.4561 31.1821 62.8873 31.4374 63.2561C31.6926 63.6249 32.0432 63.9176 32.4517 64.1029C33.4567 64.6286 34.5788 64.8904 35.7128 64.8638Z" fill="#70A2FF"/>
<path opacity="0.1" d="M83.7524 51.6091L108.051 37.608L105.384 36.0717C105.183 36.0174 105.005 35.8982 104.878 35.7325C104.751 35.5667 104.682 35.3638 104.682 35.155C104.682 34.9462 104.751 34.7432 104.878 34.5774C105.005 34.4117 105.183 34.2925 105.384 34.2382L108.059 32.6946L85.912 20.085L83.6074 21.4184C83.0034 21.7207 82.3371 21.8781 81.6616 21.8781C80.9861 21.8781 80.3199 21.7207 79.7158 21.4184L77.4041 20.085L55.1777 32.8758L56.975 32.6439C58.5684 32.4401 60.1733 32.3385 61.7797 32.3395C67.0482 32.3395 73.3386 33.9266 77.4403 36.2963C82.5566 39.2531 85.151 42.42 85.151 45.7174C85.1344 47.3813 84.8177 49.0286 84.2162 50.58L83.7524 51.6091Z" fill="black"/>
<path d="M86.6513 35.5934C87.9473 35.6121 89.2267 35.3004 90.3689 34.6876C90.8296 34.4757 91.2266 34.1467 91.5203 33.7334C91.8141 33.3201 91.9943 32.837 92.043 32.3323C92.013 31.8858 91.8623 31.4558 91.6071 31.0882C91.3518 30.7206 91.0015 30.4293 90.5936 30.2452C89.5024 29.7189 88.3026 29.4571 87.0914 29.481C85.8801 29.5049 84.6916 29.8139 83.622 30.3829C83.1614 30.5948 82.7644 30.9238 82.4706 31.3371C82.1769 31.7504 81.9967 32.2335 81.948 32.7382C81.9787 33.1845 82.1297 33.6141 82.3849 33.9816C82.64 34.3491 82.9899 34.6406 83.3974 34.8253C84.3984 35.3557 85.5188 35.6202 86.6513 35.5934Z" fill="#70A2FF"/>
<path d="M0.834175 58.5518V68.3786L41.2793 91.7282V81.9014L0.834175 58.5518Z" fill="#70A2FF"/>
<g opacity="0.4">
<path d="M0.832222 58.5518V68.3786L41.2773 91.7282V81.9014L0.832222 58.5518Z" fill="white"/>
</g>
<path d="M41.2793 84.0898L28.5102 76.9878L41.2793 84.684V84.0898Z" fill="#70A2FF"/>
<path d="M0.831574 63.2188L5.09277 65.9219L0.831574 63.7116V63.2188Z" fill="#70A2FF"/>
<path d="M0.831966 65.5596L22.1162 78.2127L0.831966 66.2843V65.5596Z" fill="#70A2FF"/>
<path d="M41.2793 86.4306L19.9951 74.5239L41.2793 87.2061V86.4306Z" fill="#70A2FF"/>
<path d="M41.2777 91.7282L122.168 45.029V35.2021L41.2777 81.9014V91.7282Z" fill="#70A2FF"/>
<g opacity="0.15">
<path d="M41.2777 91.7282L122.168 45.029V35.2021L41.2777 81.9014V91.7282Z" fill="black"/>
</g>
<g style="mix-blend-mode:multiply" opacity="0.3">
<path d="M41.2769 84.09L45.5381 81.9014L41.2769 84.6842V84.09Z" fill="black"/>
</g>
<g style="mix-blend-mode:multiply" opacity="0.3">
<path d="M41.2771 86.431L62.6846 74.4663L41.2771 87.2064V86.431Z" fill="black"/>
</g>
<g style="mix-blend-mode:multiply" opacity="0.3">
<path d="M122.168 39.8257L107.268 48.7177L122.168 40.4055V39.8257Z" fill="black"/>
</g>
<g style="mix-blend-mode:multiply" opacity="0.3">
<path d="M122.168 42.2969L113.653 47.4929L122.168 42.8476V42.2969Z" fill="black"/>
</g>
<path d="M34.2324 37.6371L76.0834 61.8057L88.8525 54.4355L47.0015 30.2598L34.2324 37.6371Z" fill="#FAFAFA"/>
<path d="M88.8525 54.4355V65.132L76.0834 72.5021V61.8057L88.8525 54.4355Z" fill="#EBEBEB"/>
<path d="M76.084 72.502L75.3375 72.0672L76.084 71.6396V72.502Z" fill="#E0E0E0"/>
<path d="M34.2343 37.6372V39.2678L35.6475 38.4489L34.2343 37.6372Z" fill="#E0E0E0"/>
<g style="mix-blend-mode:multiply" opacity="0.3">
<path d="M75.3395 72.0601V62.2405L76.0859 61.8057V71.6325L75.3395 72.0601Z" fill="black"/>
</g>
<g style="mix-blend-mode:multiply" opacity="0.2">
<path d="M75.3395 62.2404L34.8944 38.8836L35.6481 38.4487L76.0859 61.8056L75.3395 62.2404Z" fill="black"/>
</g>
<path d="M35.6028 36.8402L77.4683 61.0087L78.5264 60.3927L36.6753 36.2314L35.6028 36.8402Z" fill="#455A64"/>
<path d="M44.5514 31.68L86.4097 55.8413L87.4678 55.2326L45.6167 31.0713L44.5514 31.68Z" fill="#455A64"/>
<path d="M77.4683 61.0086V71.705L78.5264 71.0891V60.3926L77.4683 61.0086Z" fill="#263238"/>
<path d="M86.4122 55.8416V66.5381L87.4775 65.9221L87.4703 55.2329L86.4122 55.8416Z" fill="#263238"/>
<path d="M0.832581 46.9712L81.7228 0.271973L122.168 23.6216L41.2777 70.3208L0.832581 46.9712Z" fill="#70A2FF"/>
<path opacity="0.15" d="M117.915 23.6219L41.2787 67.8282L5.08756 46.9353L81.7239 2.729L117.915 23.6219ZM115.784 23.6219L81.7239 3.96099L7.21816 46.9715L41.2787 66.6397L115.784 23.6219Z" fill="black"/>
<g opacity="0.15">
<path d="M59.9888 47.3917C65.5037 47.3917 71.1563 46.1163 75.5189 43.6016C79.7656 41.1521 82.1934 37.804 82.1934 34.427C82.1934 31.3325 80.2005 28.47 76.5842 26.3829C68.8518 21.9188 55.8 22.1942 47.4806 26.9989C43.2411 29.4483 40.8061 32.7964 40.8061 36.1735C40.8061 39.2679 42.799 42.1232 46.4153 44.2176C50.0315 46.3119 54.9811 47.3917 59.9888 47.3917ZM63.0107 23.9117C67.8879 23.9117 72.6419 24.9335 76.2219 27.0061C79.6062 28.9555 81.4687 31.5934 81.4687 34.4197C81.4687 37.5359 79.1714 40.6521 75.1566 42.9639C67.04 47.6526 54.3072 47.928 46.7776 43.5799C43.3933 41.6232 41.5308 38.9925 41.5308 36.1662C41.5308 33.0501 43.8281 29.9339 47.8429 27.6148C52.1041 25.1654 57.6335 23.9117 63.0107 23.9117Z" fill="black"/>
</g>
<g opacity="0.1">
<path d="M59.9897 44.7828C65.2292 44.7828 70.4108 43.5219 74.2081 41.3333C77.6215 39.3622 79.5781 36.8475 79.5781 34.427C79.5781 32.3036 78.049 30.2528 75.2734 28.6295C72.1065 26.8032 67.7511 25.7959 63.0116 25.7959C57.7721 25.7959 52.5906 27.0496 48.7932 29.2454C45.3799 31.2166 43.4232 33.7313 43.4232 36.1518C43.4232 38.2751 44.9523 40.326 47.7279 41.9493C50.8948 43.7755 55.2792 44.7828 59.9897 44.7828Z" fill="black"/>
</g>
<path opacity="0.1" d="M45.5389 62.3204L67.7725 49.4063L65.9897 49.6382C64.3986 49.8415 62.7962 49.9432 61.1922 49.9426C55.7852 49.845 50.481 48.4481 45.7273 45.8698C41.7922 43.6015 37.8209 39.536 37.8209 35.5719C37.8301 34.1941 38.1366 32.8346 38.7195 31.5861L39.1978 30.5498L14.8481 44.6813L17.515 46.2249C17.7048 46.3008 17.8716 46.425 17.9987 46.5852C18.1258 46.7453 18.2089 46.9359 18.2397 47.138C18.2115 47.342 18.1295 47.5347 18.0021 47.6964C17.8748 47.8582 17.7066 47.9831 17.515 48.0584L14.8409 49.602L37.0237 62.3204L39.3355 60.9869C39.9405 60.6835 40.6081 60.5254 41.2849 60.5254C41.9618 60.5254 42.6293 60.6835 43.2344 60.9869L45.5389 62.3204Z" fill="black"/>
<path d="M35.7128 53.2907C37.0066 53.3104 38.284 52.9986 39.4232 52.3848C39.8852 52.174 40.2837 51.8454 40.5788 51.432C40.8738 51.0187 41.0551 50.5351 41.1045 50.0296C41.073 49.5835 40.9217 49.1542 40.6666 48.7868C40.4116 48.4195 40.0621 48.1278 39.6551 47.9425C38.5639 47.4161 37.3641 47.1543 36.1529 47.1783C34.9416 47.2022 33.7531 47.5112 32.6836 48.0802C32.2216 48.2911 31.8231 48.6196 31.528 49.033C31.2329 49.4463 31.0516 49.93 31.0023 50.4354C31.0322 50.8819 31.1829 51.3119 31.4382 51.6795C31.6934 52.0471 32.0437 52.3385 32.4517 52.5225C33.4548 53.0541 34.5778 53.3187 35.7128 53.2907Z" fill="#70A2FF"/>
<path opacity="0.1" d="M83.7524 40.0358L108.051 26.0347L105.384 24.4911C105.194 24.4165 105.026 24.2927 104.899 24.1323C104.772 23.9719 104.689 23.7807 104.66 23.578C104.66 23.2447 104.906 22.9258 105.384 22.6649L108.059 21.1141L85.912 8.50439L83.6074 9.84508C83.0022 10.1436 82.3365 10.2988 81.6616 10.2988C80.9868 10.2988 80.3211 10.1436 79.7158 9.84508L77.4041 8.51165L55.1777 21.3097L56.975 21.0778C58.5683 20.8716 60.1731 20.7676 61.7797 20.7662C67.0482 20.7662 73.3386 22.3605 77.4403 24.7303C82.5566 27.687 85.151 30.8539 85.151 34.1513C85.133 35.8151 84.8163 37.4621 84.2162 39.014L83.7524 40.0358Z" fill="black"/>
<path d="M86.6513 24.0201C87.9473 24.0388 89.2267 23.727 90.3689 23.1142C90.8296 22.9024 91.2266 22.5734 91.5203 22.1601C91.8141 21.7468 91.9943 21.2637 92.043 20.759C92.0135 20.3114 91.8631 19.8802 91.6079 19.5114C91.3526 19.1426 91.0021 18.8499 90.5936 18.6646C89.5019 18.1394 88.3017 17.8788 87.0905 17.904C85.8793 17.9292 84.691 18.2394 83.622 18.8096C83.1624 19.0208 82.766 19.3487 82.4723 19.7606C82.1786 20.1726 81.9979 20.6542 81.948 21.1576C81.9775 21.6052 82.1278 22.0364 82.3831 22.4052C82.6383 22.774 82.9889 23.0667 83.3974 23.2519C84.3984 23.7823 85.5188 24.0468 86.6513 24.0201Z" fill="#70A2FF"/>
<path d="M0.834175 46.9712V56.8053L41.2793 80.1549V70.3208L0.834175 46.9712Z" fill="#70A2FF"/>
<g opacity="0.4">
<path d="M0.832222 46.9712V56.8053L41.2773 80.1549V70.3208L0.832222 46.9712Z" fill="white"/>
</g>
<path d="M41.2793 72.5165L28.5102 65.4072L41.2793 73.1107V72.5165Z" fill="#70A2FF"/>
<path d="M0.831574 51.6455L5.09277 54.3486L0.831574 52.1383V51.6455Z" fill="#70A2FF"/>
<path d="M0.831966 53.9863L22.1162 66.6395L0.831966 54.711V53.9863Z" fill="#70A2FF"/>
<path d="M41.2793 74.8574L19.9951 62.9507L41.2793 75.6256V74.8574Z" fill="#70A2FF"/>
<path d="M41.2777 80.1549L122.168 33.4557V23.6216L41.2777 70.3208V80.1549Z" fill="#70A2FF"/>
<g opacity="0.15">
<path d="M41.2777 80.1549L122.168 33.4557V23.6216L41.2777 70.3208V80.1549Z" fill="black"/>
</g>
<g style="mix-blend-mode:multiply" opacity="0.3">
<path d="M41.2769 72.5166L45.5381 70.3208L41.2769 73.1109V72.5166Z" fill="black"/>
</g>
<g style="mix-blend-mode:multiply" opacity="0.3">
<path d="M41.2771 74.8572L62.6846 62.8926L41.2771 75.6254V74.8572Z" fill="black"/>
</g>
<g style="mix-blend-mode:multiply" opacity="0.3">
<path d="M122.168 28.2524L107.268 37.1444L122.168 28.8322V28.2524Z" fill="black"/>
</g>
<g style="mix-blend-mode:multiply" opacity="0.3">
<path d="M122.168 30.7236L113.653 35.9124L122.168 31.2744V30.7236Z" fill="black"/>
</g>
<path d="M34.2324 26.0566L76.0834 50.2252L88.8525 42.855L47.0015 18.6865L34.2324 26.0566Z" fill="#FAFAFA"/>
<path d="M88.8525 42.855V53.5514L76.0834 60.9216V50.2251L88.8525 42.855Z" fill="#EBEBEB"/>
<path d="M76.084 60.9215L75.3375 60.4939L76.084 60.0591V60.9215Z" fill="#E0E0E0"/>
<path d="M34.2343 26.0566V27.6945L35.6475 26.8755L34.2343 26.0566Z" fill="#E0E0E0"/>
<g style="mix-blend-mode:multiply" opacity="0.3">
<path d="M75.3395 60.4868V50.6599L76.0859 50.2251V60.0592L75.3395 60.4868Z" fill="black"/>
</g>
<g style="mix-blend-mode:multiply" opacity="0.2">
<path d="M75.3395 50.6599L34.8944 27.3103L35.6481 26.8755L76.0859 50.2251L75.3395 50.6599Z" fill="black"/>
</g>
<path d="M35.6028 25.2669L77.4683 49.4281L78.5264 48.8194L36.6753 24.6509L35.6028 25.2669Z" fill="#455A64"/>
<path d="M44.5514 20.1067L86.4097 44.268L87.4678 43.652L45.6167 19.4907L44.5514 20.1067Z" fill="#455A64"/>
<path d="M77.4683 49.4281V60.1318L78.5264 59.5158V48.8193L77.4683 49.4281Z" fill="#263238"/>
<path d="M86.4122 44.2683V54.9648L87.4775 54.3488L87.4703 43.6523L86.4122 44.2683Z" fill="#263238"/>
</svg>
