<svg width="81" height="81" viewBox="0 0 81 81" fill="none" xmlns="http://www.w3.org/2000/svg">
<circle cx="40.5" cy="40.5" r="40.5" fill="#E7E7E7"/>
<path d="M36.537 26.645L35.1311 24.4834C25.404 31.0218 20 38.966 20 45.5044C20 51.8266 24.6483 54.7992 28.5927 54.7992C33.5644 54.7992 37.0765 50.5833 37.0765 46.1529C37.0765 42.4246 34.6988 39.2358 31.51 38.0461C30.5918 37.721 29.7271 37.4512 29.7271 35.8845C29.7271 33.8854 31.1866 30.9146 36.537 26.645ZM57.9903 26.645L56.5844 24.4834C46.9645 31.0218 41.4533 38.966 41.4533 45.5044C41.4533 51.8266 46.2088 54.7992 50.1533 54.7992C55.1785 54.7992 58.746 50.5833 58.746 46.1529C58.746 42.4246 56.3147 39.2358 53.0169 38.0461C52.0987 37.721 51.2877 37.4512 51.2877 35.8845C51.2877 33.8854 52.8008 30.9128 57.9886 26.6433L57.9903 26.645Z" fill="#0057E4"/>
</svg>
