<svg width="25" height="24" viewBox="0 0 25 24" fill="none" xmlns="http://www.w3.org/2000/svg">
<g opacity="0.3">
<path d="M14.6842 5L19.5142 9.83V19H5.51416V5H14.6842ZM14.6842 3H5.51416C4.41416 3 3.51416 3.9 3.51416 5V19C3.51416 20.1 4.41416 21 5.51416 21H19.5142C20.6142 21 21.5142 20.1 21.5142 19V9.83C21.5142 9.3 21.3042 8.79 20.9242 8.42L16.0942 3.59C15.7242 3.21 15.2142 3 14.6842 3ZM7.51416 15H17.5142V17H7.51416V15ZM7.51416 11H17.5142V13H7.51416V11ZM7.51416 7H14.5142V9H7.51416V7Z" fill="black"/>
</g>
</svg>
