<svg width="20" height="20" viewBox="0 0 20 20" fill="none" xmlns="http://www.w3.org/2000/svg">
<path d="M9.16667 12.5H10.8333V14.1667H9.16667V12.5ZM9.16667 5.83335H10.8333V10.8334H9.16667V5.83335ZM9.99167 1.66669C5.39167 1.66669 1.66667 5.40002 1.66667 10C1.66667 14.6 5.39167 18.3334 9.99167 18.3334C14.6 18.3334 18.3333 14.6 18.3333 10C18.3333 5.40002 14.6 1.66669 9.99167 1.66669ZM10 16.6667C6.31667 16.6667 3.33333 13.6834 3.33333 10C3.33333 6.31669 6.31667 3.33335 10 3.33335C13.6833 3.33335 16.6667 6.31669 16.6667 10C16.6667 13.6834 13.6833 16.6667 10 16.6667Z" fill="#ED3B3B"/>
</svg>
